<?xml version="1.0" standalone="no"?>
<!DOCTYPE svg PUBLIC "-//W3C//DTD SVG 1.1//EN" "http://www.w3.org/Graphics/SVG/1.1/DTD/svg11.dtd" >
<svg xmlns="http://www.w3.org/2000/svg" xmlns:xlink="http://www.w3.org/1999/xlink" version="1.1">
<metadata>
Created by FontForge 20170731 at Tue Mar 17 02:00:00 1998
 By Aleksey,,,
Copyright (c) 1992-97 Hewlett-Packard. All rights reserved.
</metadata>
<defs>
<font id="CourierHP-BoldItalic" horiz-adv-x="1229" >
  <font-face 
    font-family="Dark Courier"
    font-weight="700"
    font-style="italic"
    font-stretch="normal"
    units-per-em="2048"
    panose-1="2 7 6 9 2 2 5 9 4 4"
    ascent="1638"
    descent="-410"
    x-height="925"
    cap-height="1171"
    bbox="-648 -586 1710 1779"
    underline-thickness="105"
    underline-position="-563"
    slope="-12"
    unicode-range="U+0020-FB01"
  />
<missing-glyph horiz-adv-x="669" 
d="M0 1274h569v-1274h-569v1274zM100 1174v-1074h369v1074h-369z" />
    <glyph glyph-name=".notdef" horiz-adv-x="669" 
d="M0 1274h569v-1274h-569v1274zM100 1174v-1074h369v1074h-369z" />
    <glyph glyph-name="glyph1" horiz-adv-x="0" 
 />
    <glyph glyph-name="nonmarkingreturn" horiz-adv-x="682" 
 />
    <glyph glyph-name="space" unicode=" " 
 />
    <glyph glyph-name="exclam" unicode="!" 
d="M516 419l112 752h260l-198 -752h-174zM549 339q89 0 151 -52.5t62 -128.5t-62 -128.5t-151 -52.5t-151 52.5t-62 128.5t62 128.5t151 52.5z" />
    <glyph glyph-name="quotedbl" unicode="&#x22;" 
d="M308 454l120 717h324l-176 -717h-268zM740 454l120 717h324l-176 -717h-268z" />
    <glyph glyph-name="numbersign" unicode="#" 
d="M712 1328l-104 -406h169l104 406h207l-104 -406h168l-45 -219h-180l-48 -186h190l-45 -219h-201l-103 -402h-207l103 402h-169l-103 -402h-207l103 402h-166l45 219h178l48 186h-188l45 219h199l104 406h207zM551 703l-48 -186h170l47 186h-169z" />
    <glyph glyph-name="dollar" unicode="$" 
d="M854 793v0l21 105q-44 19 -82 27t-84 8q-103 0 -173.5 -26t-78.5 -66q-14 -65 44 -104q57 -39 228 -82q176 -44 238 -126q41 -55 41 -138q0 -42 -10 -90q-25 -122 -151 -200q-101 -64 -240 -77l-58 -287h-212l61 299q-61 14 -121 34v0l-12 -47h-185v0l81 362v0h185v0
l-26 -128q42 -21 106.5 -32t149.5 -11q96 0 163.5 29t76.5 74q10 48 -36 78q-45 30 -181 64q-201 50 -279 145q-56 67 -55 163q0 39 9 84q24 117 152 195q89 54 196 71l42 205h212l-43 -207l86 -23v0l14 55h185v0l-79 -354v0h-185z" />
    <glyph glyph-name="percent" unicode="%" 
d="M477 700q-129 0 -200 65t-71 183q1 138 100.5 233.5t243.5 95.5q124 0 197.5 -67t72.5 -181q0 -135 -101 -232t-242 -97v0zM531 1109q-59 0 -104.5 -43t-45.5 -99q0 -47 28.5 -73t80.5 -26q61 0 108.5 43t47.5 99q0 46 -30.5 72.5t-84.5 26.5v0zM133 490l961 392l54 -156
l-960 -392zM696 -61q-129 0 -200.5 65t-71.5 183q1 138 100.5 233.5t243.5 95.5q124 0 197.5 -67t72.5 -181q0 -135 -100.5 -232t-241.5 -97v0zM748 348q-59 0 -104 -43t-45 -99q0 -47 28.5 -73t80.5 -26q61 0 108.5 43t47.5 99q0 46 -31 72.5t-85 26.5v0z" />
    <glyph glyph-name="ampersand" unicode="&#x26;" 
d="M287 866q23 110 109 174.5t211 64.5q98 0 178 -33t140 -99l-147 -146q-58 40 -93.5 52.5t-93.5 12.5q-39 0 -66 -17t-33 -45q-1 -7 14.5 -48t44.5 -104l115 -258l11 17q55 93 66 144h54h135h136l-38 -185h-167l-13 -24q-45 -85 -93 -153l16 -34h250l-38 -185h-186h-187v0
l-23 49l-42 -25q-86 -47 -179 -47q-168 0 -251 100.5t-48 265.5q22 110 125 203q56 52 126 86q-20 53 -30 103q-15 74 -3 131zM396 190q36 0 82 27q13 9 26 14l-103 223q-26 -11 -51 -31q-62 -48 -74 -105q-12 -59 21 -94q32 -34 99 -34z" />
    <glyph glyph-name="quotesingle" unicode="'" 
d="M488 454l124 717h317l-172 -717h-269z" />
    <glyph glyph-name="parenleft" unicode="(" 
d="M350 569q48 232 123 381t250 363h234q-162 -198 -241 -358t-126 -386q-32 -158 -10.5 -374t84.5 -371h-234q-65 160 -89 376q-22 216 9 369z" />
    <glyph glyph-name="parenright" unicode=")" 
d="M849 568q-48 -232 -123 -381t-249 -363h-234q161 198 240 358t126 386q33 158 11.5 374t-84.5 371h234q65 -160 89 -376q22 -216 -10 -369z" />
    <glyph glyph-name="asterisk" unicode="*" 
d="M760 1169l-20 -267v0l257 101l72 -213l-271 -65v0l179 -202l-188 -132l-147 228v0l-146 -227l-188 132l179 204v0l-269 63l72 212l257 -100v0l-20 266h233z" />
    <glyph glyph-name="plus" unicode="+" 
d="M508 346h-337v218h337v337h218v-337h337v-218h-337v-337h-218v337z" />
    <glyph glyph-name="comma" unicode="," 
d="M219 -239l329 629h342l-415 -629h-256z" />
    <glyph glyph-name="hyphen" unicode="-" 
d="M327 720h630l-46 -219h-630z" />
    <glyph glyph-name="period" unicode="." 
d="M532 339q89 0 151 -52.5t62 -128.5t-62 -128.5t-151 -52.5t-151 52.5t-62 128.5t62 128.5t151 52.5z" />
    <glyph glyph-name="slash" unicode="/" 
d="M1227 1347l-1083 -1640l-159 83l1087 1646z" />
    <glyph glyph-name="zero" unicode="0" 
d="M506 -23q-165 0 -250 95q-82 93 -82 277v4q0 16 0.5 31t0.5 29q25 395 170.5 617.5t379.5 222.5q162 0 247 -97.5t85 -283.5v-30.5t-1 -26.5q-25 -394 -170.5 -616t-379.5 -222v0zM528 190q118 0 204 167t103 429q1 17 2 29t0 20q0 104 -33.5 154.5t-101.5 50.5
q-118 0 -203.5 -167.5t-102.5 -430.5q-1 -17 -1.5 -29t-0.5 -20q1 -103 33.5 -153t100.5 -50v0z" />
    <glyph glyph-name="one" unicode="1" 
d="M465 185l168 814v0l-363 -62l44 216l585 100v0v0l-221 -1068h350l-38 -185h-456h-457l38 185h350z" />
    <glyph glyph-name="two" unicode="2" 
d="M1053 920q0 -108 -67 -212q-67 -105 -202 -206l-386 -289v0h340l25 105h185l-38 -159l-38 -159v0h-851l23 99l24 99l613 458q75 56 113 112q37 55 37 111q0 84 -44 122.5t-140 38.5q-81 0 -145.5 -38.5t-78.5 -93.5l-13 -58v0h-185l52 220v0q88 87 197 135t218 48
q170 0 265.5 -87.5t95.5 -242.5v-3z" />
    <glyph glyph-name="three" unicode="3" 
d="M774 930q0 58 -38 84t-122 26q-59 0 -151 -34t-140 -73l-72 167q85 69 206 111t233 42q146 0 228 -76t82 -210q0 -158 -127 -259q-29 -24 -64 -42v0q33 -15 58 -38q86 -76 86 -225q0 -175 -146.5 -300.5t-350.5 -125.5q-131 0 -225.5 24t-197.5 84l117 180
q139 -54 187 -67t112 -13q115 0 197 61t82 147q0 68 -47.5 104.5t-136.5 36.5h-102l34 212h54q112 0 178 50q65 49 66 134z" />
    <glyph glyph-name="four" unicode="4" 
d="M572 364h-497l21 101l21 101l608 688h122h122l-140 -677v0h178l-44 -213h-178v0l-37 -179h167l-38 -185h-294h-294l38 185h208l37 179v0zM616 577v0l82 396v0v0l-351 -396v0h269z" />
    <glyph glyph-name="five" unicode="5" 
d="M998 439q0 -194 -153.5 -328t-376.5 -134q-131 0 -206 18t-208 82l117 196q27 -25 131.5 -54t169.5 -29q136 0 223 65.5t87 169.5q-1 77 -51.5 121t-138.5 44q-76 0 -150.5 -16t-121.5 -43l-91 60l125 639v0h765l-51 -213h-553v0l-46 -233v0q94 19 170 19q167 0 264 -98
q95 -97 95 -266z" />
    <glyph glyph-name="six" unicode="6" 
d="M1155 1240l-40 -210q-68 10 -131 10q-231 0 -386 -134q-80 -70 -133 -168v0q80 42 169 42q159 0 248.5 -86.5t89.5 -239.5q0 -210 -124 -343.5t-319 -133.5q-174 0 -275 117q-92 108 -93 277l1 31q21 428 299 663q222 187 532 187q78 0 162 -12zM527 190q89 0 156.5 65
t67.5 151q0 84 -37 122.5t-117 38.5q-119 0 -205 -89v0q-6 -38 -7 -76q-4 -100 33.5 -156t108.5 -56z" />
    <glyph glyph-name="seven" unicode="7" 
d="M303 0l560 1017v0h-441l-40 -167h-185l45 190l46 190v0h863l-21 -87l-21 -87l-580 -1056h-226z" />
    <glyph glyph-name="eight" unicode="8" 
d="M872 606v0l12 -7q93 -71 93 -196q0 -187 -139 -307q-137 -119 -355 -119q-162 0 -253.5 77t-91.5 214q0 185 132 294q46 38 104 62v0l-11 8q-89 83 -90 216q0 178 128 291.5t329 113.5q160 0 250 -80q91 -78 90 -219v-3q0 -189 -125 -296q-32 -27 -73 -49zM653 719
q84 0 141.5 53t57.5 130q0 67 -40 102.5t-117 35.5q-90 0 -147.5 -47.5t-57.5 -121.5q0 -73 42 -113q42 -39 121 -39zM592 511q-105 0 -171 -56.5t-66 -144.5q-1 -59 43 -89.5t128 -30.5q102 0 167 49t65 126q1 70 -43 108q-43 38 -123 38z" />
    <glyph glyph-name="nine" unicode="9" 
d="M79 -23l39 210q67 -10 130 -10q231 1 387 136q81 69 130 167v0q-77 -39 -166 -39q-154 0 -245 93t-91 247v4q0 201 138 334.5t346 133.5q155 0 244 -118q81 -108 81 -276l-1 -35q-20 -432 -298 -669q-222 -189 -533 -190q-79 0 -161 12zM708 1040q-90 0 -159 -68
q-67 -67 -67 -157q0 -86 38 -128t115 -42q119 -1 209 113v0l4 66q5 102 -32 159t-108 57z" />
    <glyph glyph-name="colon" unicode=":" 
d="M532 339q89 0 151 -52.5t62 -128.5t-62 -128.5t-151 -52.5t-151 52.5t-62 128.5t62 128.5t151 52.5zM644 856q89 0 151 -52.5t62 -128.5t-62 -128.5t-151 -52.5t-151 52.5t-62 128.5t62 128.5t151 52.5z" />
    <glyph glyph-name="semicolon" unicode=";" 
d="M166 -239l329 630h342l-415 -630h-256zM703 856q89 0 151 -52.5t62 -128.5t-62 -128.5t-151 -52.5t-151 52.5t-62 128.5t62 128.5t151 52.5z" />
    <glyph glyph-name="less" unicode="&#x3c;" 
d="M148 316v130v130l893 337v-211l-678 -256v0l678 -256v-211z" />
    <glyph glyph-name="equal" unicode="=" 
d="M176 358h892v-219h-892v219zM176 726h892v-219h-892v219z" />
    <glyph glyph-name="greater" unicode="&#x3e;" 
d="M1113 316l-893 -337v211l678 256v0l-678 256v211l893 -337v-130v-130z" />
    <glyph glyph-name="question" unicode="?" 
d="M652 981q-51 0 -91 -6q-37 -5 -81 -18l-24 -128v0h-185l55 289v0q44 25 167 50.5t199 25.5q198 0 296 -98t66 -265q-25 -129 -177 -212q-89 -48 -228 -84v0l-22 -115h-212l45 240v0q164 25 262 73t110 108q14 73 -30 107q-42 33 -150 33zM472 339q89 0 151 -52.5
t62 -128.5t-62 -128.5t-151 -52.5t-151 52.5t-62 128.5t62 128.5t151 52.5z" />
    <glyph glyph-name="at" unicode="@" 
d="M834 437q67 0 107.5 65t40.5 172q0 159 -108 256t-285 97q-173 0 -283 -126t-110 -324q0 -207 103.5 -329t280.5 -122q87 0 212 47.5t220 115.5l68 -165q-89 -67 -232 -113t-261 -46q-266 0 -422 165t-156 447q0 263 164.5 437t411.5 174q260 0 418 -141.5t158 -372.5
q0 -187 -94 -301.5t-247 -114.5q-94 0 -153 64v0q-78 -64 -169 -64q-80 0 -131.5 61t-52.5 155q0 167 94 297t213 130q49 1 84 -34v0l3 11v0h163l-88 -366q-9 -38 3.5 -56.5t47.5 -18.5zM623 731q-52 0 -95 -75.5t-43 -167.5q-1 -28 10 -44t30 -16q31 0 61.5 43.5
t45.5 108.5q16 66 13.5 108.5t-22.5 42.5z" />
    <glyph glyph-name="A" unicode="A" 
d="M43 185l480 789h-266l39 185h261h262v0l189 -974h118l-38 -185h-255h-256l38 185h165l-25 131v0h-417v0l-77 -131h184l-38 -185h-263h-264l38 185h125zM654 854l-191 -325v0h252v0l-61 325v0v0z" />
    <glyph glyph-name="B" unicode="B" 
d="M141 185l166 801h-167l38 185h273v0h254q201 0 303.5 -73.5t102.5 -216.5q0 -166 -128 -243q-30 -18 -69 -32v0q32 -10 55 -25q112 -66 112 -202v-3q0 -184 -147 -280q-145 -96 -427 -96h-298v0h-261l38 185h155zM514 958l-55 -267v0h156q144 0 208 36t63 118
q1 56 -48.5 84.5t-145.5 28.5h-178v0zM414 478l-54 -265v0h196q162 0 228 36.5t66 125.5q1 56 -53 79.5t-180 23.5h-203v0z" />
    <glyph glyph-name="C" unicode="C" 
d="M1077 152q-132 -89 -260.5 -132t-260.5 -43q-224 0 -348 127.5t-124 359.5q0 307 196 518.5t480 211.5q159 0 258 -56v0l15 56h185v0l-100 -480v0h-185v0l44 210q-27 27 -84 42t-133 15q-196 0 -325.5 -141.5t-129.5 -355.5q0 -140 72 -217t203 -77q113 0 215 32.5
t195 98.5z" />
    <glyph glyph-name="D" unicode="D" 
d="M114 185l166 801h-167l38 185h273v0h318q199 0 309 -110t110 -310q0 -338 -183 -545q-181 -206 -478 -206h-318v0h-256l38 185h150zM333 213v0h183q185 0 298 146.5t113 385.5q0 117 -66 165t-226 48h-148v0z" />
    <glyph glyph-name="E" unicode="E" 
d="M-31 0l38 185h167l166 801h-167l38 185h380v0h643v0l-47 -229l-48 -230h-185l51 246h-458v0l-53 -255v0h187l30 143h185l-52 -249l-52 -250h-185l30 143h-187v0l-57 -277v0h476l51 246h185l-48 -229l-47 -230v0h-661v0h-380z" />
    <glyph glyph-name="F" unicode="F" 
d="M198 185l166 801h-167l38 185h380v0h631v0l-47 -229l-48 -230h-185l51 246h-446v0l-53 -255v0h184l30 143h185l-52 -249l-52 -250h-185l30 143h-184v0l-63 -305h250l-38 -185h-310h-311l38 185h158z" />
    <glyph glyph-name="G" unicode="G" 
d="M548 -23q-233 0 -362 120.5t-129 338.5q0 318 190 538t465 220q191 0 294 -81v0l21 81h185v0l-97 -468v0h-185v0l39 187q-49 32 -118 50t-146 18q-169 0 -296 -154t-128 -359q1 -133 77 -205.5t215 -72.5h-2q123 2 227 34v0l29 141h-283l38 185h298h298l-38 -185h-100
l-60 -290v0q-187 -98 -432 -98z" />
    <glyph glyph-name="H" unicode="H" 
d="M122 185l166 801h-150l38 185h248h248l-38 -185h-133l-61 -295v0h381v0l61 295h-133l38 185h248h248l-38 -185h-150l-166 -801h150l-38 -185h-248h-248l38 185h133l60 293v0h-381v0l-60 -293h133l-38 -185h-248h-248l38 185h150z" />
    <glyph glyph-name="I" unicode="I" 
d="M442 185l166 801h-350l38 185h456h457l-38 -185h-350l-166 -801h350l-38 -185h-456h-457l38 185h350z" />
    <glyph glyph-name="J" unicode="J" 
d="M814 986h-384l38 185h423h424l-38 -185h-250l-140 -675q-33 -160 -139.5 -247t-270.5 -87q-142 0 -228 24t-236 106v0l82 507h185v0l-40 -250q-8 -49 3.5 -82t41.5 -47l44 -21q58 -24 123 -24q106 0 159.5 38t71.5 126z" />
    <glyph glyph-name="K" unicode="K" 
d="M185 185l166 801h-167l38 185h254h255l-38 -185h-129l-59 -281v0l326 281h-64l38 185h241h241l-38 -185h-125l-388 -325v0q37 -63 69 -126q77 -148 148 -350h200l-38 -185h-172h-172v0q-66 221 -135 368q-33 69 -78 144v0l-112 -93v0l-48 -234h167l-38 -185h-273h-274
l38 185h167z" />
    <glyph glyph-name="L" unicode="L" 
d="M-22 0l38 185h197l166 801h-208l38 185h325h326l-38 -185h-230l-160 -773v0h439l76 369h185l-60 -291l-60 -291v0h-624v0h-410z" />
    <glyph glyph-name="M" unicode="M" 
d="M213 185h217l-38 -185h-265h-265l38 185h121l194 801h-155l38 185h206h207v0l95 -531v0v0l321 531v0h197h197l-38 -185h-133l-138 -801h133l-38 -185h-281h-281l38 185h217l99 579v0l-306 -507h-72h-72l-94 519v0z" />
    <glyph glyph-name="N" unicode="N" 
d="M314 185h208l-38 -185h-285h-286l38 185h150l166 801h-167l38 185h195h195v0l294 -790v0v0l126 605h-208l38 185h277h277l-38 -185h-133l-204 -986h-114h-114l-292 781v0v0z" />
    <glyph glyph-name="O" unicode="O" 
d="M486 -23q-206 0 -319.5 124t-113.5 349q-1 312 198 528t486 216q206 0 319 -124t114 -350q0 -312 -199 -528q-197 -215 -485 -215v0zM510 190q176 0 307 153.5t132 357.5q-1 133 -62.5 206.5t-174.5 73.5q-175 0 -306.5 -153.5t-131.5 -358.5q0 -133 61.5 -206t174.5 -73
v0z" />
    <glyph glyph-name="P" unicode="P" 
d="M238 185l166 801h-167l38 185h273v0h249q188 0 291.5 -91.5t103.5 -257.5q0 -217 -134 -330q-132 -112 -387 -112h-180v0l-40 -195h292l-38 -185h-331h-332l38 185h158zM535 593v0h128q153 0 229.5 51t77.5 153q-1 77 -53.5 119t-149.5 42h-156v0z" />
    <glyph glyph-name="Q" unicode="Q" 
d="M1006 -152q-59 -42 -139.5 -71t-139.5 -29q-69 0 -108.5 11.5t-71.5 41.5q-32 29 -56.5 40.5t-57.5 11.5q-46 0 -121.5 -39t-138.5 -95l-63 164q86 68 163 115l20 12v0q-76 31 -132 91q-112 124 -112 349q-1 312 198 528t486 216q206 0 319 -124t114 -350
q0 -312 -199 -528q-145 -157 -337 -200v0l37 -19q35 -19 54 -26.5t32 -7.5q34 0 79.5 15.5t79.5 38.5zM708 981q-175 0 -306.5 -153.5t-131.5 -358.5q0 -133 61.5 -206t174.5 -73q176 0 307 153.5t132 357.5q-1 133 -62.5 206.5t-174.5 73.5v0z" />
    <glyph glyph-name="R" unicode="R" 
d="M140 185l166 801h-167l38 185h273v0h240q202 0 295.5 -68.5t93.5 -215.5q0 -187 -137 -301q-75 -64 -181 -92v0q47 -79 83 -149q36 -72 75 -160h200l-38 -185h-200h-162q-64 206 -127 345q-27 60 -64 127v0l-116 -2v0l-59 -285h183l-38 -185h-274h-275l38 185h153z
M452 663v0h121q142 0 213 47t71 141q0 57 -46.5 82t-152.5 25h-145v0z" />
    <glyph glyph-name="S" unicode="S" 
d="M851 749v0l43 210q-68 13 -111.5 17.5t-89.5 4.5q-103 0 -178 -41q-73 -41 -87 -106q-15 -74 42 -110q58 -35 222 -54q201 -23 276 -115q50 -61 50 -161q1 -50 -12 -109q-29 -136 -165.5 -222t-324.5 -86q-169 0 -322 59v0l-14 -59h-185v0l91 445v0h185v0l-39 -187
q58 -23 134 -34t174 -11q103 0 175.5 35.5t83.5 91.5q14 68 -33 100q-48 32 -184 47q-218 24 -308 125q-62 70 -63 181q1 45 11 98q29 140 168 233t319 93q119 0 223 -41v0l11 41h185v0l-92 -445v0h-185z" />
    <glyph glyph-name="T" unicode="T" 
d="M413 185l160 773v0h-248l-54 -258h-185l49 235l49 236v0h539v0h540v0l-49 -235l-49 -236h-185l54 258h-248v0l-160 -773h250l-38 -185h-348h-348l38 185h233z" />
    <glyph glyph-name="U" unicode="U" 
d="M1014 444q-52 -252 -168.5 -359.5t-340.5 -107.5q-229 0 -325 119q-62 80 -63 207q0 66 16 141l113 542h-150l38 185h265h265l-38 -185h-167l-118 -568q-10 -44 -9 -80q0 -61 27 -95q42 -53 163 -53q120 0 184.5 53.5t89.5 174.5l118 568h-167l38 185h256h257l-38 -185
h-133z" />
    <glyph glyph-name="V" unicode="V" 
d="M200 986h-137l38 185h263h264l-38 -185h-165l115 -711v0v0l409 711h-184l38 185h268h268l-38 -185h-125l-589 -986h-104h-104z" />
    <glyph glyph-name="W" unicode="W" 
d="M90 0l69 986h-100l38 185h257h257l-38 -185h-202l-54 -609v0v0l305 572h72h73l85 -531v0v0l168 568h-184l38 185h240h240l-38 -185h-106l-308 -986h-104h-104l-77 564v0v0l-313 -564h-107h-107z" />
    <glyph glyph-name="X" unicode="X" 
d="M88 185l404 426v0l-208 375h-125l38 185h246h247l-38 -185h-114l115 -208v0v0l197 208h-110l38 185h237h238l-38 -185h-125l-349 -367v0l241 -434h125l-38 -185h-263h-263l38 185h147l-147 266v0v0l-253 -266h165l-38 -185h-265h-265l38 185h125z" />
    <glyph glyph-name="Y" unicode="Y" 
d="M486 453v0l-234 533h-137l38 185h249h250l-38 -185h-110l126 -330v0l245 330h-110l38 185h253h253l-38 -185h-150l-420 -525v0l-57 -276h233l-38 -185h-339h-340l38 185h233z" />
    <glyph glyph-name="Z" unicode="Z" 
d="M55 159l741 799v0h-390l-54 -258h-185l49 235l49 236v0h503v0h380l-16 -76l-15 -76l-747 -806v0h452l61 295h185l-53 -254l-52 -254v0h-560v0h-380l16 79z" />
    <glyph glyph-name="bracketleft" unicode="[" 
d="M256 -180l308 1493v0h420l-44 -215h-212v0l-220 -1063v0h212l-44 -215h-420v0z" />
    <glyph glyph-name="backslash" unicode="\" 
d="M688 -295l-391 1669l198 61l391 -1669z" />
    <glyph glyph-name="bracketright" unicode="]" 
d="M648 -180v0h-420l44 215h212v0l220 1063v0h-212l44 215h420v0z" />
    <glyph glyph-name="asciicircum" unicode="^" 
d="M669 1536q69 -158 144 -252q76 -95 216 -197v-94q-232 105 -368 219l-46 41v0l-44 -40q-136 -114 -367 -220v94q139 102 214 196q76 95 145 253h53h53z" />
    <glyph glyph-name="underscore" unicode="_" 
d="M0 -512v105h1229v-105h-1229z" />
    <glyph glyph-name="grave" unicode="`" 
d="M972 1048l-651 173l78 218l612 -282z" />
    <glyph glyph-name="a" unicode="a" 
d="M335 -23q-125 0 -211.5 77.5t-86.5 190.5q1 161 158 263t404 102q86 1 161 -13v0l4 17q12 60 -28 90.5t-131 30.5q-67 0 -189 -20t-170 -39l-37 217q84 21 226.5 38t240.5 17q178 0 257 -87q56 -62 56 -159q0 -41 -10 -88l-89 -429h173l-38 -185h-194h-194v0l14 70v0
l-57 -30q-128 -63 -259 -63zM704 325l11 55v0q1 2 -68.5 9.5t-85.5 7.5q-133 0 -222 -36q-87 -35 -87 -89q0 -38 39.5 -60t108.5 -22q71 0 162.5 40.5t141.5 94.5v0z" />
    <glyph glyph-name="b" unicode="b" 
d="M315 1091h-154l35 185h157h158h54l-76 -398v0q124 71 272 70q171 0 285 -116t114 -289q0 -238 -164 -402q-162 -164 -398 -164q-147 0 -262 101v0l-14 -78v0h-186h-187l35 185h158zM612 190q138 0 229.5 92.5t91.5 232.5q0 102 -57 161t-155 59q-111 0 -200 -77.5
t-111 -194.5v0v0v0q-23 -120 33.5 -196.5t168.5 -76.5z" />
    <glyph glyph-name="c" unicode="c" 
d="M1027 176q-96 -84 -248.5 -141.5t-278.5 -57.5q-197 0 -308.5 104.5t-111.5 290.5q1 248 172.5 412t430.5 164q132 0 222 -37v0l7 37h185v0l-82 -402v0h-185v0l34 165q-103 16 -139 20t-80 4q-142 0 -240.5 -97t-97.5 -237q0 -98 53 -152t150 -54q123 0 230.5 32.5
t207.5 100.5z" />
    <glyph glyph-name="d" unicode="d" 
d="M417 -23q-176 0 -285.5 109.5t-109.5 285.5q0 242 159 409t390 167q169 1 276 -89v0l48 232h-261l39 185h211h211h54l-226 -1091h165l-38 -185h-190h-190v0l9 44v0q-118 -67 -262 -67zM576 735q-141 0 -239 -95t-98 -232q0 -101 57 -159.5t155 -58.5q124 0 205.5 71
t108.5 202q25 120 -28 196t-161 76z" />
    <glyph glyph-name="e" unicode="e" 
d="M505 -23q-197 0 -309 104.5t-112 289.5q1 248 179 412.5t447 164.5q172 0 280.5 -99t108.5 -253v-3q1 -100 -26 -187v0h-768v0l-1 -17q0 -95 64.5 -147t182.5 -52q100 0 214 21.5t233 63.5l53 -145q-164 -79 -296.5 -116t-249.5 -37zM889 582v0q-10 64 -55 102
q-57 51 -162 51q-180 0 -275 -88q-29 -27 -50 -65v0h542z" />
    <glyph glyph-name="f" unicode="f" 
d="M664 712v0l-109 -527h417l-38 -185h-417h-418l38 185h203l109 527v0h-188l44 213h188v0l22 104q31 150 129.5 222t273.5 72q58 0 113 -11t216 -54l-98 -168q-120 13 -162 16.5t-81 3.5q-92 0 -132.5 -31.5t-57.5 -116.5l-8 -37v0h396l-44 -213h-396z" />
    <glyph glyph-name="g" unicode="g" 
d="M396 -161q132 0 193.5 34t78.5 117l20 100v0q-126 -66 -278 -67q-152 0 -251.5 101.5t-99.5 256.5q1 249 157 408t401 159q133 1 231 -88v0l13 65v0h191h191l-38 -185h-167l-155 -750q-40 -196 -151 -280q-109 -84 -326 -84q-130 0 -203 12.5t-220 61.5l84 188
q20 -14 139.5 -31.5t189.5 -17.5zM593 735q-136 0 -226 -91t-90 -228q-1 -84 48.5 -132t134.5 -48q124 0 204.5 65t105.5 185q23 110 -26.5 179.5t-150.5 69.5z" />
    <glyph glyph-name="h" unicode="h" 
d="M101 185l187 906h-154l39 185h157h158h54l-82 -397v0v0q145 70 287 69q153 0 223.5 -78t41.5 -215l-97 -470h158l-38 -185h-257h-258l38 185h142l87 422q13 64 -14.5 95.5t-99.5 31.5q-82 0 -183 -47q-46 -20 -80 -46v0l-94 -456h126l-38 -185h-249h-250l38 185h158z" />
    <glyph glyph-name="i" unicode="i" 
d="M440 185l115 555h-284l38 185h222h223h54l-153 -740h347l-38 -185h-454h-455l38 185h347zM651 1392h248l-69 -332h-248z" />
    <glyph glyph-name="j" unicode="j" 
d="M666 740h-505l38 185h333h333h54l-193 -939q-40 -192 -153 -278.5t-324 -86.5q-81 0 -126.5 8t-131.5 38l73 184q101 -13 137 -16t81 -3q98 0 157.5 48.5t77.5 143.5zM763 1392h248l-69 -332h-248z" />
    <glyph glyph-name="k" unicode="k" 
d="M138 185l187 906h-154l39 185h157h158h54l-135 -651v0l188 123h-69l37 177h277h277l-38 -185h-173l-318 -207v0q43 -45 77 -92q87 -113 189 -256h189l-38 -185h-263h-263l38 185h63q-44 67 -85 121q-38 53 -87 110v0l-51 -33v0l-79 -383h-54h-159h-160l38 185h158z" />
    <glyph glyph-name="l" unicode="l" 
d="M443 185l187 906h-338l39 185h249h250h54l-226 -1091h347l-38 -185h-454h-455l38 185h347z" />
    <glyph glyph-name="m" unicode="m" 
d="M1 185l115 555h-126l38 185h132h133h54l-11 -52l3 2v0q90 73 191 73q103 0 158 -81l3 -5l4 3q116 83 213 83q139 0 186 -84q26 -46 26 -123q0 -61 -17 -143l-85 -413h126l-38 -185h-170h-171v0l128 619q12 58 -0.5 86.5t-50.5 28.5q-36 0 -92 -45l-34 -30v0l-98 -474h102
l-38 -185h-158h-159v0l132 638q10 49 -3.5 72.5t-52.5 23.5q-37 0 -93 -45l-34 -30v0l-98 -474h110l-38 -185h-217h-218l38 185h110z" />
    <glyph glyph-name="n" unicode="n" 
d="M121 185l115 555h-158l38 185h148h149h54l-12 -58v0v0q157 81 312 81q153 0 223.5 -78t41.5 -215l-97 -470h158l-38 -185h-257h-258l38 185h142l87 422q13 64 -14.5 95.5t-99.5 31.5q-82 0 -183 -47q-47 -21 -80 -45v0l-94 -457h126l-38 -185h-249h-250l38 185h158z" />
    <glyph glyph-name="o" unicode="o" 
d="M494 -23q-212 0 -336 111q-122 109 -122 299v3q0 240 173.5 399t434.5 159q215 0 335.5 -112.5t120.5 -312.5q0 -235 -172.5 -390.5t-433.5 -155.5v0zM523 190q148 0 251 93t103 227q0 107 -69 166t-194 59q-148 0 -250.5 -93t-102.5 -227q0 -107 68.5 -166t193.5 -59v0z
" />
    <glyph glyph-name="p" unicode="p" 
d="M234 740h-158l35 185h159h160h54l-9 -47v0q128 70 277 70q173 0 288.5 -116t115.5 -289q0 -238 -165 -402q-163 -164 -402 -164q-150 1 -266 102v0l-51 -269h298l-35 -185h-335h-336l35 185h158zM604 190q139 0 231.5 92t92.5 231q1 103 -57 162.5t-159 59.5
q-114 0 -204 -77.5t-112 -194.5v0v0v0q-23 -120 35.5 -196.5t172.5 -76.5z" />
    <glyph glyph-name="q" unicode="q" 
d="M445 -23q-181 0 -293.5 110t-112.5 287q0 241 161.5 407.5t395.5 166.5q174 0 287 -90v0l14 67v0h186h187l-38 -185h-158l-192 -930h165l-38 -185h-339h-339l38 185h298l48 236v0q-122 -69 -270 -69zM605 735q-144 0 -245 -94q-99 -94 -100 -231q0 -102 59 -161t162 -59
q127 0 210 71t110 202q25 120 -30 196t-166 76z" />
    <glyph glyph-name="r" unicode="r" 
d="M289 185l115 555h-237l38 185h188h188h54l-29 -140v0v0q76 51 146 87q150 76 261 76q116 0 158.5 -58t21.5 -187l-203 -22q2 29 -4.5 41t-23.5 12q-67 0 -198 -66q-97 -48 -183 -111v0l-77 -372h379l-38 -185h-420h-420l38 185h246z" />
    <glyph glyph-name="s" unicode="s" 
d="M819 592v0l27 129q-75 8 -114 11t-73 3q-94 0 -158 -17q-62 -16 -68 -42q-8 -43 48 -68t213 -48q206 -30 276 -98q50 -47 49 -132q1 -34 -8 -76q-27 -133 -148.5 -205t-319.5 -72q-159 0 -301 54v0l-13 -54h-189v0l80 393v0h189v0l-31 -148q66 -17 135.5 -24.5
t154.5 -7.5q94 0 157.5 19.5t69.5 50.5q10 46 -28 66q-38 19 -177 40q-229 33 -314 109q-63 57 -63 151q-1 33 7 69q25 119 146 186t310 67q110 -1 210 -29v0l7 29h185v0l-74 -356v0h-185z" />
    <glyph glyph-name="t" unicode="t" 
d="M559 -23q-187 0 -270.5 90t-49.5 256l81 389v0h-122l44 213h122v0l59 287h215l-59 -287v0h484l-44 -213h-484v0l-81 -389q-13 -66 23.5 -99.5t123.5 -33.5t233.5 31t192.5 59l-39 -192q-78 -48 -199.5 -79.5t-229.5 -31.5z" />
    <glyph glyph-name="u" unicode="u" 
d="M480 925l-119 -576q-17 -81 8.5 -120t94.5 -39q86 0 179 45q42 20 74 44v0l96 461h-173l38 185h167h167h54l-153 -740h158l-38 -185h-175h-176v0l11 56v0v0q-150 -80 -303 -80q-150 0 -216 100q-41 63 -41 158q0 53 13 116l81 390h-158l38 185h159h160h54z" />
    <glyph glyph-name="v" unicode="v" 
d="M202 740h-173l38 185h268h268l-38 -185h-127l101 -449v0v0l286 449h-116l38 185h254h254l-38 -185h-158l-491 -740h-90h-91z" />
    <glyph glyph-name="w" unicode="w" 
d="M157 0l-52 740h-102l38 185h235h235l-38 -185h-139l16 -361v0v0l229 407h67h68l58 -382v0v0l150 336h-116l38 185h215h215l-38 -185h-94l-348 -740h-90h-91l-67 350v0v0l-208 -350h-90h-91z" />
    <glyph glyph-name="x" unicode="x" 
d="M107 185l338 295v0l-198 260h-158l38 185h249h249l-38 -185h-58l85 -111v0v0l127 111h-46l38 185h236h237l-38 -185h-158l-289 -252v0l230 -303h158l-38 -185h-256h-257l38 185h73l-117 154v0v0l-176 -154h69l-38 -185h-248h-248l38 185h158z" />
    <glyph glyph-name="y" unicode="y" 
d="M1128 740l-723 -932h149l-39 -185h-300h-300l39 185h221l227 300v0l-192 632h-150l38 185h240h240l-38 -185h-96l116 -423v0v0l322 423h-87l38 185h237h238l-38 -185h-142z" />
    <glyph glyph-name="z" unicode="z" 
d="M97 165l631 545v0h-320l-32 -153h-185l38 184l38 184v0h476v0h360l-17 -82l-17 -83l-631 -545v0h338l32 156h185l-38 -185l-38 -186v0h-494v0h-360l16 82z" />
    <glyph glyph-name="braceleft" unicode="{" 
d="M767 -476q-299 -14 -386.5 68t-29.5 323l44 188q39 163 5.5 244.5t-143.5 95.5l51 214q99 0 178 79.5t111 209.5l45 188q64 268 190 356t424 74l-53 -219q-153 7 -221.5 -24.5t-89.5 -119.5l-64 -266q-61 -254 -185 -354q-37 -30 -88 -52v0q27 -22 48 -47
q89 -109 46 -290l-63 -266q-30 -123 13.5 -157t220.5 -26z" />
    <glyph glyph-name="bar" unicode="|" 
d="M562 -512v2048h105v-2048h-105z" />
    <glyph glyph-name="braceright" unicode="}" 
d="M25 -476l53 219q153 -7 220.5 20.5t86.5 104.5l63 266q55 231 172 331q43 38 111 70v0q-44 25 -68 61q-76 108 -19 347l64 266q22 92 -25 118t-222 18l53 219q283 13 374 -85.5t30 -352.5l-45 -188q-38 -158 -5 -227t152 -81l-54 -223q-143 -30 -200.5 -96.5
t-101.5 -251.5l-44 -188q-53 -218 -189 -297q-137 -80 -406 -50z" />
    <glyph glyph-name="asciitilde" unicode="~" 
d="M163 392q79 117 143.5 164.5t143.5 47.5q47 0 113.5 -14.5t114.5 -35.5q49 -21 90 -36t51 -15q21 0 44.5 27.5t67.5 103.5l143 -122q-71 -117 -131.5 -164.5t-139.5 -47.5q-57 0 -128 16t-116 40q-36 19 -68.5 32t-44.5 13q-35 0 -65 -27.5t-76 -103.5z" />
    <glyph glyph-name="uni00A0" unicode="&#xa0;" 
 />
    <glyph glyph-name="exclamdown" unicode="&#xa1;" 
d="M739 474l-110 -741h-263l197 741h176zM705 553q-89 0 -151 52.5t-62 128.5t62 128.5t151 52.5t151 -52.5t62 -128.5t-62 -128.5t-151 -52.5z" />
    <glyph glyph-name="cent" unicode="&#xa2;" 
d="M661 1288h215l-57 -276q40 -5 72 -17v0l12 51h176v0l-77 -372v0h-176v0l27 129q-71 19 -99.5 24t-66.5 5q-117 0 -198 -88t-81 -215q0 -79 46.5 -124.5t127.5 -45.5q86 0 190 41t182 106l67 -165q-86 -71 -219 -122q-84 -31 -156 -44l-60 -292h-215l61 300
q-86 22 -146 75q-101 90 -101 250q0 63 12 120q29 143 134 248q115 115 274 140z" />
    <glyph glyph-name="sterling" unicode="&#xa3;" 
d="M1012 98q-55 -52 -133.5 -88t-137.5 -36q-43 0 -91.5 11.5t-95.5 33.5q-31 14 -63.5 21.5t-61.5 7.5q-37 0 -97 -24q-58 -24 -139 -73l-83 152q79 40 151 137t85 181q7 46 7 84q2 12 -1 29h-204l34 213h159l-2 68q0 45 7 93q24 148 144.5 246.5t279.5 98.5
q148 0 239.5 -62.5t135.5 -194.5l-178 -72q-27 62 -72.5 91.5t-115.5 29.5q-82 0 -144 -41q-60 -41 -70 -102q-6 -43 -6 -79l1 -76h407l-34 -213h-361l2 -22q-1 -47 -9 -101q-14 -88 -81 -181l16 1q14 0 50.5 -11t89.5 -31q40 -15 71.5 -23.5t49.5 -8.5q32 0 73.5 18.5
t92.5 55.5z" />
    <glyph glyph-name="currency" unicode="&#xa4;" 
d="M899 700q0 119 -82.5 201.5t-201.5 82.5t-201.5 -82.5t-82.5 -201.5t82.5 -201.5t201.5 -82.5t201.5 82.5t82.5 201.5zM615 216q-153 0 -272 80v0l-136 -136l-132 132l136 136v0q-80 119 -80 272q2 154 79 273v0l-135 135l132 132l136 -136v0q118 80 272 80t272 -80v0
l136 136l132 -132l-136 -136v0q80 -119 80 -272q1 -153 -81 -271v0l137 -137l-132 -132l-136 136v0q-118 -79 -272 -80z" />
    <glyph glyph-name="yen" unicode="&#xa5;" 
d="M216 501l27 127h255v0l-230 416h-140l38 185h258h258l-38 -185h-110l121 -251v0l208 251h-110l38 185h259h260l-38 -185h-150l-376 -416v0h262l-27 -127h-276v0l-17 -82v0h276l-26 -127h-276v0l-22 -107h250l-38 -185h-356h-357l38 185h250l22 107v0h-276l26 127h276v0
l17 82v0h-276z" />
    <glyph glyph-name="brokenbar" unicode="&#xa6;" 
d="M562 -461v919h105v-919h-105zM562 564v919h105v-919h-105z" />
    <glyph glyph-name="section" unicode="&#xa7;" 
d="M498 1194h468v0v-379h-167v0v166h-301q-35 0 -35 10q0 -6 117 -106l234 -200q117 -100 159 -153t42 -101q0 -132 -114 -198l-23 -12l24 -27q53 -64 53 -107q0 -108 -75.5 -167t-214.5 -59h-449v0v383h185v0v-169q20 -1 61.5 -1h202.5l70 1q0 4 -101 90l-243 207
q-104 89 -145 150.5t-41 128.5q0 102 120 182q-29 28 -45 49q-37 48 -37 106q0 97 68 152q67 54 187 54zM795 408q0 8 -30.5 38.5t-86.5 78.5l-204 174q-48 -16 -49 -36q0 -27 27 -58t115 -106l147 -126l22 4q59 10 59 31z" />
    <glyph glyph-name="dieresis" unicode="&#xa8;" 
d="M475 1390h256l-62 -303h-256zM795 1390h256l-62 -303h-256z" />
    <glyph glyph-name="copyright" unicode="&#xa9;" 
d="M667 1529q201 0 339.5 -138.5t138.5 -339.5q0 -200 -138.5 -338.5t-339.5 -138.5q-200 0 -338.5 138.5t-138.5 338.5q0 201 138.5 339.5t338.5 138.5v0zM1080 1051q0 173 -120 293t-293 120t-292.5 -120t-119.5 -293t119.5 -292.5t292.5 -119.5t293 119.5t120 292.5v0z
M897 866q-24 -34 -81 -57t-115 -23q-110 0 -186.5 79.5t-76.5 194.5q0 116 75.5 195.5t184.5 79.5q58 0 114.5 -22t79.5 -54l-58 -62q-19 26 -58.5 44.5t-77.5 18.5q-78 0 -131.5 -58t-53.5 -142t54.5 -141.5t133.5 -57.5q37 0 77 19.5t61 47.5z" />
    <glyph glyph-name="ordfeminine" unicode="&#xaa;" 
d="M543 691q-78 0 -123 45t-45 122q1 94 63 152t163 58q52 0 120 -8v0q6 32 -6 42.5t-56 10.5q-42 0 -97.5 -5.5t-69.5 -10.5l-25 119q32 12 110 22t141 10q103 0 150 -50q31 -35 32 -91q0 -23 -6 -51l-46 -221h91l-27 -132h-132h-133v0l5 25v0q-52 -36 -109 -37zM610 942
q-38 0 -59.5 -21t-21.5 -59q0 -21 11 -33t31 -12q28 0 63.5 32t61.5 81v-2q1 14 -86 14z" />
    <glyph glyph-name="guillemotleft" unicode="&#xab;" 
d="M719 749l-394 -265v0l263 -267l-154 -169l-413 435v0l600 431zM1163 749l-394 -265v0l263 -267l-154 -169l-413 435v0l600 431z" />
    <glyph glyph-name="logicalnot" unicode="&#xac;" 
d="M849 556h-673v219h892v-630h-219v411z" />
    <glyph glyph-name="uni00AD" unicode="&#xad;" 
d="M327 720h630l-46 -219h-630z" />
    <glyph glyph-name="registered" unicode="&#xae;" 
d="M667 1524q201 0 339.5 -138.5t138.5 -339.5q0 -200 -138.5 -338.5t-339.5 -138.5q-200 0 -338.5 138.5t-138.5 338.5q0 201 138.5 339.5t338.5 138.5v0zM1080 1046q0 173 -120 293t-293 120t-292.5 -120t-119.5 -293t119.5 -292.5t292.5 -119.5t293 119.5t120 292.5v0z
M500 807v506h187q62 0 104.5 -42.5t42.5 -104.5t-43 -105q-20 -20 -46 -31l89 -223h-91l-84 212v0h-84v-212h-75zM759 1166q0 30 -21 51t-51 21h-112v0v-72v-72h112q30 0 51 21t21 51z" />
    <glyph glyph-name="macron" unicode="&#xaf;" 
d="M0 1526v105h1229v-105h-1229z" />
    <glyph glyph-name="degree" unicode="&#xb0;" 
d="M650 1252q129 0 218.5 -89.5t89.5 -218.5t-89.5 -218t-218.5 -89t-218 89t-89 218t89 218.5t218 89.5zM794 944q0 60 -42 102t-102 42t-101.5 -42t-41.5 -102t41.5 -101.5t101.5 -41.5t102 41.5t42 101.5z" />
    <glyph glyph-name="plusminus" unicode="&#xb1;" 
d="M508 346h-337v218h337v337h218v-337h337v-218h-337v-337h-218v337zM171 -89h892v-219h-892v219z" />
    <glyph glyph-name="uni00B2" unicode="&#xb2;" 
d="M934 1052q0 -69 -38 -125q-39 -58 -136 -128l-123 -90v0h224v0l-19 -79l-19 -80v0h-484l17 73l18 74l308 224q56 41 76 66q19 24 19 54q1 26 -20 39.5t-60 13.5q-47 0 -72 -26t-28 -75l-3 -13v0h-140l27 162v0q44 55 105 83t137 28q93 0 152 -55.5t59 -142.5v-3z" />
    <glyph glyph-name="uni00B3" unicode="&#xb3;" 
d="M736 1059q0 21 -17 33t-47 12q-26 0 -75 -22q-47 -21 -75 -45l-56 129q39 33 110.5 60t121.5 27q94 0 145 -40.5t51 -114.5v-3q1 -95 -74 -160l-15 -13v0q11 -4 19 -12q53 -42 53 -117q0 -112 -81 -189t-198 -77q-76 0 -133 18t-118 62l89 136q62 -40 90.5 -50t78.5 -10
q47 0 77.5 26t30.5 67q0 28 -21.5 42.5t-61.5 14.5h-75l26 156h55q42 0 71 21q29 20 29 49z" />
    <glyph glyph-name="acute" unicode="&#xb4;" 
d="M353 1157l612 282l78 -218l-651 -173z" />
    <glyph glyph-name="mu" unicode="&#xb5;" 
d="M564 924l-131 -632q-10 -54 9 -78t71 -24q66 0 128.5 93.5t88.5 229.5v0l85 411h215l-128 -623q-9 -43 4 -81.5t36 -38.5q31 0 63 31t54 84l90 -31q-37 -139 -102.5 -211.5t-155.5 -72.5q-69 0 -110 85q-24 55 -27 121v0v0l-37 -56q-109 -155 -226 -155q-64 0 -114 41v0
l-59 -318q-12 -63 -52 -107t-85 -44v0q-45 0 -67.5 44t-10.5 107l113 579l133 646h215z" />
    <glyph glyph-name="paragraph" unicode="&#xb6;" 
d="M651 581v0q-186 2 -317 137.5t-131 332.5q0 198 135 334.5t330 136.5h382v-98h-93v0v-1752h-98v1752v0h-110v0v-1752h-98v909z" />
    <glyph glyph-name="periodcentered" unicode="&#xb7;" 
d="M647 766q89 0 151 -52.5t62 -128.5t-62 -128.5t-151 -52.5t-151 52.5t-62 128.5t62 128.5t151 52.5z" />
    <glyph glyph-name="cedilla" unicode="&#xb8;" 
d="M552 0l-12 -44v0q74 -8 109 -52q40 -51 20 -150q-19 -89 -78.5 -137.5t-150.5 -48.5q-47 0 -86 14.5t-77 45.5l68 86q36 -11 63 -17.5t39 -6.5q38 0 59 14.5t28 46.5q8 39 -6.5 61.5t-47.5 22.5q-25 0 -55.5 -3t-40.5 -7v0l50 175h118z" />
    <glyph glyph-name="uni00B9" unicode="&#xb9;" 
d="M545 689l83 398v0l-151 -13l31 151l317 28v0v0l-117 -564h177l-29 -139h-258h-259l29 139h177z" />
    <glyph glyph-name="ordmasculine" unicode="&#xba;" 
d="M643 691q-124 0 -193.5 64.5t-69.5 178.5q0 137 93 228t234 91q124 0 193 -64.5t69 -179.5q0 -137 -92.5 -227.5t-233.5 -90.5v0zM659 853q54 0 92 42t37 102q-1 46 -26 71t-71 25q-54 0 -92 -42t-37 -103q0 -45 25.5 -70t71.5 -25v0z" />
    <glyph glyph-name="guillemotright" unicode="&#xbb;" 
d="M-22 217l394 265v0l-263 267l154 169l414 -435v0l-601 -431zM422 217l394 265v0l-263 267l154 169l414 -435v0l-601 -431z" />
    <glyph glyph-name="onequarter" unicode="&#xbc;" 
d="M1479 1206l-1320 -1384l-112 96l1319 1382zM181 689l83 398v0l-151 -13l31 151l317 28v0v0l-117 -564h177l-29 -139h-258h-259l29 139h177zM965 -48h-281l15 70l15 71l320 423h87h87l-90 -437v0h72l-27 -127h-72v0l-24 -116h-63h-63l24 116v0zM992 79v0l57 278v0v0
l-190 -264l-10 -14v0h143z" />
    <glyph glyph-name="onehalf" unicode="&#xbd;" 
d="M1390 1206l-1320 -1384l-112 96l1319 1382zM164 689l83 398v0l-151 -13l31 151l317 28v0v0l-117 -564h177l-29 -139h-258h-259l29 139h177zM1261 338q0 -69 -38 -125q-39 -58 -136 -128l-123 -90v0h224v0l-19 -79l-19 -80v0h-484l17 73l18 74l308 224q56 41 76 66
q19 24 19 54q1 26 -20 39.5t-60 13.5q-47 0 -72 -26t-28 -75l-3 -13v0h-140l27 162v0q44 55 105 83t137 28q93 0 152 -55.5t59 -142.5v-3z" />
    <glyph glyph-name="threequarters" unicode="&#xbe;" 
d="M1450 1206l-1320 -1384l-112 96l1319 1382zM407 1059q0 21 -17 33t-47 12q-26 0 -75 -22q-47 -21 -75 -45l-56 129q39 33 110.5 60t121.5 27q94 0 145 -40.5t51 -114.5v-3q1 -95 -74 -160l-15 -13v0q11 -4 19 -12q53 -42 53 -117q0 -112 -81 -189t-198 -77q-76 0 -133 18
t-118 62l89 136q62 -40 90.5 -50t78.5 -10q47 0 77.5 26t30.5 67q0 28 -21.5 42.5t-61.5 14.5h-75l26 156h55q42 0 71 21q29 20 29 49zM949 -48h-281l15 70l15 71l320 423h87h87l-90 -437v0h72l-27 -127h-72v0l-24 -116h-63h-63l24 116v0zM976 79v0l57 278v0v0l-190 -264
l-10 -14v0h143z" />
    <glyph glyph-name="questiondown" unicode="&#xbf;" 
d="M565 -74q53 0 91.5 5t80.5 18l23 128v0h185l-54 -289v0q-44 -25 -166.5 -50t-199.5 -25q-198 0 -296.5 96t-68.5 259q24 125 177 207q88 48 228 82v0l20 108h212l-44 -233v0q-164 -25 -261.5 -70.5t-108.5 -102.5q-12 -69 31 -101t151 -32zM751 545q-89 0 -151 52.5
t-62 128.5t62 128.5t151 52.5t151 -52.5t62 -128.5t-62 -128.5t-151 -52.5z" />
    <glyph glyph-name="Agrave" unicode="&#xc0;" 
d="M43 185l480 789h-266l39 185h261h262v0l189 -974h118l-38 -185h-255h-256l38 185h165l-25 131v0h-417v0l-77 -131h184l-38 -185h-263h-264l38 185h125zM654 854l-191 -325v0h252v0l-61 325v0v0zM1017 1294l-651 173l78 218l612 -282z" />
    <glyph glyph-name="Aacute" unicode="&#xc1;" 
d="M43 185l480 789h-266l39 185h261h262v0l189 -974h118l-38 -185h-255h-256l38 185h165l-25 131v0h-417v0l-77 -131h184l-38 -185h-263h-264l38 185h125zM654 854l-191 -325v0h252v0l-61 325v0v0zM346 1403l612 282l78 -218l-651 -173z" />
    <glyph glyph-name="Acircumflex" unicode="&#xc2;" 
d="M43 185l480 789h-266l39 185h261h262v0l189 -974h118l-38 -185h-255h-256l38 185h165l-25 131v0h-417v0l-77 -131h184l-38 -185h-263h-264l38 185h125zM654 854l-191 -325v0h252v0l-61 325v0v0zM865 1680l253 -295l-146 -91l-259 217v0l-325 -217l-116 90l365 296h114
h114z" />
    <glyph glyph-name="Atilde" unicode="&#xc3;" 
d="M43 185l480 789h-266l39 185h261h262v0l189 -974h118l-38 -185h-255h-256l38 185h165l-25 131v0h-417v0l-77 -131h184l-38 -185h-263h-264l38 185h125zM654 854l-191 -325v0h252v0l-61 325v0v0zM283 1351q78 133 150.5 187t173.5 54q42 0 89 -12.5t106 -39.5
q37 -17 63 -24.5t45 -7.5q30 0 55 20.5t55 69.5l180 -59q-76 -135 -151.5 -190.5t-183.5 -55.5q-47 0 -96.5 12.5t-89.5 34.5q-34 19 -61 28t-48 9q-26 0 -52.5 -23.5t-48.5 -66.5z" />
    <glyph glyph-name="Adieresis" unicode="&#xc4;" 
d="M43 185l480 789h-266l39 185h261h262v0l189 -974h118l-38 -185h-255h-256l38 185h165l-25 131v0h-417v0l-77 -131h184l-38 -185h-263h-264l38 185h125zM654 854l-191 -325v0h252v0l-61 325v0v0zM475 1636h256l-62 -303h-256zM832 1636h256l-62 -303h-256z" />
    <glyph glyph-name="Aring" unicode="&#xc5;" 
d="M43 185l480 789h-266l39 185h261h262v0l189 -974h118l-38 -185h-255h-256l38 185h165l-25 131v0h-417v0l-77 -131h184l-38 -185h-263h-264l38 185h125zM654 854l-191 -325v0h252v0l-61 325v0v0zM711 1302q-86 0 -145 59t-59 145t59 145.5t145 59.5t145.5 -59.5
t59.5 -145.5t-59.5 -145t-145.5 -59v0zM711 1429q33 0 55.5 22.5t22.5 54.5q0 33 -22.5 55.5t-55.5 22.5q-32 0 -54.5 -22.5t-22.5 -55.5q0 -32 22.5 -54.5t54.5 -22.5v0z" />
    <glyph glyph-name="AE" unicode="&#xc6;" 
d="M489 0v0l65 316v0h-192v0l-76 -131h147l-38 -185h-249h-250l38 185h125l478 801h-184l38 185h553v0h370v0l-40 -195l-41 -195h-148l37 177h-222v0l-53 -255v0h38l21 100h148l-43 -206l-43 -207h-148l21 100h-38v0l-57 -277v0h253l36 177h148l-40 -195l-40 -195v0h-401v0
h-213zM662 837l-178 -308v0h114v0l64 308v0z" />
    <glyph glyph-name="Ccedilla" unicode="&#xc7;" 
d="M1077 152q-132 -89 -260.5 -132t-260.5 -43q-224 0 -348 127.5t-124 359.5q0 307 196 518.5t480 211.5q159 0 258 -56v0l15 56h185v0l-100 -480v0h-185v0l44 210q-27 27 -84 42t-133 15q-196 0 -325.5 -141.5t-129.5 -355.5q0 -140 72 -217t203 -77q113 0 215 32.5
t195 98.5zM619 0l-12 -44v0q74 -8 109 -52q40 -51 20 -150q-19 -89 -78.5 -137.5t-150.5 -48.5q-47 0 -86 14.5t-77 45.5l68 86q36 -11 63 -17.5t39 -6.5q38 0 59 14.5t28 46.5q8 39 -6.5 61.5t-47.5 22.5q-25 0 -55.5 -3t-40.5 -7v0l50 175h118z" />
    <glyph glyph-name="Egrave" unicode="&#xc8;" 
d="M-31 0l38 185h167l166 801h-167l38 185h380v0h643v0l-47 -229l-48 -230h-185l51 246h-458v0l-53 -255v0h187l30 143h185l-52 -249l-52 -250h-185l30 143h-187v0l-57 -277v0h476l51 246h185l-48 -229l-47 -230v0h-661v0h-380zM1095 1294l-651 173l78 218l612 -282z" />
    <glyph glyph-name="Eacute" unicode="&#xc9;" 
d="M-31 0l38 185h167l166 801h-167l38 185h380v0h643v0l-47 -229l-48 -230h-185l51 246h-458v0l-53 -255v0h187l30 143h185l-52 -249l-52 -250h-185l30 143h-187v0l-57 -277v0h476l51 246h185l-48 -229l-47 -230v0h-661v0h-380zM424 1403l612 282l78 -218l-651 -173z" />
    <glyph glyph-name="Ecircumflex" unicode="&#xca;" 
d="M-31 0l38 185h167l166 801h-167l38 185h380v0h643v0l-47 -229l-48 -230h-185l51 246h-458v0l-53 -255v0h187l30 143h185l-52 -249l-52 -250h-185l30 143h-187v0l-57 -277v0h476l51 246h185l-48 -229l-47 -230v0h-661v0h-380zM943 1680l253 -295l-146 -91l-259 217v0
l-325 -217l-116 90l365 296h114h114z" />
    <glyph glyph-name="Edieresis" unicode="&#xcb;" 
d="M-31 0l38 185h167l166 801h-167l38 185h380v0h643v0l-47 -229l-48 -230h-185l51 246h-458v0l-53 -255v0h187l30 143h185l-52 -249l-52 -250h-185l30 143h-187v0l-57 -277v0h476l51 246h185l-48 -229l-47 -230v0h-661v0h-380zM553 1636h256l-62 -303h-256zM910 1636h256
l-62 -303h-256z" />
    <glyph glyph-name="Igrave" unicode="&#xcc;" 
d="M442 185l166 801h-350l38 185h456h457l-38 -185h-350l-166 -801h350l-38 -185h-456h-457l38 185h350zM1084 1294l-651 173l78 218l612 -282z" />
    <glyph glyph-name="Iacute" unicode="&#xcd;" 
d="M442 185l166 801h-350l38 185h456h457l-38 -185h-350l-166 -801h350l-38 -185h-456h-457l38 185h350zM413 1403l612 282l78 -218l-651 -173z" />
    <glyph glyph-name="Icircumflex" unicode="&#xce;" 
d="M442 185l166 801h-350l38 185h456h457l-38 -185h-350l-166 -801h350l-38 -185h-456h-457l38 185h350zM932 1680l253 -295l-146 -91l-259 217v0l-325 -217l-116 90l365 296h114h114z" />
    <glyph glyph-name="Idieresis" unicode="&#xcf;" 
d="M442 185l166 801h-350l38 185h456h457l-38 -185h-350l-166 -801h350l-38 -185h-456h-457l38 185h350zM542 1636h256l-62 -303h-256zM899 1636h256l-62 -303h-256z" />
    <glyph glyph-name="Eth" unicode="&#xd0;" 
d="M-75 0l38 185h150l67 323v0h-128l32 155h128v0l67 323h-167l38 185h273v0h318q199 0 309 -110t110 -310q0 -353 -175 -552t-486 -199h-318v0h-256zM486 958v0l-61 -295v0h205l-32 -155h-205v0l-61 -295v0h183q182 0 293.5 136t111.5 358q0 120 -53.5 185.5t-151.5 65.5
h-229z" />
    <glyph glyph-name="Ntilde" unicode="&#xd1;" 
d="M314 185h208l-38 -185h-285h-286l38 185h150l166 801h-167l38 185h195h195v0l294 -790v0v0l126 605h-208l38 185h277h277l-38 -185h-133l-204 -986h-114h-114l-292 781v0v0zM350 1351q78 133 150.5 187t173.5 54q42 0 89 -12.5t106 -39.5q37 -17 63 -24.5t45 -7.5
q30 0 55 20.5t55 69.5l180 -59q-76 -135 -151.5 -190.5t-183.5 -55.5q-47 0 -96.5 12.5t-89.5 34.5q-34 19 -61 28t-48 9q-26 0 -52.5 -23.5t-48.5 -66.5z" />
    <glyph glyph-name="Ograve" unicode="&#xd2;" 
d="M486 -23q-206 0 -319.5 124t-113.5 349q-1 312 198 528t486 216q206 0 319 -124t114 -350q0 -312 -199 -528q-197 -215 -485 -215v0zM510 190q176 0 307 153.5t132 357.5q-1 133 -62.5 206.5t-174.5 73.5q-175 0 -306.5 -153.5t-131.5 -358.5q0 -133 61.5 -206t174.5 -73
v0zM1064 1294l-651 173l78 218l612 -282z" />
    <glyph glyph-name="Oacute" unicode="&#xd3;" 
d="M486 -23q-206 0 -319.5 124t-113.5 349q-1 312 198 528t486 216q206 0 319 -124t114 -350q0 -312 -199 -528q-197 -215 -485 -215v0zM510 190q176 0 307 153.5t132 357.5q-1 133 -62.5 206.5t-174.5 73.5q-175 0 -306.5 -153.5t-131.5 -358.5q0 -133 61.5 -206t174.5 -73
v0zM393 1403l612 282l78 -218l-651 -173z" />
    <glyph glyph-name="Ocircumflex" unicode="&#xd4;" 
d="M486 -23q-206 0 -319.5 124t-113.5 349q-1 312 198 528t486 216q206 0 319 -124t114 -350q0 -312 -199 -528q-197 -215 -485 -215v0zM510 190q176 0 307 153.5t132 357.5q-1 133 -62.5 206.5t-174.5 73.5q-175 0 -306.5 -153.5t-131.5 -358.5q0 -133 61.5 -206t174.5 -73
v0zM912 1680l253 -295l-146 -91l-259 217v0l-325 -217l-116 90l365 296h114h114z" />
    <glyph glyph-name="Otilde" unicode="&#xd5;" 
d="M486 -23q-206 0 -319.5 124t-113.5 349q-1 312 198 528t486 216q206 0 319 -124t114 -350q0 -312 -199 -528q-197 -215 -485 -215v0zM510 190q176 0 307 153.5t132 357.5q-1 133 -62.5 206.5t-174.5 73.5q-175 0 -306.5 -153.5t-131.5 -358.5q0 -133 61.5 -206t174.5 -73
v0zM330 1351q78 133 150.5 187t173.5 54q42 0 89 -12.5t106 -39.5q37 -17 63 -24.5t45 -7.5q30 0 55 20.5t55 69.5l180 -59q-76 -135 -151.5 -190.5t-183.5 -55.5q-47 0 -96.5 12.5t-89.5 34.5q-34 19 -61 28t-48 9q-26 0 -52.5 -23.5t-48.5 -66.5z" />
    <glyph glyph-name="Odieresis" unicode="&#xd6;" 
d="M486 -23q-206 0 -319.5 124t-113.5 349q-1 312 198 528t486 216q206 0 319 -124t114 -350q0 -312 -199 -528q-197 -215 -485 -215v0zM510 190q176 0 307 153.5t132 357.5q-1 133 -62.5 206.5t-174.5 73.5q-175 0 -306.5 -153.5t-131.5 -358.5q0 -133 61.5 -206t174.5 -73
v0zM522 1636h256l-62 -303h-256zM879 1636h256l-62 -303h-256z" />
    <glyph glyph-name="multiply" unicode="&#xd7;" 
d="M609 301l-291 -291l-154 154l291 291l-291 291l154 154l291 -291l291 291l154 -154l-291 -291l291 -291l-154 -154z" />
    <glyph glyph-name="Oslash" unicode="&#xd8;" 
d="M580 431l-201 -205q53 -37 132 -36v0q176 0 307 153.5t132 357.5q0 53 -10 96zM487 -23q-166 0 -274 80l-89 -92l-133 101l117 119q-53 109 -54 265q-1 312 198 528t486 216q170 1 276 -86l84 86l132 -101l-112 -113q53 -107 53 -260q0 -312 -199 -528
q-197 -215 -485 -215v0zM713 981q-175 0 -306.5 -153.5t-131.5 -358.5q1 -56 10 -104l356 363l210 214q-55 39 -138 39z" />
    <glyph glyph-name="Ugrave" unicode="&#xd9;" 
d="M1014 444q-52 -252 -168.5 -359.5t-340.5 -107.5q-229 0 -325 119q-62 80 -63 207q0 66 16 141l113 542h-150l38 185h265h265l-38 -185h-167l-118 -568q-10 -44 -9 -80q0 -61 27 -95q42 -53 163 -53q120 0 184.5 53.5t89.5 174.5l118 568h-167l38 185h256h257l-38 -185
h-133zM1056 1294l-651 173l78 218l612 -282z" />
    <glyph glyph-name="Uacute" unicode="&#xda;" 
d="M1014 444q-52 -252 -168.5 -359.5t-340.5 -107.5q-229 0 -325 119q-62 80 -63 207q0 66 16 141l113 542h-150l38 185h265h265l-38 -185h-167l-118 -568q-10 -44 -9 -80q0 -61 27 -95q42 -53 163 -53q120 0 184.5 53.5t89.5 174.5l118 568h-167l38 185h256h257l-38 -185
h-133zM385 1403l612 282l78 -218l-651 -173z" />
    <glyph glyph-name="Ucircumflex" unicode="&#xdb;" 
d="M1014 444q-52 -252 -168.5 -359.5t-340.5 -107.5q-229 0 -325 119q-62 80 -63 207q0 66 16 141l113 542h-150l38 185h265h265l-38 -185h-167l-118 -568q-10 -44 -9 -80q0 -61 27 -95q42 -53 163 -53q120 0 184.5 53.5t89.5 174.5l118 568h-167l38 185h256h257l-38 -185
h-133zM904 1680l253 -295l-146 -91l-259 217v0l-325 -217l-116 90l365 296h114h114z" />
    <glyph glyph-name="Udieresis" unicode="&#xdc;" 
d="M1014 444q-52 -252 -168.5 -359.5t-340.5 -107.5q-229 0 -325 119q-62 80 -63 207q0 66 16 141l113 542h-150l38 185h265h265l-38 -185h-167l-118 -568q-10 -44 -9 -80q0 -61 27 -95q42 -53 163 -53q120 0 184.5 53.5t89.5 174.5l118 568h-167l38 185h256h257l-38 -185
h-133zM514 1636h256l-62 -303h-256zM871 1636h256l-62 -303h-256z" />
    <glyph glyph-name="Yacute" unicode="&#xdd;" 
d="M486 453v0l-234 533h-137l38 185h249h250l-38 -185h-110l126 -330v0l245 330h-110l38 185h253h253l-38 -185h-150l-420 -525v0l-57 -276h233l-38 -185h-339h-340l38 185h233zM380 1403l612 282l78 -218l-651 -173z" />
    <glyph glyph-name="Thorn" unicode="&#xde;" 
d="M222 185l166 801h-267l38 185h373h374l-38 -185h-267l-19 -91v0h168q210 0 303 -67.5t92 -219.5q0 -166 -115 -249.5t-345 -83.5h-232v0l-18 -90h283l-38 -185h-373h-373l38 185h250zM927 581q0 54 -40 77.5t-133 23.5h-216v0l-40 -194v0h214q110 0 162 23q53 23 53 70z
" />
    <glyph glyph-name="germandbls" unicode="&#xdf;" 
d="M486 927l-191 -927v0h-182h-183l38 185h150l109 527v0h-132l44 213h132v0l20 97q31 149 135 220.5t289 71.5q231 0 321 -79.5t54 -251.5q-17 -82 -67 -123t-213 -109q-27 -11 -43 -24q-14 -12 -17 -25q-7 -34 19 -55.5t153 -84.5q118 -59 161 -138t19 -193
q-24 -118 -140.5 -190.5t-282.5 -72.5q-93 0 -162.5 23.5t-150.5 82.5l148 147q76 -25 109.5 -32.5t67.5 -7.5q80 0 134.5 19t60.5 48q10 49 -7 75.5t-77 56.5q-177 88 -234.5 157.5t-36.5 168.5q14 68 76 128.5t159 100.5q103 42 104 46q12 59 -20.5 89.5t-107.5 30.5
q-135 0 -185 -34q-48 -33 -71 -140z" />
    <glyph glyph-name="agrave" unicode="&#xe0;" 
d="M335 -23q-125 0 -211.5 77.5t-86.5 190.5q1 161 158 263t404 102q86 1 161 -13v0l4 17q12 60 -28 90.5t-131 30.5q-67 0 -189 -20t-170 -39l-37 217q84 21 226.5 38t240.5 17q178 0 257 -87q56 -62 56 -159q0 -41 -10 -88l-89 -429h173l-38 -185h-194h-194v0l14 70v0
l-57 -30q-128 -63 -259 -63zM704 325l11 55v0q1 2 -68.5 9.5t-85.5 7.5q-133 0 -222 -36q-87 -35 -87 -89q0 -38 39.5 -60t108.5 -22q71 0 162.5 40.5t141.5 94.5v0zM966 1048l-651 173l78 218l612 -282z" />
    <glyph glyph-name="aacute" unicode="&#xe1;" 
d="M335 -23q-125 0 -211.5 77.5t-86.5 190.5q1 161 158 263t404 102q86 1 161 -13v0l4 17q12 60 -28 90.5t-131 30.5q-67 0 -189 -20t-170 -39l-37 217q84 21 226.5 38t240.5 17q178 0 257 -87q56 -62 56 -159q0 -41 -10 -88l-89 -429h173l-38 -185h-194h-194v0l14 70v0
l-57 -30q-128 -63 -259 -63zM704 325l11 55v0q1 2 -68.5 9.5t-85.5 7.5q-133 0 -222 -36q-87 -35 -87 -89q0 -38 39.5 -60t108.5 -22q71 0 162.5 40.5t141.5 94.5v0zM329 1157l612 282l78 -218l-651 -173z" />
    <glyph glyph-name="acircumflex" unicode="&#xe2;" 
d="M335 -23q-125 0 -211.5 77.5t-86.5 190.5q1 161 158 263t404 102q86 1 161 -13v0l4 17q12 60 -28 90.5t-131 30.5q-67 0 -189 -20t-170 -39l-37 217q84 21 226.5 38t240.5 17q178 0 257 -87q56 -62 56 -159q0 -41 -10 -88l-89 -429h173l-38 -185h-194h-194v0l14 70v0
l-57 -30q-128 -63 -259 -63zM704 325l11 55v0q1 2 -68.5 9.5t-85.5 7.5q-133 0 -222 -36q-87 -35 -87 -89q0 -38 39.5 -60t108.5 -22q71 0 162.5 40.5t141.5 94.5v0zM847 1434l253 -295l-146 -91l-259 217v0l-325 -217l-116 90l365 296h114h114z" />
    <glyph glyph-name="atilde" unicode="&#xe3;" 
d="M335 -23q-125 0 -211.5 77.5t-86.5 190.5q1 161 158 263t404 102q86 1 161 -13v0l4 17q12 60 -28 90.5t-131 30.5q-67 0 -189 -20t-170 -39l-37 217q84 21 226.5 38t240.5 17q178 0 257 -87q56 -62 56 -159q0 -41 -10 -88l-89 -429h173l-38 -185h-194h-194v0l14 70v0
l-57 -30q-128 -63 -259 -63zM704 325l11 55v0q1 2 -68.5 9.5t-85.5 7.5q-133 0 -222 -36q-87 -35 -87 -89q0 -38 39.5 -60t108.5 -22q71 0 162.5 40.5t141.5 94.5v0zM232 1105q78 133 150.5 187t173.5 54q42 0 89 -12.5t106 -39.5q37 -17 63 -24.5t45 -7.5q30 0 55 20.5
t55 69.5l180 -59q-76 -135 -151.5 -190.5t-183.5 -55.5q-47 0 -96.5 12.5t-89.5 34.5q-34 19 -61 28t-48 9q-26 0 -52.5 -23.5t-48.5 -66.5z" />
    <glyph glyph-name="adieresis" unicode="&#xe4;" 
d="M335 -23q-125 0 -211.5 77.5t-86.5 190.5q1 161 158 263t404 102q86 1 161 -13v0l4 17q12 60 -28 90.5t-131 30.5q-67 0 -189 -20t-170 -39l-37 217q84 21 226.5 38t240.5 17q178 0 257 -87q56 -62 56 -159q0 -41 -10 -88l-89 -429h173l-38 -185h-194h-194v0l14 70v0
l-57 -30q-128 -63 -259 -63zM704 325l11 55v0q1 2 -68.5 9.5t-85.5 7.5q-133 0 -222 -36q-87 -35 -87 -89q0 -38 39.5 -60t108.5 -22q71 0 162.5 40.5t141.5 94.5v0zM396 1390h256l-62 -303h-256zM716 1390h256l-62 -303h-256z" />
    <glyph glyph-name="aring" unicode="&#xe5;" 
d="M335 -23q-125 0 -211.5 77.5t-86.5 190.5q1 161 158 263t404 102q86 1 161 -13v0l4 17q12 60 -28 90.5t-131 30.5q-67 0 -189 -20t-170 -39l-37 217q84 21 226.5 38t240.5 17q178 0 257 -87q56 -62 56 -159q0 -41 -10 -88l-89 -429h173l-38 -185h-194h-194v0l14 70v0
l-57 -30q-128 -63 -259 -63zM704 325l11 55v0q1 2 -68.5 9.5t-85.5 7.5q-133 0 -222 -36q-87 -35 -87 -89q0 -38 39.5 -60t108.5 -22q71 0 162.5 40.5t141.5 94.5v0zM660 1056q-86 0 -145 59t-59 145t59 145.5t145 59.5t145.5 -59.5t59.5 -145.5t-59.5 -145t-145.5 -59v0z
M660 1183q33 0 55.5 22.5t22.5 54.5q0 33 -22.5 55.5t-55.5 22.5q-32 0 -54.5 -22.5t-22.5 -55.5q0 -32 22.5 -54.5t54.5 -22.5v0z" />
    <glyph glyph-name="ae" unicode="&#xe6;" 
d="M454 948q156 0 212 -81l5 -8v0q102 89 223 89q136 0 209.5 -76.5t73.5 -218.5q0 -133 -30 -247v0h-461v0q-4 -48 -4 -107t24.5 -84t83.5 -25q62 0 128.5 7t144.5 21l27 -181q-105 -32 -180 -46t-144 -14q-149 0 -234 97q-18 21 -33 48v0q-69 -65 -129 -97
q-89 -48 -198 -48q-102 0 -164 66t-62 175q-1 176 111 288.5t287 112.5q66 0 126 -8l1 3q13 63 -3.5 92t-64.5 29q-36 0 -137 -27q-99 -27 -121 -42l-37 217q142 39 212 52t134 13zM401 278l26 123v0q-33 5 -121 5q-62 0 -103.5 -41.5t-41.5 -104.5q1 -32 20 -51t52 -19
q47 0 91 27q35 23 77 61v0zM958 582v0v64q1 46 -19.5 67.5t-63.5 21.5q-95 0 -144 -111l-16 -42v0h243z" />
    <glyph glyph-name="ccedilla" unicode="&#xe7;" 
d="M1027 176q-96 -84 -248.5 -141.5t-278.5 -57.5q-197 0 -308.5 104.5t-111.5 290.5q1 248 172.5 412t430.5 164q132 0 222 -37v0l7 37h185v0l-82 -402v0h-185v0l34 165q-103 16 -139 20t-80 4q-142 0 -240.5 -97t-97.5 -237q0 -98 53 -152t150 -54q123 0 230.5 32.5
t207.5 100.5zM562 0l-12 -44v0q74 -8 109 -52q40 -51 20 -150q-19 -89 -78.5 -137.5t-150.5 -48.5q-47 0 -86 14.5t-77 45.5l68 86q36 -11 63 -17.5t39 -6.5q38 0 59 14.5t28 46.5q8 39 -6.5 61.5t-47.5 22.5q-25 0 -55.5 -3t-40.5 -7v0l50 175h118z" />
    <glyph glyph-name="egrave" unicode="&#xe8;" 
d="M505 -23q-197 0 -309 104.5t-112 289.5q1 248 179 412.5t447 164.5q172 0 280.5 -99t108.5 -253v-3q1 -100 -26 -187v0h-768v0l-1 -17q0 -95 64.5 -147t182.5 -52q100 0 214 21.5t233 63.5l53 -145q-164 -79 -296.5 -116t-249.5 -37zM889 582v0q-10 64 -55 102
q-57 51 -162 51q-180 0 -275 -88q-29 -27 -50 -65v0h542zM1032 1048l-651 173l78 218l612 -282z" />
    <glyph glyph-name="eacute" unicode="&#xe9;" 
d="M505 -23q-197 0 -309 104.5t-112 289.5q1 248 179 412.5t447 164.5q172 0 280.5 -99t108.5 -253v-3q1 -100 -26 -187v0h-768v0l-1 -17q0 -95 64.5 -147t182.5 -52q100 0 214 21.5t233 63.5l53 -145q-164 -79 -296.5 -116t-249.5 -37zM889 582v0q-10 64 -55 102
q-57 51 -162 51q-180 0 -275 -88q-29 -27 -50 -65v0h542zM395 1157l612 282l78 -218l-651 -173z" />
    <glyph glyph-name="ecircumflex" unicode="&#xea;" 
d="M505 -23q-197 0 -309 104.5t-112 289.5q1 248 179 412.5t447 164.5q172 0 280.5 -99t108.5 -253v-3q1 -100 -26 -187v0h-768v0l-1 -17q0 -95 64.5 -147t182.5 -52q100 0 214 21.5t233 63.5l53 -145q-164 -79 -296.5 -116t-249.5 -37zM889 582v0q-10 64 -55 102
q-57 51 -162 51q-180 0 -275 -88q-29 -27 -50 -65v0h542zM913 1434l253 -295l-146 -91l-259 217v0l-325 -217l-116 90l365 296h114h114z" />
    <glyph glyph-name="edieresis" unicode="&#xeb;" 
d="M505 -23q-197 0 -309 104.5t-112 289.5q1 248 179 412.5t447 164.5q172 0 280.5 -99t108.5 -253v-3q1 -100 -26 -187v0h-768v0l-1 -17q0 -95 64.5 -147t182.5 -52q100 0 214 21.5t233 63.5l53 -145q-164 -79 -296.5 -116t-249.5 -37zM889 582v0q-10 64 -55 102
q-57 51 -162 51q-180 0 -275 -88q-29 -27 -50 -65v0h542zM462 1390h256l-62 -303h-256zM782 1390h256l-62 -303h-256z" />
    <glyph glyph-name="igrave" unicode="&#xec;" 
d="M440 185l115 555h-284l38 185h222h223h54l-153 -740h347l-38 -185h-454h-455l38 185h347zM1032 1048l-651 173l78 218l612 -282z" />
    <glyph glyph-name="iacute" unicode="&#xed;" 
d="M440 185l115 555h-284l38 185h222h223h54l-153 -740h347l-38 -185h-454h-455l38 185h347zM395 1157l612 282l78 -218l-651 -173z" />
    <glyph glyph-name="icircumflex" unicode="&#xee;" 
d="M440 185l115 555h-284l38 185h222h223h54l-153 -740h347l-38 -185h-454h-455l38 185h347zM913 1434l253 -295l-146 -91l-259 217v0l-325 -217l-116 90l365 296h114h114z" />
    <glyph glyph-name="idieresis" unicode="&#xef;" 
d="M440 185l115 555h-284l38 185h222h223h54l-153 -740h347l-38 -185h-454h-455l38 185h347zM462 1390h256l-62 -303h-256zM782 1390h256l-62 -303h-256z" />
    <glyph glyph-name="eth" unicode="&#xf0;" 
d="M523 -23q-204 0 -319 109.5t-115 303.5q0 226 165.5 375.5t414.5 149.5q126 1 235 -57v0q-22 47 -54 91q-60 85 -143 149l-238 -126l-66 140l149 79q-84 39 -183 64l152 110q115 -28 209 -79l237 126l66 -140l-158 -84q81 -70 138 -162q111 -177 111 -394q0 -94 -21 -195
q-47 -225 -194.5 -342.5t-385.5 -117.5zM311 406q-1 -103 59 -159.5t168 -56.5q155 0 262.5 85.5t107.5 208.5q0 104 -59.5 161t-168.5 57q-155 0 -263 -86q-107 -86 -106 -210z" />
    <glyph glyph-name="ntilde" unicode="&#xf1;" 
d="M121 185l115 555h-158l38 185h148h149h54l-12 -58v0v0q157 81 312 81q153 0 223.5 -78t41.5 -215l-97 -470h158l-38 -185h-257h-258l38 185h142l87 422q13 64 -14.5 95.5t-99.5 31.5q-82 0 -183 -47q-47 -21 -80 -45v0l-94 -457h126l-38 -185h-249h-250l38 185h158z
M279 1105q78 133 150.5 187t173.5 54q42 0 89 -12.5t106 -39.5q37 -17 63 -24.5t45 -7.5q30 0 55 20.5t55 69.5l180 -59q-76 -135 -151.5 -190.5t-183.5 -55.5q-47 0 -96.5 12.5t-89.5 34.5q-34 19 -61 28t-48 9q-26 0 -52.5 -23.5t-48.5 -66.5z" />
    <glyph glyph-name="ograve" unicode="&#xf2;" 
d="M494 -23q-212 0 -336 111q-122 109 -122 299v3q0 240 173.5 399t434.5 159q215 0 335.5 -112.5t120.5 -312.5q0 -235 -172.5 -390.5t-433.5 -155.5v0zM523 190q148 0 251 93t103 227q0 107 -69 166t-194 59q-148 0 -250.5 -93t-102.5 -227q0 -107 68.5 -166t193.5 -59v0z
M1041 1048l-651 173l78 218l612 -282z" />
    <glyph glyph-name="oacute" unicode="&#xf3;" 
d="M494 -23q-212 0 -336 111q-122 109 -122 299v3q0 240 173.5 399t434.5 159q215 0 335.5 -112.5t120.5 -312.5q0 -235 -172.5 -390.5t-433.5 -155.5v0zM523 190q148 0 251 93t103 227q0 107 -69 166t-194 59q-148 0 -250.5 -93t-102.5 -227q0 -107 68.5 -166t193.5 -59v0z
M404 1157l612 282l78 -218l-651 -173z" />
    <glyph glyph-name="ocircumflex" unicode="&#xf4;" 
d="M494 -23q-212 0 -336 111q-122 109 -122 299v3q0 240 173.5 399t434.5 159q215 0 335.5 -112.5t120.5 -312.5q0 -235 -172.5 -390.5t-433.5 -155.5v0zM523 190q148 0 251 93t103 227q0 107 -69 166t-194 59q-148 0 -250.5 -93t-102.5 -227q0 -107 68.5 -166t193.5 -59v0z
M922 1434l253 -295l-146 -91l-259 217v0l-325 -217l-116 90l365 296h114h114z" />
    <glyph glyph-name="otilde" unicode="&#xf5;" 
d="M494 -23q-212 0 -336 111q-122 109 -122 299v3q0 240 173.5 399t434.5 159q215 0 335.5 -112.5t120.5 -312.5q0 -235 -172.5 -390.5t-433.5 -155.5v0zM523 190q148 0 251 93t103 227q0 107 -69 166t-194 59q-148 0 -250.5 -93t-102.5 -227q0 -107 68.5 -166t193.5 -59v0z
M307 1105q78 133 150.5 187t173.5 54q42 0 89 -12.5t106 -39.5q37 -17 63 -24.5t45 -7.5q30 0 55 20.5t55 69.5l180 -59q-76 -135 -151.5 -190.5t-183.5 -55.5q-47 0 -96.5 12.5t-89.5 34.5q-34 19 -61 28t-48 9q-26 0 -52.5 -23.5t-48.5 -66.5z" />
    <glyph glyph-name="odieresis" unicode="&#xf6;" 
d="M494 -23q-212 0 -336 111q-122 109 -122 299v3q0 240 173.5 399t434.5 159q215 0 335.5 -112.5t120.5 -312.5q0 -235 -172.5 -390.5t-433.5 -155.5v0zM523 190q148 0 251 93t103 227q0 107 -69 166t-194 59q-148 0 -250.5 -93t-102.5 -227q0 -107 68.5 -166t193.5 -59v0z
M471 1390h256l-62 -303h-256zM791 1390h256l-62 -303h-256z" />
    <glyph glyph-name="divide" unicode="&#xf7;" 
d="M621 239q43 0 72.5 -29.5t29.5 -72.5t-29.5 -72.5t-72.5 -29.5t-72.5 29.5t-29.5 72.5t29.5 72.5t72.5 29.5zM188 560h866v-219h-866v219zM621 866q43 0 72.5 -29.5t29.5 -72.5t-29.5 -72.5t-72.5 -29.5t-72.5 29.5t-29.5 72.5t29.5 72.5t72.5 29.5z" />
    <glyph glyph-name="oslash" unicode="&#xf8;" 
d="M579 337l-154 -128q52 -19 122 -19v0q148 0 251 93t103 227q1 45 -14 83zM518 -23q-170 0 -286 72l-114 -95l-118 115l117 97q-57 91 -57 221v3q0 240 173.5 399t434.5 159q182 1 294 -81l104 86l117 -115l-111 -92q54 -92 52 -223q0 -235 -172.5 -390.5t-433.5 -155.5v0
zM638 735q-148 0 -250.5 -93t-102.5 -227q1 -52 17 -96l302 251l171 141q-57 24 -137 24z" />
    <glyph glyph-name="ugrave" unicode="&#xf9;" 
d="M480 925l-119 -576q-17 -81 8.5 -120t94.5 -39q86 0 179 45q42 20 74 44v0l96 461h-173l38 185h167h167h54l-153 -740h158l-38 -185h-175h-176v0l11 56v0v0q-150 -80 -303 -80q-150 0 -216 100q-41 63 -41 158q0 53 13 116l81 390h-158l38 185h159h160h54zM997 1048
l-651 173l78 218l612 -282z" />
    <glyph glyph-name="uacute" unicode="&#xfa;" 
d="M480 925l-119 -576q-17 -81 8.5 -120t94.5 -39q86 0 179 45q42 20 74 44v0l96 461h-173l38 185h167h167h54l-153 -740h158l-38 -185h-175h-176v0l11 56v0v0q-150 -80 -303 -80q-150 0 -216 100q-41 63 -41 158q0 53 13 116l81 390h-158l38 185h159h160h54zM360 1157
l612 282l78 -218l-651 -173z" />
    <glyph glyph-name="ucircumflex" unicode="&#xfb;" 
d="M480 925l-119 -576q-17 -81 8.5 -120t94.5 -39q86 0 179 45q42 20 74 44v0l96 461h-173l38 185h167h167h54l-153 -740h158l-38 -185h-175h-176v0l11 56v0v0q-150 -80 -303 -80q-150 0 -216 100q-41 63 -41 158q0 53 13 116l81 390h-158l38 185h159h160h54zM878 1434
l253 -295l-146 -91l-259 217v0l-325 -217l-116 90l365 296h114h114z" />
    <glyph glyph-name="udieresis" unicode="&#xfc;" 
d="M480 925l-119 -576q-17 -81 8.5 -120t94.5 -39q86 0 179 45q42 20 74 44v0l96 461h-173l38 185h167h167h54l-153 -740h158l-38 -185h-175h-176v0l11 56v0v0q-150 -80 -303 -80q-150 0 -216 100q-41 63 -41 158q0 53 13 116l81 390h-158l38 185h159h160h54zM427 1390h256
l-62 -303h-256zM747 1390h256l-62 -303h-256z" />
    <glyph glyph-name="yacute" unicode="&#xfd;" 
d="M1128 740l-723 -932h149l-39 -185h-300h-300l39 185h221l227 300v0l-192 632h-150l38 185h240h240l-38 -185h-96l116 -423v0v0l322 423h-87l38 185h237h238l-38 -185h-142zM448 1157l612 282l78 -218l-651 -173z" />
    <glyph glyph-name="thorn" unicode="&#xfe;" 
d="M301 1091h-154l35 185h157h158h54l-76 -398v0q124 71 272 70q171 0 285 -116t114 -289q0 -238 -164 -402q-162 -164 -398 -164q-146 1 -262 100v0l-50 -267h298l-35 -185h-335h-336l35 185h158zM598 190q138 0 229.5 92.5t91.5 232.5q0 102 -57 161t-155 59
q-111 0 -200 -77.5t-111 -194.5v0v0v0q-23 -120 33.5 -196.5t168.5 -76.5z" />
    <glyph glyph-name="ydieresis" unicode="&#xff;" 
d="M1128 740l-723 -932h149l-39 -185h-300h-300l39 185h221l227 300v0l-192 632h-150l38 185h240h240l-38 -185h-96l116 -423v0v0l322 423h-87l38 185h237h238l-38 -185h-142zM515 1390h256l-62 -303h-256zM835 1390h256l-62 -303h-256z" />
    <glyph glyph-name="Amacron" unicode="&#x100;" 
d="M43 185l480 789h-266l39 185h261h262v0l189 -974h118l-38 -185h-255h-256l38 185h165l-25 131v0h-417v0l-77 -131h184l-38 -185h-263h-264l38 185h125zM654 854l-191 -325v0h252v0l-61 325v0v0zM326 1518h862l-44 -213h-862z" />
    <glyph glyph-name="amacron" unicode="&#x101;" 
d="M335 -23q-125 0 -211.5 77.5t-86.5 190.5q1 161 158 263t404 102q86 1 161 -13v0l4 17q12 60 -28 90.5t-131 30.5q-67 0 -189 -20t-170 -39l-37 217q84 21 226.5 38t240.5 17q178 0 257 -87q56 -62 56 -159q0 -41 -10 -88l-89 -429h173l-38 -185h-194h-194v0l14 70v0
l-57 -30q-128 -63 -259 -63zM704 325l11 55v0q1 2 -68.5 9.5t-85.5 7.5q-133 0 -222 -36q-87 -35 -87 -89q0 -38 39.5 -60t108.5 -22q71 0 162.5 40.5t141.5 94.5v0zM282 1304h862l-45 -213h-862z" />
    <glyph glyph-name="Abreve" unicode="&#x102;" 
d="M43 185l480 789h-266l39 185h261h262v0l189 -974h118l-38 -185h-255h-256l38 185h165l-25 131v0h-417v0l-77 -131h184l-38 -185h-263h-264l38 185h125zM654 854l-191 -325v0h252v0l-61 325v0v0zM711 1294q-198 0 -318.5 92t-120.5 243h215q8 -76 72.5 -112.5t189.5 -36.5
q121 0 206.5 39.5t117.5 109.5h215q-43 -157 -195.5 -246t-381.5 -89z" />
    <glyph glyph-name="abreve" unicode="&#x103;" 
d="M335 -23q-125 0 -211.5 77.5t-86.5 190.5q1 161 158 263t404 102q86 1 161 -13v0l4 17q12 60 -28 90.5t-131 30.5q-67 0 -189 -20t-170 -39l-37 217q84 21 226.5 38t240.5 17q178 0 257 -87q56 -62 56 -159q0 -41 -10 -88l-89 -429h173l-38 -185h-194h-194v0l14 70v0
l-57 -30q-128 -63 -259 -63zM704 325l11 55v0q1 2 -68.5 9.5t-85.5 7.5q-133 0 -222 -36q-87 -35 -87 -89q0 -38 39.5 -60t108.5 -22q71 0 162.5 40.5t141.5 94.5v0zM660 1048q-198 0 -318.5 92t-120.5 243h215q8 -76 72.5 -112.5t189.5 -36.5q121 0 206.5 39.5t117.5 109.5
h215q-43 -157 -195.5 -246t-381.5 -89z" />
    <glyph glyph-name="Aogonek" unicode="&#x104;" 
d="M43 185l480 789h-266l39 185h261h262v0l189 -974h118l-38 -185h-255h-256l38 185h165l-25 131v0h-417v0l-77 -131h184l-38 -185h-263h-264l38 185h125zM654 854l-191 -325v0h252v0l-61 325v0v0zM291 -154q13 63 89.5 113.5t204.5 79.5h169q-137 -50 -193.5 -84t-64.5 -71
q-7 -34 5 -54.5t39 -20.5q24 0 61 17t78 48l-60 -153q-48 -27 -98.5 -43.5t-84.5 -16.5q-77 0 -120 54q-42 53 -25 131z" />
    <glyph glyph-name="aogonek" unicode="&#x105;" 
d="M335 -23q-125 0 -211.5 77.5t-86.5 190.5q1 161 158 263t404 102q86 1 161 -13v0l4 17q12 60 -28 90.5t-131 30.5q-67 0 -189 -20t-170 -39l-37 217q84 21 226.5 38t240.5 17q178 0 257 -87q56 -62 56 -159q0 -41 -10 -88l-89 -429h173l-38 -185h-194h-194v0l14 70v0
l-57 -30q-128 -63 -259 -63zM704 325l11 55v0q1 2 -68.5 9.5t-85.5 7.5q-133 0 -222 -36q-87 -35 -87 -89q0 -38 39.5 -60t108.5 -22q71 0 162.5 40.5t141.5 94.5v0zM458 -180q14 68 71.5 123.5t158.5 99.5h213q-98 -36 -172 -92.5t-84 -101.5q-5 -23 5.5 -37t32.5 -14
q32 0 80.5 20.5t103.5 57.5l-71 -173q-49 -29 -101 -47q-50 -18 -86 -18q-79 0 -123 53t-28 129z" />
    <glyph glyph-name="Cacute" unicode="&#x106;" 
d="M1077 152q-132 -89 -260.5 -132t-260.5 -43q-224 0 -348 127.5t-124 359.5q0 307 196 518.5t480 211.5q159 0 258 -56v0l15 56h185v0l-100 -480v0h-185v0l44 210q-27 27 -84 42t-133 15q-196 0 -325.5 -141.5t-129.5 -355.5q0 -140 72 -217t203 -77q113 0 215 32.5
t195 98.5zM498 1403l612 282l78 -218l-651 -173z" />
    <glyph glyph-name="cacute" unicode="&#x107;" 
d="M1027 176q-96 -84 -248.5 -141.5t-278.5 -57.5q-197 0 -308.5 104.5t-111.5 290.5q1 248 172.5 412t430.5 164q132 0 222 -37v0l7 37h185v0l-82 -402v0h-185v0l34 165q-103 16 -139 20t-80 4q-142 0 -240.5 -97t-97.5 -237q0 -98 53 -152t150 -54q123 0 230.5 32.5
t207.5 100.5zM402 1157l612 282l78 -218l-651 -173z" />
    <glyph glyph-name="Ccaron" unicode="&#x10c;" 
d="M1077 152q-132 -89 -260.5 -132t-260.5 -43q-224 0 -348 127.5t-124 359.5q0 307 196 518.5t480 211.5q159 0 258 -56v0l15 56h185v0l-100 -480v0h-185v0l44 210q-27 27 -84 42t-133 15q-196 0 -325.5 -141.5t-129.5 -355.5q0 -140 72 -217t203 -77q113 0 215 32.5
t195 98.5zM667 1294l-253 295l146 91l259 -217v0l325 217l116 -90l-365 -296h-114h-114z" />
    <glyph glyph-name="ccaron" unicode="&#x10d;" 
d="M1027 176q-96 -84 -248.5 -141.5t-278.5 -57.5q-197 0 -308.5 104.5t-111.5 290.5q1 248 172.5 412t430.5 164q132 0 222 -37v0l7 37h185v0l-82 -402v0h-185v0l34 165q-103 16 -139 20t-80 4q-142 0 -240.5 -97t-97.5 -237q0 -98 53 -152t150 -54q123 0 230.5 32.5
t207.5 100.5zM584 1048l-253 295l146 91l259 -217v0l325 217l116 -90l-365 -296h-114h-114z" />
    <glyph glyph-name="Dcaron" unicode="&#x10e;" 
d="M114 185l166 801h-167l38 185h273v0h318q199 0 309 -110t110 -310q0 -338 -183 -545q-181 -206 -478 -206h-318v0h-256l38 185h150zM333 213v0h183q185 0 298 146.5t113 385.5q0 117 -66 165t-226 48h-148v0zM609 1294l-253 295l146 91l259 -217v0l325 217l116 -90
l-365 -296h-114h-114z" />
    <glyph glyph-name="dcaron" unicode="&#x10f;" 
d="M323 -23q-176 0 -285.5 109.5t-109.5 285.5q0 242 159 409t390 167q169 1 276 -89v0l48 232h-261l39 185h211h211h54l-226 -1091h165l-38 -185h-190h-190v0l9 44v0q-118 -67 -262 -67zM482 735q-141 0 -239 -95t-98 -232q0 -101 57 -159.5t155 -58.5q124 0 205.5 71
t108.5 202q25 120 -28 196t-161 76zM1100 953l295 539h315l-376 -539h-234z" />
    <glyph glyph-name="Dcroat" unicode="&#x110;" 
d="M-74 0l38 185h150l67 323v0h-128l32 155h128v0l67 323h-167l38 185h273v0h318q199 0 309 -110t110 -310q0 -353 -175 -552t-486 -199h-318v0h-256zM487 958v0l-61 -295v0h205l-32 -155h-205v0l-61 -295v0h183q182 0 293.5 136t111.5 358q0 120 -53.5 185.5t-151.5 65.5
h-229z" />
    <glyph glyph-name="dcroat" unicode="&#x111;" 
d="M418 -23q-176 0 -285.5 109.5t-109.5 285.5q0 242 159 409t390 167q169 1 276 -89v0l43 207h-218l23 111h218l21 99v0h80h81h54l-21 -99h156l-23 -111h-156l-182 -881h165l-38 -185h-190h-190v0l9 44v0q-118 -67 -262 -67zM577 735q-141 0 -239 -95t-98 -232
q0 -101 57 -159.5t155 -58.5q124 0 205.5 71t108.5 202q25 120 -28 196t-161 76z" />
    <glyph glyph-name="Emacron" unicode="&#x112;" 
d="M-31 0l38 185h167l166 801h-167l38 185h380v0h643v0l-47 -229l-48 -230h-185l51 246h-458v0l-53 -255v0h187l30 143h185l-52 -249l-52 -250h-185l30 143h-187v0l-57 -277v0h476l51 246h185l-48 -229l-47 -230v0h-661v0h-380zM404 1518h862l-44 -213h-862z" />
    <glyph glyph-name="emacron" unicode="&#x113;" 
d="M505 -23q-197 0 -309 104.5t-112 289.5q1 248 179 412.5t447 164.5q172 0 280.5 -99t108.5 -253v-3q1 -100 -26 -187v0h-768v0l-1 -17q0 -95 64.5 -147t182.5 -52q100 0 214 21.5t233 63.5l53 -145q-164 -79 -296.5 -116t-249.5 -37zM889 582v0q-10 64 -55 102
q-57 51 -162 51q-180 0 -275 -88q-29 -27 -50 -65v0h542zM348 1304h862l-45 -213h-862z" />
    <glyph glyph-name="Edotaccent" unicode="&#x116;" 
d="M-31 0l38 185h167l166 801h-167l38 185h380v0h643v0l-47 -229l-48 -230h-185l51 246h-458v0l-53 -255v0h187l30 143h185l-52 -249l-52 -250h-185l30 143h-187v0l-57 -277v0h476l51 246h185l-48 -229l-47 -230v0h-661v0h-380zM727 1641h256l-58 -304h-256z" />
    <glyph glyph-name="edotaccent" unicode="&#x117;" 
d="M505 -23q-197 0 -309 104.5t-112 289.5q1 248 179 412.5t447 164.5q172 0 280.5 -99t108.5 -253v-3q1 -100 -26 -187v0h-768v0l-1 -17q0 -95 64.5 -147t182.5 -52q100 0 214 21.5t233 63.5l53 -145q-164 -79 -296.5 -116t-249.5 -37zM889 582v0q-10 64 -55 102
q-57 51 -162 51q-180 0 -275 -88q-29 -27 -50 -65v0h542zM664 1395h256l-58 -304h-256z" />
    <glyph glyph-name="Eogonek" unicode="&#x118;" 
d="M-31 0l38 185h167l166 801h-167l38 185h380v0h643v0l-47 -229l-48 -230h-185l51 246h-458v0l-53 -255v0h187l30 143h185l-52 -249l-52 -250h-185l30 143h-187v0l-57 -277v0h476l51 246h185l-48 -229l-47 -230v0h-661v0h-380zM418 -154q13 63 89.5 113.5t204.5 79.5h169
q-137 -50 -193.5 -84t-64.5 -71q-7 -34 5 -54.5t39 -20.5q24 0 61 17t78 48l-60 -153q-48 -27 -98.5 -43.5t-84.5 -16.5q-77 0 -120 54q-42 53 -25 131z" />
    <glyph glyph-name="eogonek" unicode="&#x119;" 
d="M505 -23q-197 0 -309 104.5t-112 289.5q1 248 179 412.5t447 164.5q172 0 280.5 -99t108.5 -253v-3q1 -100 -26 -187v0h-768v0l-1 -17q0 -95 64.5 -147t182.5 -52q100 0 214 21.5t233 63.5l53 -145q-164 -79 -296.5 -116t-249.5 -37zM889 582v0q-10 64 -55 102
q-57 51 -162 51q-180 0 -275 -88q-29 -27 -50 -65v0h542zM416 -180q14 68 71.5 123.5t158.5 99.5h213q-98 -36 -172 -92.5t-84 -101.5q-5 -23 5.5 -37t32.5 -14q32 0 80.5 20.5t103.5 57.5l-71 -173q-49 -29 -101 -47q-50 -18 -86 -18q-79 0 -123 53t-28 129z" />
    <glyph glyph-name="Ecaron" unicode="&#x11a;" 
d="M-31 0l38 185h167l166 801h-167l38 185h380v0h643v0l-47 -229l-48 -230h-185l51 246h-458v0l-53 -255v0h187l30 143h185l-52 -249l-52 -250h-185l30 143h-187v0l-57 -277v0h476l51 246h185l-48 -229l-47 -230v0h-661v0h-380zM675 1294l-253 295l146 91l259 -217v0
l325 217l116 -90l-365 -296h-114h-114z" />
    <glyph glyph-name="ecaron" unicode="&#x11b;" 
d="M505 -23q-197 0 -309 104.5t-112 289.5q1 248 179 412.5t447 164.5q172 0 280.5 -99t108.5 -253v-3q1 -100 -26 -187v0h-768v0l-1 -17q0 -95 64.5 -147t182.5 -52q100 0 214 21.5t233 63.5l53 -145q-164 -79 -296.5 -116t-249.5 -37zM889 582v0q-10 64 -55 102
q-57 51 -162 51q-180 0 -275 -88q-29 -27 -50 -65v0h542zM612 1048l-253 295l146 91l259 -217v0l325 217l116 -90l-365 -296h-114h-114z" />
    <glyph glyph-name="Gbreve" unicode="&#x11e;" 
d="M548 -23q-233 0 -362 120.5t-129 338.5q0 318 190 538t465 220q191 0 294 -81v0l21 81h185v0l-97 -468v0h-185v0l39 187q-49 32 -118 50t-146 18q-169 0 -296 -154t-128 -359q1 -133 77 -205.5t215 -72.5h-2q123 2 227 34v0l29 141h-283l38 185h298h298l-38 -185h-100
l-60 -290v0q-187 -98 -432 -98zM733 1294q-198 0 -318.5 92t-120.5 243h215q8 -76 72.5 -112.5t189.5 -36.5q121 0 206.5 39.5t117.5 109.5h215q-43 -157 -195.5 -246t-381.5 -89z" />
    <glyph glyph-name="gbreve" unicode="&#x11f;" 
d="M396 -161q132 0 193.5 34t78.5 117l20 100v0q-126 -66 -278 -67q-152 0 -251.5 101.5t-99.5 256.5q1 249 157 408t401 159q133 1 231 -88v0l13 65v0h191h191l-38 -185h-167l-155 -750q-40 -196 -151 -280q-109 -84 -326 -84q-130 0 -203 12.5t-220 61.5l84 188
q20 -14 139.5 -31.5t189.5 -17.5zM593 735q-136 0 -226 -91t-90 -228q-1 -84 48.5 -132t134.5 -48q124 0 204.5 65t105.5 185q23 110 -26.5 179.5t-150.5 69.5zM638 1048q-198 0 -318.5 92t-120.5 243h215q8 -76 72.5 -112.5t189.5 -36.5q121 0 206.5 39.5t117.5 109.5h215
q-43 -157 -195.5 -246t-381.5 -89z" />
    <glyph glyph-name="uni0122" unicode="&#x122;" 
d="M548 -23q-233 0 -362 120.5t-129 338.5q0 318 190 538t465 220q191 0 294 -81v0l21 81h185v0l-97 -468v0h-185v0l39 187q-49 32 -118 50t-146 18q-169 0 -296 -154t-128 -359q1 -133 77 -205.5t215 -72.5h-2q123 2 227 34v0l29 141h-283l38 185h298h298l-38 -185h-100
l-60 -290v0q-187 -98 -432 -98zM63 -586l295 463h315l-376 -463h-234z" />
    <glyph glyph-name="uni0123" unicode="&#x123;" 
d="M396 -161q132 0 193.5 34t78.5 117l20 100v0q-126 -66 -278 -67q-152 0 -251.5 101.5t-99.5 256.5q1 249 157 408t401 159q133 1 231 -88v0l13 65v0h191h191l-38 -185h-167l-155 -750q-40 -196 -151 -280q-109 -84 -326 -84q-130 0 -203 12.5t-220 61.5l84 188
q20 -14 139.5 -31.5t189.5 -17.5zM593 735q-136 0 -226 -91t-90 -228q-1 -84 48.5 -132t134.5 -48q124 0 204.5 65t105.5 185q23 110 -26.5 179.5t-150.5 69.5zM1004 1511l-295 -463h-315l376 463h234z" />
    <glyph glyph-name="Imacron" unicode="&#x12a;" 
d="M442 185l166 801h-350l38 185h456h457l-38 -185h-350l-166 -801h350l-38 -185h-456h-457l38 185h350zM393 1518h862l-44 -213h-862z" />
    <glyph glyph-name="imacron" unicode="&#x12b;" 
d="M440 185l115 555h-284l38 185h222h223h54l-153 -740h347l-38 -185h-454h-455l38 185h347zM348 1304h862l-45 -213h-862z" />
    <glyph glyph-name="Iogonek" unicode="&#x12e;" 
d="M442 185l166 801h-350l38 185h456h457l-38 -185h-350l-166 -801h350l-38 -185h-456h-457l38 185h350zM224 -154q13 63 89.5 113.5t204.5 79.5h169q-137 -50 -193.5 -84t-64.5 -71q-7 -34 5 -54.5t39 -20.5q24 0 61 17t78 48l-60 -153q-48 -27 -98.5 -43.5t-84.5 -16.5
q-77 0 -120 54q-42 53 -25 131z" />
    <glyph glyph-name="iogonek" unicode="&#x12f;" 
d="M440 185l115 555h-284l38 185h222h223h54l-153 -740h347l-38 -185h-454h-455l38 185h347zM651 1392h248l-69 -332h-248zM287 -180q14 68 71.5 123.5t158.5 99.5h213q-98 -36 -172 -92.5t-84 -101.5q-5 -23 5.5 -37t32.5 -14q32 0 80.5 20.5t103.5 57.5l-71 -173
q-49 -29 -101 -47q-50 -18 -86 -18q-79 0 -123 53t-28 129z" />
    <glyph glyph-name="Idotaccent" unicode="&#x130;" 
d="M442 185l166 801h-350l38 185h456h457l-38 -185h-350l-166 -801h350l-38 -185h-456h-457l38 185h350zM716 1641h256l-58 -304h-256z" />
    <glyph glyph-name="dotlessi" unicode="&#x131;" 
d="M440 185l115 555h-284l38 185h222h223h54l-153 -740h347l-38 -185h-454h-455l38 185h347z" />
    <glyph glyph-name="uni0136" unicode="&#x136;" 
d="M185 185l166 801h-167l38 185h254h255l-38 -185h-129l-59 -281v0l326 281h-64l38 185h241h241l-38 -185h-125l-388 -325v0q37 -63 69 -126q77 -148 148 -350h200l-38 -185h-172h-172v0q-66 221 -135 368q-33 69 -78 144v0l-112 -93v0l-48 -234h167l-38 -185h-273h-274
l38 185h167zM76 -586l295 463h315l-376 -463h-234z" />
    <glyph glyph-name="uni0137" unicode="&#x137;" 
d="M138 185l187 906h-154l39 185h157h158h54l-135 -651v0l188 123h-69l37 177h277h277l-38 -185h-173l-318 -207v0q43 -45 77 -92q87 -113 189 -256h189l-38 -185h-263h-263l38 185h63q-44 67 -85 121q-38 53 -87 110v0l-51 -33v0l-79 -383h-54h-159h-160l38 185h158z
M38 -586l295 463h315l-376 -463h-234z" />
    <glyph glyph-name="Lacute" unicode="&#x139;" 
d="M-22 0l38 185h197l166 801h-208l38 185h325h326l-38 -185h-230l-160 -773v0h439l76 369h185l-60 -291l-60 -291v0h-624v0h-410zM512 1403l612 282l78 -218l-651 -173z" />
    <glyph glyph-name="lacute" unicode="&#x13a;" 
d="M443 185l187 906h-338l39 185h249h250h54l-226 -1091h347l-38 -185h-454h-455l38 185h347zM438 1497l612 282l78 -218l-651 -173z" />
    <glyph glyph-name="uni013B" unicode="&#x13b;" 
d="M-22 0l38 185h197l166 801h-208l38 185h325h326l-38 -185h-230l-160 -773v0h439l76 369h185l-60 -291l-60 -291v0h-624v0h-410zM104 -586l295 463h315l-376 -463h-234z" />
    <glyph glyph-name="uni013C" unicode="&#x13c;" 
d="M478 185l187 906h-338l39 185h249h250h54l-226 -1091h347l-38 -185h-454h-455l38 185h347zM58 -586l295 463h315l-376 -463h-234z" />
    <glyph glyph-name="Lcaron" unicode="&#x13d;" 
d="M-22 0l38 185h197l166 801h-208l38 185h325h326l-38 -185h-230l-160 -773v0h439l76 369h185l-60 -291l-60 -291v0h-624v0h-410zM912 930l295 539h315l-376 -539h-234z" />
    <glyph glyph-name="lcaron" unicode="&#x13e;" 
d="M443 185l187 906h-338l39 185h249h250h54l-226 -1091h347l-38 -185h-454h-455l38 185h347zM947 953l295 539h315l-376 -539h-234z" />
    <glyph glyph-name="Lslash" unicode="&#x141;" 
d="M-22 0l38 185h197l56 269l-145 -46l35 167l144 46l76 365h-208l38 185h325h326l-38 -185h-230l-61 -293l259 82l-35 -167l-259 -82l-64 -313v0h439l76 369h185l-60 -291l-60 -291v0h-624v0h-410z" />
    <glyph glyph-name="lslash" unicode="&#x142;" 
d="M437 185l71 345l-191 -53l31 148l191 53l85 413h-329l39 185h245h245h54l-111 -535l166 46l-30 -148l-167 -46l-84 -408h344l-38 -185h-450h-450l38 185h341z" />
    <glyph glyph-name="Nacute" unicode="&#x143;" 
d="M314 185h208l-38 -185h-285h-286l38 185h150l166 801h-167l38 185h195h195v0l294 -790v0v0l126 605h-208l38 185h277h277l-38 -185h-133l-204 -986h-114h-114l-292 781v0v0zM413 1403l612 282l78 -218l-651 -173z" />
    <glyph glyph-name="nacute" unicode="&#x144;" 
d="M121 185l115 555h-158l38 185h148h149h54l-12 -58v0v0q157 81 312 81q153 0 223.5 -78t41.5 -215l-97 -470h158l-38 -185h-257h-258l38 185h142l87 422q13 64 -14.5 95.5t-99.5 31.5q-82 0 -183 -47q-47 -21 -80 -45v0l-94 -457h126l-38 -185h-249h-250l38 185h158z
M376 1157l612 282l78 -218l-651 -173z" />
    <glyph glyph-name="uni0145" unicode="&#x145;" 
d="M314 185h208l-38 -185h-285h-286l38 185h150l166 801h-167l38 185h195h195v0l294 -790v0v0l126 605h-208l38 185h277h277l-38 -185h-133l-204 -986h-114h-114l-292 781v0v0zM21 -586l295 463h315l-376 -463h-234z" />
    <glyph glyph-name="uni0146" unicode="&#x146;" 
d="M121 185l115 555h-158l38 185h148h149h54l-12 -58v0v0q157 81 312 81q153 0 223.5 -78t41.5 -215l-97 -470h158l-38 -185h-257h-258l38 185h142l87 422q13 64 -14.5 95.5t-99.5 31.5q-82 0 -183 -47q-47 -21 -80 -45v0l-94 -457h126l-38 -185h-249h-250l38 185h158z
M1 -586l295 463h315l-376 -463h-234z" />
    <glyph glyph-name="Ncaron" unicode="&#x147;" 
d="M314 185h208l-38 -185h-285h-286l38 185h150l166 801h-167l38 185h195h195v0l294 -790v0v0l126 605h-208l38 185h277h277l-38 -185h-133l-204 -986h-114h-114l-292 781v0v0zM664 1294l-253 295l146 91l259 -217v0l325 217l116 -90l-365 -296h-114h-114z" />
    <glyph glyph-name="ncaron" unicode="&#x148;" 
d="M121 185l115 555h-158l38 185h148h149h54l-12 -58v0v0q157 81 312 81q153 0 223.5 -78t41.5 -215l-97 -470h158l-38 -185h-257h-258l38 185h142l87 422q13 64 -14.5 95.5t-99.5 31.5q-82 0 -183 -47q-47 -21 -80 -45v0l-94 -457h126l-38 -185h-249h-250l38 185h158z
M593 1048l-253 295l146 91l259 -217v0l325 217l116 -90l-365 -296h-114h-114z" />
    <glyph glyph-name="Omacron" unicode="&#x14c;" 
d="M486 -23q-206 0 -319.5 124t-113.5 349q-1 312 198 528t486 216q206 0 319 -124t114 -350q0 -312 -199 -528q-197 -215 -485 -215v0zM510 190q176 0 307 153.5t132 357.5q-1 133 -62.5 206.5t-174.5 73.5q-175 0 -306.5 -153.5t-131.5 -358.5q0 -133 61.5 -206t174.5 -73
v0zM373 1518h862l-44 -213h-862z" />
    <glyph glyph-name="omacron" unicode="&#x14d;" 
d="M494 -23q-212 0 -336 111q-122 109 -122 299v3q0 240 173.5 399t434.5 159q215 0 335.5 -112.5t120.5 -312.5q0 -235 -172.5 -390.5t-433.5 -155.5v0zM523 190q148 0 251 93t103 227q0 107 -69 166t-194 59q-148 0 -250.5 -93t-102.5 -227q0 -107 68.5 -166t193.5 -59v0z
M357 1304h862l-45 -213h-862z" />
    <glyph glyph-name="Ohungarumlaut" unicode="&#x150;" 
d="M486 -23q-206 0 -319.5 124t-113.5 349q-1 312 198 528t486 216q206 0 319 -124t114 -350q0 -312 -199 -528q-197 -215 -485 -215v0zM510 190q176 0 307 153.5t132 357.5q-1 133 -62.5 206.5t-174.5 73.5q-175 0 -306.5 -153.5t-131.5 -358.5q0 -133 61.5 -206t174.5 -73
v0zM492 1342l401 369l145 -89l-450 -339zM882 1342l401 369l145 -89l-450 -339z" />
    <glyph glyph-name="ohungarumlaut" unicode="&#x151;" 
d="M494 -23q-212 0 -336 111q-122 109 -122 299v3q0 240 173.5 399t434.5 159q215 0 335.5 -112.5t120.5 -312.5q0 -235 -172.5 -390.5t-433.5 -155.5v0zM523 190q148 0 251 93t103 227q0 107 -69 166t-194 59q-148 0 -250.5 -93t-102.5 -227q0 -107 68.5 -166t193.5 -59v0z
M435 1107l401 369l145 -89l-449 -339zM825 1107l401 369l145 -89l-449 -339z" />
    <glyph glyph-name="OE" unicode="&#x152;" 
d="M592 1171h162h213v0h394v0l-40 -195l-41 -195h-148l37 177h-246v0l-53 -255v0h33l21 100h148l-43 -206l-43 -207h-148l21 100h-33v0l-57 -277v0h246l36 177h148l-40 -195l-40 -195v0h-394v0h-213h-162q-182 0 -282.5 116t-100.5 326q0 306 181 518q181 211 444 211z
M603 958q-165 0 -289 -144.5t-124 -337.5q0 -125 58.5 -194t164.5 -69q28 0 73 14l11 4q34 12 55 36q20 24 28 62l111 537q9 42 -3 64t-46 25z" />
    <glyph glyph-name="oe" unicode="&#x153;" 
d="M453 948q158 0 246 -121v0q114 120 263 121h3q125 0 189 -78.5t64 -232.5q1 -113 -43 -231v0h-449v0l-2 -82q-1 -64 26.5 -99t76.5 -35q52 0 121 7t163 21l32 -172q-116 -37 -196.5 -53t-150.5 -16q-135 0 -213 75q-27 26 -45 61v0q-142 -136 -296 -136h3
q-175 0 -256.5 125.5t-39.5 330.5l4 19q49 238 178.5 367t318.5 129h3zM419 735q-81 0 -149.5 -84.5t-96.5 -216.5l-6 -29q-21 -103 8 -159t105 -56h-1q79 0 152 90.5t100 221.5l8 38q19 90 -13 142.5t-106 52.5h-1zM996 582v0q4 35 3 69q0 43 -17.5 63.5t-54.5 20.5h-2
q-98 0 -150 -105l-20 -48v0h241z" />
    <glyph glyph-name="Racute" unicode="&#x154;" 
d="M140 185l166 801h-167l38 185h273v0h240q202 0 295.5 -68.5t93.5 -215.5q0 -187 -137 -301q-75 -64 -181 -92v0q47 -79 83 -149q36 -72 75 -160h200l-38 -185h-200h-162q-64 206 -127 345q-27 60 -64 127v0l-116 -2v0l-59 -285h183l-38 -185h-274h-275l38 185h153z
M452 663v0h121q142 0 213 47t71 141q0 57 -46.5 82t-152.5 25h-145v0zM479 1403l612 282l78 -218l-651 -173z" />
    <glyph glyph-name="racute" unicode="&#x155;" 
d="M289 185l115 555h-237l38 185h188h188h54l-29 -140v0v0q76 51 146 87q150 76 261 76q116 0 158.5 -58t21.5 -187l-203 -22q2 29 -4.5 41t-23.5 12q-67 0 -198 -66q-97 -48 -183 -111v0l-77 -372h379l-38 -185h-420h-420l38 185h246zM476 1157l612 282l78 -218l-651 -173z
" />
    <glyph glyph-name="uni0156" unicode="&#x156;" 
d="M140 185l166 801h-167l38 185h273v0h240q202 0 295.5 -68.5t93.5 -215.5q0 -187 -137 -301q-75 -64 -181 -92v0q47 -79 83 -149q36 -72 75 -160h200l-38 -185h-200h-162q-64 206 -127 345q-27 60 -64 127v0l-116 -2v0l-59 -285h183l-38 -185h-274h-275l38 185h153z
M452 663v0h121q142 0 213 47t71 141q0 57 -46.5 82t-152.5 25h-145v0zM54 -586l295 463h315l-376 -463h-234z" />
    <glyph glyph-name="uni0157" unicode="&#x157;" 
d="M344 185l115 555h-237l38 185h188h188h54l-29 -140v0v0q76 51 146 87q150 76 261 76q116 0 158.5 -58t21.5 -187l-203 -22q2 29 -4.5 41t-23.5 12q-67 0 -198 -66q-97 -48 -183 -111v0l-77 -372h379l-38 -185h-420h-420l38 185h246zM-76 -586l295 463h315l-376 -463h-234
z" />
    <glyph glyph-name="Rcaron" unicode="&#x158;" 
d="M140 185l166 801h-167l38 185h273v0h240q202 0 295.5 -68.5t93.5 -215.5q0 -187 -137 -301q-75 -64 -181 -92v0q47 -79 83 -149q36 -72 75 -160h200l-38 -185h-200h-162q-64 206 -127 345q-27 60 -64 127v0l-116 -2v0l-59 -285h183l-38 -185h-274h-275l38 185h153z
M452 663v0h121q142 0 213 47t71 141q0 57 -46.5 82t-152.5 25h-145v0zM613 1294l-253 295l146 91l259 -217v0l325 217l116 -90l-365 -296h-114h-114z" />
    <glyph glyph-name="rcaron" unicode="&#x159;" 
d="M289 185l115 555h-237l38 185h188h188h54l-29 -140v0v0q76 51 146 87q150 76 261 76q116 0 158.5 -58t21.5 -187l-203 -22q2 29 -4.5 41t-23.5 12q-67 0 -198 -66q-97 -48 -183 -111v0l-77 -372h379l-38 -185h-420h-420l38 185h246zM600 1048l-253 295l146 91l259 -217v0
l325 217l116 -90l-365 -296h-114h-114z" />
    <glyph glyph-name="Sacute" unicode="&#x15a;" 
d="M851 749v0l43 210q-68 13 -111.5 17.5t-89.5 4.5q-103 0 -178 -41q-73 -41 -87 -106q-15 -74 42 -110q58 -35 222 -54q201 -23 276 -115q50 -61 50 -161q1 -50 -12 -109q-29 -136 -165.5 -222t-324.5 -86q-169 0 -322 59v0l-14 -59h-185v0l91 445v0h185v0l-39 -187
q58 -23 134 -34t174 -11q103 0 175.5 35.5t83.5 91.5q14 68 -33 100q-48 32 -184 47q-218 24 -308 125q-62 70 -63 181q1 45 11 98q29 140 168 233t319 93q119 0 223 -41v0l11 41h185v0l-92 -445v0h-185zM482 1403l612 282l78 -218l-651 -173z" />
    <glyph glyph-name="sacute" unicode="&#x15b;" 
d="M819 592v0l27 129q-75 8 -114 11t-73 3q-94 0 -158 -17q-62 -16 -68 -42q-8 -43 48 -68t213 -48q206 -30 276 -98q50 -47 49 -132q1 -34 -8 -76q-27 -133 -148.5 -205t-319.5 -72q-159 0 -301 54v0l-13 -54h-189v0l80 393v0h189v0l-31 -148q66 -17 135.5 -24.5
t154.5 -7.5q94 0 157.5 19.5t69.5 50.5q10 46 -28 66q-38 19 -177 40q-229 33 -314 109q-63 57 -63 151q-1 33 7 69q25 119 146 186t310 67q110 -1 210 -29v0l7 29h185v0l-74 -356v0h-185zM448 1157l612 282l78 -218l-651 -173z" />
    <glyph glyph-name="Scedilla" unicode="&#x15e;" 
d="M851 749v0l43 210q-68 13 -111.5 17.5t-89.5 4.5q-103 0 -178 -41q-73 -41 -87 -106q-15 -74 42 -110q58 -35 222 -54q201 -23 276 -115q50 -61 50 -161q1 -50 -12 -109q-29 -136 -165.5 -222t-324.5 -86q-169 0 -322 59v0l-14 -59h-185v0l91 445v0h185v0l-39 -187
q58 -23 134 -34t174 -11q103 0 175.5 35.5t83.5 91.5q14 68 -33 100q-48 32 -184 47q-218 24 -308 125q-62 70 -63 181q1 45 11 98q29 140 168 233t319 93q119 0 223 -41v0l11 41h185v0l-92 -445v0h-185zM579 0l-12 -44v0q74 -8 109 -52q40 -51 20 -150
q-19 -89 -78.5 -137.5t-150.5 -48.5q-47 0 -86 14.5t-77 45.5l68 86q36 -11 63 -17.5t39 -6.5q38 0 59 14.5t28 46.5q8 39 -6.5 61.5t-47.5 22.5q-25 0 -55.5 -3t-40.5 -7v0l50 175h118z" />
    <glyph glyph-name="scedilla" unicode="&#x15f;" 
d="M819 592v0l27 129q-75 8 -114 11t-73 3q-94 0 -158 -17q-62 -16 -68 -42q-8 -43 48 -68t213 -48q206 -30 276 -98q50 -47 49 -132q1 -34 -8 -76q-27 -133 -148.5 -205t-319.5 -72q-159 0 -301 54v0l-13 -54h-189v0l80 393v0h189v0l-31 -148q66 -17 135.5 -24.5
t154.5 -7.5q94 0 157.5 19.5t69.5 50.5q10 46 -28 66q-38 19 -177 40q-229 33 -314 109q-63 57 -63 151q-1 33 7 69q25 119 146 186t310 67q110 -1 210 -29v0l7 29h185v0l-74 -356v0h-185zM606 0l-12 -44v0q74 -8 109 -52q40 -51 20 -150q-19 -89 -78.5 -137.5t-150.5 -48.5
q-47 0 -86 14.5t-77 45.5l68 86q36 -11 63 -17.5t39 -6.5q38 0 59 14.5t28 46.5q8 39 -6.5 61.5t-47.5 22.5q-25 0 -55.5 -3t-40.5 -7v0l50 175h118z" />
    <glyph glyph-name="Scaron" unicode="&#x160;" 
d="M851 749v0l43 210q-68 13 -111.5 17.5t-89.5 4.5q-103 0 -178 -41q-73 -41 -87 -106q-15 -74 42 -110q58 -35 222 -54q201 -23 276 -115q50 -61 50 -161q1 -50 -12 -109q-29 -136 -165.5 -222t-324.5 -86q-169 0 -322 59v0l-14 -59h-185v0l91 445v0h185v0l-39 -187
q58 -23 134 -34t174 -11q103 0 175.5 35.5t83.5 91.5q14 68 -33 100q-48 32 -184 47q-218 24 -308 125q-62 70 -63 181q1 45 11 98q29 140 168 233t319 93q119 0 223 -41v0l11 41h185v0l-92 -445v0h-185zM616 1294l-253 295l146 91l259 -217v0l325 217l116 -90l-365 -296
h-114h-114z" />
    <glyph glyph-name="scaron" unicode="&#x161;" 
d="M819 592v0l27 129q-75 8 -114 11t-73 3q-94 0 -158 -17q-62 -16 -68 -42q-8 -43 48 -68t213 -48q206 -30 276 -98q50 -47 49 -132q1 -34 -8 -76q-27 -133 -148.5 -205t-319.5 -72q-159 0 -301 54v0l-13 -54h-189v0l80 393v0h189v0l-31 -148q66 -17 135.5 -24.5
t154.5 -7.5q94 0 157.5 19.5t69.5 50.5q10 46 -28 66q-38 19 -177 40q-229 33 -314 109q-63 57 -63 151q-1 33 7 69q25 119 146 186t310 67q110 -1 210 -29v0l7 29h185v0l-74 -356v0h-185zM583 1048l-253 295l146 91l259 -217v0l325 217l116 -90l-365 -296h-114h-114z" />
    <glyph glyph-name="uni0162" unicode="&#x162;" 
d="M413 185l160 773v0h-248l-54 -258h-185l49 235l49 236v0h539v0h540v0l-49 -235l-49 -236h-185l54 258h-248v0l-160 -773h250l-38 -185h-348h-348l38 185h233zM540 0l-12 -44v0q74 -8 109 -52q40 -51 20 -150q-19 -89 -78.5 -137.5t-150.5 -48.5q-47 0 -86 14.5t-77 45.5
l68 86q36 -11 63 -17.5t39 -6.5q38 0 59 14.5t28 46.5q8 39 -6.5 61.5t-47.5 22.5q-25 0 -55.5 -3t-40.5 -7v0l50 175h118z" />
    <glyph glyph-name="uni0163" unicode="&#x163;" 
d="M559 -23q-187 0 -270.5 90t-49.5 256l81 389v0h-122l44 213h122v0l59 287h215l-59 -287v0h484l-44 -213h-484v0l-81 -389q-13 -66 23.5 -99.5t123.5 -33.5t233.5 31t192.5 59l-39 -192q-78 -48 -199.5 -79.5t-229.5 -31.5zM586 0l-12 -44v0q74 -8 109 -52q40 -51 20 -150
q-19 -89 -78.5 -137.5t-150.5 -48.5q-47 0 -86 14.5t-77 45.5l68 86q36 -11 63 -17.5t39 -6.5q38 0 59 14.5t28 46.5q8 39 -6.5 61.5t-47.5 22.5q-25 0 -55.5 -3t-40.5 -7v0l50 175h118z" />
    <glyph glyph-name="Tcaron" unicode="&#x164;" 
d="M413 185l160 773v0h-248l-54 -258h-185l49 235l49 236v0h539v0h540v0l-49 -235l-49 -236h-185l54 258h-248v0l-160 -773h250l-38 -185h-348h-348l38 185h233zM635 1294l-253 295l146 91l259 -217v0l325 217l116 -90l-365 -296h-114h-114z" />
    <glyph glyph-name="tcaron" unicode="&#x165;" 
d="M559 -23q-187 0 -270.5 90t-49.5 256l81 389v0h-122l44 213h122v0l59 287h215l-59 -287v0h484l-44 -213h-484v0l-81 -389q-13 -66 23.5 -99.5t123.5 -33.5t233.5 31t192.5 59l-39 -192q-78 -48 -199.5 -79.5t-229.5 -31.5zM716 1033l295 539h315l-376 -539h-234z" />
    <glyph glyph-name="Umacron" unicode="&#x16a;" 
d="M1014 444q-52 -252 -168.5 -359.5t-340.5 -107.5q-229 0 -325 119q-62 80 -63 207q0 66 16 141l113 542h-150l38 185h265h265l-38 -185h-167l-118 -568q-10 -44 -9 -80q0 -61 27 -95q42 -53 163 -53q120 0 184.5 53.5t89.5 174.5l118 568h-167l38 185h256h257l-38 -185
h-133zM365 1518h862l-44 -213h-862z" />
    <glyph glyph-name="umacron" unicode="&#x16b;" 
d="M480 925l-119 -576q-17 -81 8.5 -120t94.5 -39q86 0 179 45q42 20 74 44v0l96 461h-173l38 185h167h167h54l-153 -740h158l-38 -185h-175h-176v0l11 56v0v0q-150 -80 -303 -80q-150 0 -216 100q-41 63 -41 158q0 53 13 116l81 390h-158l38 185h159h160h54zM313 1304h862
l-45 -213h-862z" />
    <glyph glyph-name="Uring" unicode="&#x16e;" 
d="M1014 444q-52 -252 -168.5 -359.5t-340.5 -107.5q-229 0 -325 119q-62 80 -63 207q0 66 16 141l113 542h-150l38 185h265h265l-38 -185h-167l-118 -568q-10 -44 -9 -80q0 -61 27 -95q42 -53 163 -53q120 0 184.5 53.5t89.5 174.5l118 568h-167l38 185h256h257l-38 -185
h-133zM750 1302q-86 0 -145 59t-59 145t59 145.5t145 59.5t145.5 -59.5t59.5 -145.5t-59.5 -145t-145.5 -59v0zM750 1429q33 0 55.5 22.5t22.5 54.5q0 33 -22.5 55.5t-55.5 22.5q-32 0 -54.5 -22.5t-22.5 -55.5q0 -32 22.5 -54.5t54.5 -22.5v0z" />
    <glyph glyph-name="uring" unicode="&#x16f;" 
d="M480 925l-119 -576q-17 -81 8.5 -120t94.5 -39q86 0 179 45q42 20 74 44v0l96 461h-173l38 185h167h167h54l-153 -740h158l-38 -185h-175h-176v0l11 56v0v0q-150 -80 -303 -80q-150 0 -216 100q-41 63 -41 158q0 53 13 116l81 390h-158l38 185h159h160h54zM691 1056
q-86 0 -145 59t-59 145t59 145.5t145 59.5t145.5 -59.5t59.5 -145.5t-59.5 -145t-145.5 -59v0zM691 1183q33 0 55.5 22.5t22.5 54.5q0 33 -22.5 55.5t-55.5 22.5q-32 0 -54.5 -22.5t-22.5 -55.5q0 -32 22.5 -54.5t54.5 -22.5v0z" />
    <glyph glyph-name="Uhungarumlaut" unicode="&#x170;" 
d="M1014 444q-52 -252 -168.5 -359.5t-340.5 -107.5q-229 0 -325 119q-62 80 -63 207q0 66 16 141l113 542h-150l38 185h265h265l-38 -185h-167l-118 -568q-10 -44 -9 -80q0 -61 27 -95q42 -53 163 -53q120 0 184.5 53.5t89.5 174.5l118 568h-167l38 185h256h257l-38 -185
h-133zM308 1342l401 369l145 -89l-450 -339zM698 1342l401 369l145 -89l-450 -339z" />
    <glyph glyph-name="uhungarumlaut" unicode="&#x171;" 
d="M480 925l-119 -576q-17 -81 8.5 -120t94.5 -39q86 0 179 45q42 20 74 44v0l96 461h-173l38 185h167h167h54l-153 -740h158l-38 -185h-175h-176v0l11 56v0v0q-150 -80 -303 -80q-150 0 -216 100q-41 63 -41 158q0 53 13 116l81 390h-158l38 185h159h160h54zM356 1107
l401 369l145 -89l-449 -339zM746 1107l401 369l145 -89l-449 -339z" />
    <glyph glyph-name="Uogonek" unicode="&#x172;" 
d="M1014 444q-52 -252 -168.5 -359.5t-340.5 -107.5q-229 0 -325 119q-62 80 -63 207q0 66 16 141l113 542h-150l38 185h265h265l-38 -185h-167l-118 -568q-10 -44 -9 -80q0 -61 27 -95q42 -53 163 -53q120 0 184.5 53.5t89.5 174.5l118 568h-167l38 185h256h257l-38 -185
h-133zM325 -119q13 63 89.5 113.5t204.5 79.5h169q-137 -50 -193.5 -84t-64.5 -71q-7 -34 5 -54.5t39 -20.5q24 0 61 17t78 48l-60 -153q-48 -27 -98.5 -43.5t-84.5 -16.5q-77 0 -120 54q-42 53 -25 131z" />
    <glyph glyph-name="uogonek" unicode="&#x173;" 
d="M480 925l-119 -576q-17 -81 8.5 -120t94.5 -39q86 0 179 45q42 20 74 44v0l96 461h-173l38 185h167h167h54l-153 -740h158l-38 -185h-175h-176v0l11 56v0v0q-150 -80 -303 -80q-150 0 -216 100q-41 63 -41 158q0 53 13 116l81 390h-158l38 185h159h160h54zM481 -180
q14 68 71.5 123.5t158.5 99.5h213q-98 -36 -172 -92.5t-84 -101.5q-5 -23 5.5 -37t32.5 -14q32 0 80.5 20.5t103.5 57.5l-71 -173q-49 -29 -101 -47q-50 -18 -86 -18q-79 0 -123 53t-28 129z" />
    <glyph glyph-name="Ydieresis" unicode="&#x178;" 
d="M486 453v0l-234 533h-137l38 185h249h250l-38 -185h-110l126 -330v0l245 330h-110l38 185h253h253l-38 -185h-150l-420 -525v0l-57 -276h233l-38 -185h-339h-340l38 185h233zM509 1636h256l-62 -303h-256zM866 1636h256l-62 -303h-256z" />
    <glyph glyph-name="Zacute" unicode="&#x179;" 
d="M55 159l741 799v0h-390l-54 -258h-185l49 235l49 236v0h503v0h380l-16 -76l-15 -76l-747 -806v0h452l61 295h185l-53 -254l-52 -254v0h-560v0h-380l16 79zM508 1403l612 282l78 -218l-651 -173z" />
    <glyph glyph-name="zacute" unicode="&#x17a;" 
d="M97 165l631 545v0h-320l-32 -153h-185l38 184l38 184v0h476v0h360l-17 -82l-17 -83l-631 -545v0h338l32 156h185l-38 -185l-38 -186v0h-494v0h-360l16 82zM462 1157l612 282l78 -218l-651 -173z" />
    <glyph glyph-name="Zdotaccent" unicode="&#x17b;" 
d="M55 159l741 799v0h-390l-54 -258h-185l49 235l49 236v0h503v0h380l-16 -76l-15 -76l-747 -806v0h452l61 295h185l-53 -254l-52 -254v0h-560v0h-380l16 79zM670 1641h256l-58 -304h-256z" />
    <glyph glyph-name="zdotaccent" unicode="&#x17c;" 
d="M97 165l631 545v0h-320l-32 -153h-185l38 184l38 184v0h476v0h360l-17 -82l-17 -83l-631 -545v0h338l32 156h185l-38 -185l-38 -186v0h-494v0h-360l16 82zM649 1395h256l-58 -304h-256z" />
    <glyph glyph-name="Zcaron" unicode="&#x17d;" 
d="M55 159l741 799v0h-390l-54 -258h-185l49 235l49 236v0h503v0h380l-16 -76l-15 -76l-747 -806v0h452l61 295h185l-53 -254l-52 -254v0h-560v0h-380l16 79zM618 1294l-253 295l146 91l259 -217v0l325 217l116 -90l-365 -296h-114h-114z" />
    <glyph glyph-name="zcaron" unicode="&#x17e;" 
d="M97 165l631 545v0h-320l-32 -153h-185l38 184l38 184v0h476v0h360l-17 -82l-17 -83l-631 -545v0h338l32 156h185l-38 -185l-38 -186v0h-494v0h-360l16 82zM597 1048l-253 295l146 91l259 -217v0l325 217l116 -90l-365 -296h-114h-114z" />
    <glyph glyph-name="florin" unicode="&#x192;" 
d="M700 712v0l-119 -628q-32 -172 -126.5 -248.5t-273.5 -76.5q-49 0 -81.5 3t-119.5 16l107 184q234 7 257 8.5t-103 1.5q57 0 85 25.5t40 86.5l119 628v0h-194l41 213h194v0l14 73q35 185 124 255t288 70q48 0 80.5 -3t125.5 -15l-125 -208q-82 9 -106 11t-53 2
q-51 0 -78.5 -21.5t-36.5 -68.5l-18 -95v0h194l-41 -213h-194z" />
    <glyph glyph-name="circumflex" unicode="&#x2c6;" 
d="M876 1434l253 -295l-147 -91l-258 217v0l-326 -217l-115 90l365 296h114h114z" />
    <glyph glyph-name="caron" unicode="&#x2c7;" 
d="M535 1048l-252 295l146 91l259 -217v0l325 217l116 -90l-366 -296h-114h-114z" />
    <glyph glyph-name="uni02C9" unicode="&#x2c9;" 
d="M316 1304h862l-45 -213h-862z" />
    <glyph glyph-name="breve" unicode="&#x2d8;" 
d="M761 1048q-198 0 -318.5 92t-120.5 243h215q8 -76 72.5 -112.5t189.5 -36.5q121 0 206.5 39.5t117.5 109.5h215q-43 -157 -195.5 -246t-381.5 -89z" />
    <glyph glyph-name="dotaccent" unicode="&#x2d9;" 
d="M639 1395h256l-58 -304h-256z" />
    <glyph glyph-name="ring" unicode="&#x2da;" 
d="M718 1056q-86 0 -145 59t-59 145t59 145.5t145 59.5t145.5 -59.5t59.5 -145.5t-59.5 -145t-145.5 -59v0zM718 1183q33 0 55.5 22.5t22.5 54.5q0 33 -22.5 55.5t-55.5 22.5q-32 0 -54.5 -22.5t-22.5 -55.5q0 -32 22.5 -54.5t54.5 -22.5v0z" />
    <glyph glyph-name="ogonek" unicode="&#x2db;" 
d="M483 -180q14 68 71.5 123.5t158.5 99.5h213q-98 -36 -172 -92.5t-84 -101.5q-5 -23 5.5 -37t32.5 -14q32 0 80.5 20.5t103.5 57.5l-71 -173q-49 -29 -101 -47q-50 -18 -86 -18q-79 0 -123 53t-28 129z" />
    <glyph glyph-name="tilde" unicode="&#x2dc;" 
d="M259 1105q78 133 150.5 187t173.5 54q42 0 89 -12.5t106 -39.5q37 -17 63 -24.5t45 -7.5q30 0 55 20.5t55 69.5l180 -59q-76 -135 -152 -190.5t-184 -55.5q-47 0 -96 12.5t-89 34.5q-34 19 -61 28t-48 9q-26 0 -52.5 -23.5t-49.5 -66.5z" />
    <glyph glyph-name="hungarumlaut" unicode="&#x2dd;" 
d="M418 1107l401 369l145 -89l-448 -339zM808 1107l401 369l145 -89l-448 -339z" />
    <glyph glyph-name="pi" unicode="&#x3c0;" 
d="M144 704q74 98 145 142.5t151 41.5l71 2h662l-44 -115h-197q-22 -127 -33.5 -355.5t0.5 -298.5q17 -87 5 -117t-62 -30q-24 0 -43 24t-22 59q-13 140 -2.5 319t45.5 399h-187l-147 -734q-7 -35 -22 -51t-40 -16q-35 0 -48.5 25.5t-1.5 68.5l148 707l-125 -1
q-61 -2 -102 -23.5t-132 -99.5z" />
    <glyph glyph-name="endash" unicode="&#x2013;" 
d="M176 720h920l-46 -219h-920z" />
    <glyph glyph-name="emdash" unicode="&#x2014;" 
d="M-1 720h1278l-46 -219h-1278z" />
    <glyph glyph-name="quoteleft" unicode="&#x2018;" 
d="M678 632l-317 630h347l230 -630h-260z" />
    <glyph glyph-name="quoteright" unicode="&#x2019;" 
d="M314 541l335 630h347l-422 -630h-260z" />
    <glyph glyph-name="quotesinglbase" unicode="&#x201a;" 
d="M229 -239l335 629h347l-422 -629h-260z" />
    <glyph glyph-name="quotedblleft" unicode="&#x201c;" 
d="M476 632l-317 630h347l230 -630h-260zM953 632l-317 630h347l230 -630h-260z" />
    <glyph glyph-name="quotedblright" unicode="&#x201d;" 
d="M113 541l335 630h347l-422 -630h-260zM590 541l335 630h347l-422 -630h-260z" />
    <glyph glyph-name="quotedblbase" unicode="&#x201e;" 
d="M0 -239l218 630h347l-305 -630h-260zM477 -239l218 630h347l-305 -630h-260z" />
    <glyph glyph-name="dagger" unicode="&#x2020;" 
d="M239 880h267v0v291h217v-291v0h268v-217h-268v0v-757h-217v757v0h-267v217z" />
    <glyph glyph-name="daggerdbl" unicode="&#x2021;" 
d="M239 884h269v0v287h213v-287v0h270v-213h-270v0v-166v0h270v-213h-270v0v-386h-213v386v0h-269v213h269v0v166v0h-269v213z" />
    <glyph glyph-name="bullet" unicode="&#x2022;" 
d="M614 925q155 0 262 -107.5t107 -262.5t-107 -262t-262 -107t-262 107t-107 262t107 262.5t262 107.5z" />
    <glyph glyph-name="ellipsis" unicode="&#x2026;" 
d="M82 270q69 0 117 -42.5t48 -104.5q0 -61 -48 -103.5t-117 -42.5t-117 42.5t-48 103.5q0 62 48 104.5t117 42.5zM489 270q69 0 117 -42.5t48 -104.5q0 -61 -48 -103.5t-117 -42.5t-117 42.5t-48 103.5q0 62 48 104.5t117 42.5zM897 270q69 0 117 -42.5t48 -104.5
q0 -61 -48 -103.5t-117 -42.5t-117 42.5t-48 103.5q0 62 48 104.5t117 42.5z" />
    <glyph glyph-name="perthousand" unicode="&#x2030;" 
d="M94 700q-122 0 -189.5 64.5t-67.5 181.5q1 139 96.5 235t233.5 96q118 0 188 -66.5t70 -179.5q0 -136 -99 -234q-97 -97 -232 -97v0zM148 1109q-53 0 -95 -44t-42 -100q1 -46 26 -71.5t71 -25.5q56 0 99 43.5t43 99.5q0 46 -27 72t-75 26v0zM-30 528l991 391l52 -156
l-991 -391zM461 -61q-122 0 -190 64.5t-68 181.5q0 139 96 235t234 96q118 0 188 -66.5t70 -179.5q-1 -136 -99 -234q-96 -97 -231 -97v0zM513 348q-53 0 -94.5 -44t-41.5 -100q0 -46 25.5 -71.5t71.5 -25.5q56 0 99 43.5t43 99.5q0 46 -27.5 72t-75.5 26v0zM1073 -61
q-122 0 -190 64.5t-68 181.5q0 139 96 235t234 96q118 0 188 -66.5t70 -179.5q-1 -136 -99 -234q-96 -97 -231 -97v0zM1125 348q-53 0 -94.5 -44t-41.5 -100q0 -46 25.5 -71.5t71.5 -25.5q56 0 99 43.5t43 99.5q0 46 -27.5 72t-75.5 26v0z" />
    <glyph glyph-name="guilsinglleft" unicode="&#x2039;" 
d="M965 749l-400 -265v0l270 -267l-154 -169l-424 435v0l610 431z" />
    <glyph glyph-name="guilsinglright" unicode="&#x203a;" 
d="M209 217l400 265v0l-270 267l154 169l425 -435v0l-611 -431z" />
    <glyph glyph-name="fraction" unicode="&#x2044;" 
d="M1338 1206l-1320 -1384l-112 96l1319 1382z" />
    <glyph glyph-name="uni2074" unicode="&#x2074;" 
d="M638 666h-281l15 70l15 71l320 423h87h87l-90 -437v0h72l-27 -127h-72v0l-24 -116h-63h-63l24 116v0zM665 793v0l57 278v0v0l-190 -264l-10 -14v0h143z" />
    <glyph glyph-name="Euro" unicode="&#x20ac;" 
d="M1091 135q-138 -85 -253.5 -121.5t-245.5 -36.5q-209 0 -326 128q-93 105 -110 277h-196l87 181h109q5 55 16 104h-153l87 181h125q45 97 113 177q190 228 466 228q162 0 278 -68l8 -4v0l18 72h185v0l-94 -453v0h-185v0l34 163q-40 38 -108 60t-148 22q-182 0 -303 -159
q-15 -18 -26 -38h429l-87 -181h-418q-12 -49 -16 -104h384l-87 -181h-290q18 -69 58 -118q68 -79 192 -79q96 0 194 36t190 105z" />
    <glyph glyph-name="trademark" unicode="&#x2122;" 
d="M134 1388h393v-89h-152v-518h-89v518h-152v89zM590 781v607h160l112 -486l112 486h160v-607h-89v559l-129 -559h-108l-129 559v-559h-89z" />
    <glyph glyph-name="Omega" unicode="&#x2126;" 
d="M562 0h-373l-58 222l44 9q35 -81 63.5 -99t125.5 -21h56q-9 39 -36 92t-71 115q-119 169 -162 263.5t-43 184.5q0 191 144.5 308t380.5 117q240 0 383.5 -116t143.5 -309q0 -84 -47 -187t-158 -261q-48 -68 -72 -115.5t-34 -91.5h56q95 3 123.5 21t64.5 99l45 -9
l-59 -222h-374q48 167 81.5 238t141.5 236q69 105 94 165.5t25 122.5q0 140 -115.5 229t-297.5 89q-181 0 -298 -88t-117 -224q0 -52 31.5 -128.5t89.5 -165.5q86 -131 137 -240t85 -234z" />
    <glyph glyph-name="partialdiff" unicode="&#x2202;" 
d="M229 357q0 216 140 385t320 169q53 0 106 -16t90 -43q-11 173 -69 263.5t-159 90.5q-45 0 -84 -28t-75 -86q-6 -11 -15.5 -18t-17.5 -7q-22 0 -35 13t-13 36q2 76 78 138.5t166 62.5q156 0 245.5 -154.5t89.5 -422.5q0 -333 -130 -549.5t-330 -216.5q-135 0 -221 107
t-86 276zM340 345q0 -112 53.5 -186t134.5 -74q98 0 182 95t128 256q49 178 6.5 271t-171.5 93q-133 0 -233 -136.5t-100 -318.5z" />
    <glyph glyph-name="Delta" unicode="&#x2206;" 
d="M580 1166h70l453 -1096l-46 -70h-884l-46 70zM610 975l-349 -864h699z" />
    <glyph glyph-name="product" unicode="&#x220f;" 
d="M205 -305v1589h-174v111h1167v-111h-174v-1589h-111v1589h-597v-1589h-111z" />
    <glyph glyph-name="summation" unicode="&#x2211;" 
d="M62 -305v143l600 722l-584 685v150h1110v-111h-1000l631 -724l-641 -754h1010v0v-111h-1126z" />
    <glyph glyph-name="minus" unicode="&#x2212;" 
d="M176 564h892v-218h-892v218z" />
    <glyph glyph-name="uni2215" unicode="&#x2215;" 
d="M1338 1206l-1320 -1384l-112 96l1319 1382z" />
    <glyph glyph-name="uni2219" unicode="&#x2219;" 
d="M647 766q89 0 151 -52.5t62 -128.5t-62 -128.5t-151 -52.5t-151 52.5t-62 128.5t62 128.5t151 52.5z" />
    <glyph glyph-name="radical" unicode="&#x221a;" 
d="M230 777h212l129 -548l549 1516h269v-111h-153l-624 -1720h-106l-176 752h-100v111z" />
    <glyph glyph-name="infinity" unicode="&#x221e;" 
d="M55 434q0 157 84.5 265.5t207.5 108.5q85 0 149 -51t118 -162q57 111 121 162t146 51q123 0 207.5 -107t84.5 -262t-84.5 -262.5t-206.5 -107.5q-86 0 -147.5 49t-120.5 165q-60 -122 -118 -168t-152 -46q-121 0 -205 106t-84 259zM166 437q0 -113 46 -185t118 -72
q66 0 124 68t99 193q-47 138 -97.5 197t-121.5 59t-119.5 -75.5t-48.5 -184.5zM1062 437q0 109 -49 184.5t-120 75.5q-68 0 -116 -56.5t-102 -199.5q36 -125 94 -193t130 -68q75 0 119 69.5t44 187.5z" />
    <glyph glyph-name="integral" unicode="&#x222b;" 
d="M143 -69q32 -5 70 -8t61 -3q141 0 219 84.5t94 254.5q3 36 5.5 80t2.5 72v511q0 125 12 257.5t29 199.5q43 167 149.5 257t261.5 90q113 0 112 -7v-111q-32 3 -62 5t-41 2q-141 0 -225 -86t-111 -259q-6 -37 -10 -114.5t-4 -153.5v-401q0 -85 -1 -170t-2 -123
q-8 -235 -123 -367t-312 -132q-26 0 -62.5 3t-63.5 8z" />
    <glyph glyph-name="approxequal" unicode="&#x2248;" 
d="M42 257q74 74 160.5 119.5t153.5 45.5q45 0 126.5 -16t153.5 -40q69 -22 136.5 -37.5t95.5 -15.5q67 0 126.5 24t94.5 64l62 -97q-41 -41 -128 -71.5t-163 -30.5q-38 0 -84.5 6.5t-75.5 16.5q-122 40 -216 63t-132 23q-49 0 -121 -39.5t-128 -97.5zM42 495
q74 74 160.5 119.5t153.5 45.5q45 0 126.5 -16t153.5 -40q69 -22 136.5 -37.5t95.5 -15.5q67 0 126.5 24t94.5 64l62 -97q-41 -41 -128 -71.5t-163 -30.5q-38 0 -84.5 6.5t-75.5 16.5q-122 40 -216 63t-132 23q-49 0 -121 -39.5t-128 -97.5z" />
    <glyph glyph-name="notequal" unicode="&#x2260;" 
d="M175 -31l190 255h-190v111h274l160 208h-434v111h532l207 255h139l-206 -255h206v-111h-307l-158 -208h465v-111h-548l-191 -255h-139z" />
    <glyph glyph-name="lessequal" unicode="&#x2264;" 
d="M1023 810v-111l-705 -211l705 -211v-111l-816 250v144zM207 111h816v-111h-816v111z" />
    <glyph glyph-name="greaterequal" unicode="&#x2265;" 
d="M206 810l816 -250v-144l-816 -250v111l705 211l-705 211v111zM206 111h816v-111h-816v111z" />
    <glyph glyph-name="lozenge" unicode="&#x25ca;" 
d="M559 1423h110l404 -712l-404 -711h-110l-404 711zM614 1324l-349 -613l349 -615l349 615z" />
    <glyph glyph-name="uniEFED" unicode="&#xefed;" 
d="M704 1641h256l-58 -304h-256z" />
    <glyph glyph-name="uniEFEE" unicode="&#xefee;" 
d="M813 1294q-198 0 -318 92t-120 243h215q8 -76 72.5 -112.5t189.5 -36.5q121 0 206.5 39.5t117.5 109.5h215q-43 -157 -196 -246t-382 -89z" />
    <glyph glyph-name="uniEFEF" unicode="&#xefef;" 
d="M369 1518h862l-44 -213h-862z" />
    <glyph glyph-name="uniEFF0" unicode="&#xeff0;" 
d="M465 1342l401 369l145 -89l-448 -339zM855 1342l401 369l145 -89l-448 -339z" />
    <glyph glyph-name="uniEFF1" unicode="&#xeff1;" 
d="M405 -154q13 63 89.5 113.5t204.5 79.5h169q-137 -50 -193.5 -84t-64.5 -71q-7 -34 5 -54.5t39 -20.5q24 0 61 17t78 48l-60 -153q-48 -27 -98.5 -43.5t-84.5 -16.5q-77 0 -120 54q-42 53 -25 131z" />
    <glyph glyph-name="uniEFF2" unicode="&#xeff2;" 
d="M549 0l-12 -44v0q74 -8 109 -52q40 -51 20 -150q-19 -89 -78.5 -137.5t-150.5 -48.5q-47 0 -86 14.5t-77 45.5l68 86q36 -11 63 -17.5t39 -6.5q38 0 59 14.5t28 46.5q8 39 -6.5 61.5t-47.5 22.5q-25 0 -55.5 -3t-40.5 -7v0l50 175h118z" />
    <glyph glyph-name="uniEFF3" unicode="&#xeff3;" 
d="M785 1302q-86 0 -145 59t-59 145t59 145.5t145 59.5t145.5 -59.5t59.5 -145.5t-59.5 -145t-145.5 -59v0zM785 1429q33 0 55.5 22.5t22.5 54.5q0 33 -22.5 55.5t-55.5 22.5q-32 0 -54.5 -22.5t-22.5 -55.5q0 -32 22.5 -54.5t54.5 -22.5v0z" />
    <glyph glyph-name="uniEFF4" unicode="&#xeff4;" 
d="M611 1294l-252 295l146 91l259 -217v0l325 217l116 -90l-366 -296h-114h-114z" />
    <glyph glyph-name="uniEFF5" unicode="&#xeff5;" 
d="M331 1351q78 133 150.5 187t173.5 54q42 0 89 -12.5t106 -39.5q37 -17 63 -24.5t45 -7.5q30 0 55 20.5t55 69.5l180 -59q-76 -135 -152 -190.5t-184 -55.5q-47 0 -96 12.5t-89 34.5q-34 19 -61 28t-48 9q-26 0 -52.5 -23.5t-49.5 -66.5z" />
    <glyph glyph-name="uniEFF6" unicode="&#xeff6;" 
d="M514 1636h256l-62 -303h-256zM871 1636h256l-62 -303h-256z" />
    <glyph glyph-name="uniEFF7" unicode="&#xeff7;" 
d="M876 1680l253 -295l-147 -91l-258 217v0l-326 -217l-115 90l365 296h114h114z" />
    <glyph glyph-name="uniEFF8" unicode="&#xeff8;" 
d="M1054 1294l-651 173l78 218l612 -282z" />
    <glyph glyph-name="uniEFF9" unicode="&#xeff9;" 
d="M437 1403l612 282l78 -218l-651 -173z" />
    <glyph glyph-name="uniF001" unicode="&#xf001;" 
d="M452 712v0l-109 -527h180l-38 -185h-282h-282l38 185h169l109 527v0h-185l44 213h185v0l22 104q31 150 123.5 222t253.5 72l167 -18l-84 -204q-72 6 -95.5 7.5t-41.5 1.5q-53 0 -79 -31.5t-43 -116.5l-8 -37v0h184l-44 -213h-184zM729 185l115 555h-158l38 185h159h160
h54l-153 -740h195l-38 -185h-291h-292l38 185h173zM939 1386h248l-69 -332h-248z" />
    <glyph glyph-name="uniF002" unicode="&#xf002;" 
d="M453 712v0l-109 -527h181l-38 -185h-283h-283l38 185h170l109 527v0h-185l44 213h185v0l22 104q31 150 117 222t235 72q23 0 53.5 -3t138.5 -15l-84 -204q-76 6 -99.5 7.5t-37.5 1.5q-53 0 -79 -31.5t-43 -116.5l-8 -37v0h184l-44 -213h-184zM737 185l187 906h-77l39 185
h119h119h54l-226 -1091h200l-38 -185h-294h-294l38 185h173z" />
    <glyph glyph-name="uniFB01" unicode="&#xfb01;" 
d="M452 712v0l-109 -527h180l-38 -185h-282h-282l38 185h169l109 527v0h-185l44 213h185v0l22 104q31 150 123.5 222t253.5 72l167 -18l-84 -204q-72 6 -95.5 7.5t-41.5 1.5q-53 0 -79 -31.5t-43 -116.5l-8 -37v0h184l-44 -213h-184zM729 185l115 555h-158l38 185h159h160
h54l-153 -740h195l-38 -185h-291h-292l38 185h173zM939 1386h248l-69 -332h-248z" />
    <glyph glyph-name="glyph106" horiz-adv-x="0" 
d="M-1 1529q201 0 339.5 -138.5t138.5 -339.5q0 -200 -138.5 -338.5t-339.5 -138.5q-200 0 -338.5 138.5t-138.5 338.5q0 201 138.5 339.5t338.5 138.5v0zM412 1051q0 173 -120 293t-293 120t-292.5 -120t-119.5 -293t119.5 -292.5t292.5 -119.5t293 119.5t120 292.5v0z" />
    <glyph glyph-name="glyph107" horiz-adv-x="0" 
d="M215 866q-24 -34 -81 -57t-115 -23q-110 0 -186.5 79.5t-76.5 194.5q0 116 75.5 195.5t184.5 79.5q58 0 114.5 -22t79.5 -54l-58 -62q-19 26 -58.5 44.5t-77.5 18.5q-78 0 -131.5 -58t-53.5 -142t54.5 -141.5t133.5 -57.5q37 0 77 19.5t61 47.5z" />
    <glyph glyph-name="glyph113" horiz-adv-x="0" 
d="M-1 1524q201 0 339.5 -138.5t138.5 -339.5q0 -200 -138.5 -338.5t-339.5 -138.5q-200 0 -338.5 138.5t-138.5 338.5q0 201 138.5 339.5t338.5 138.5v0zM412 1046q0 173 -120 293t-293 120t-292.5 -120t-119.5 -293t119.5 -292.5t292.5 -119.5t293 119.5t120 292.5v0z" />
    <glyph glyph-name="glyph114" horiz-adv-x="0" 
d="M-160 807v506h187q62 0 104.5 -42.5t42.5 -104.5t-43 -105q-20 -20 -46 -31l89 -223h-91l-84 212v0h-84v-212h-75zM99 1166q0 30 -21 51t-51 21h-112v0v-72v-72h112q30 0 51 21t21 51z" />
    <glyph glyph-name="glyph130" 
d="M545 689l83 398v0l-151 -13l31 151l317 28v0v0l-117 -564h177l-29 -139h-258h-259l29 139h177z" />
    <glyph glyph-name="glyph131" 
d="M638 666h-281l15 70l15 71l320 423h87h87l-90 -437v0h72l-27 -127h-72v0l-24 -116h-63h-63l24 116v0zM665 793v0l57 278v0v0l-190 -264l-10 -14v0h143z" />
    <glyph glyph-name="glyph133" 
d="M545 689l83 398v0l-151 -13l31 151l317 28v0v0l-117 -564h177l-29 -139h-258h-259l29 139h177z" />
    <glyph glyph-name="glyph134" 
d="M934 1052q0 -69 -38 -125q-39 -58 -136 -128l-123 -90v0h224v0l-19 -79l-19 -80v0h-484l17 73l18 74l308 224q56 41 76 66q19 24 19 54q1 26 -20 39.5t-60 13.5q-47 0 -72 -26t-28 -75l-3 -13v0h-140l27 162v0q44 55 105 83t137 28q93 0 152 -55.5t59 -142.5v-3z" />
    <glyph glyph-name="glyph136" 
d="M736 1059q0 21 -17 33t-47 12q-26 0 -75 -22q-47 -21 -75 -45l-56 129q39 33 110.5 60t121.5 27q94 0 145 -40.5t51 -114.5v-3q1 -95 -74 -160l-15 -13v0q11 -4 19 -12q53 -42 53 -117q0 -112 -81 -189t-198 -77q-76 0 -133 18t-118 62l89 136q62 -40 90.5 -50t78.5 -10
q47 0 77.5 26t30.5 67q0 28 -21.5 42.5t-61.5 14.5h-75l26 156h55q42 0 71 21q29 20 29 49z" />
    <glyph glyph-name="glyph137" 
d="M638 666h-281l15 70l15 71l320 423h87h87l-90 -437v0h72l-27 -127h-72v0l-24 -116h-63h-63l24 116v0zM665 793v0l57 278v0v0l-190 -264l-10 -14v0h143z" />
    <glyph glyph-name="glyph140" horiz-adv-x="0" 
d="M306 0l-651 173l78 218l612 -282z" />
    <glyph glyph-name="glyph142" horiz-adv-x="0" 
d="M-365 109l612 282l78 -218l-651 -173z" />
    <glyph glyph-name="glyph144" horiz-adv-x="0" 
d="M154 386l253 -295l-146 -91l-259 217v0l-325 -217l-116 90l365 296h114h114z" />
    <glyph glyph-name="glyph146" horiz-adv-x="0" 
d="M-428 57q78 133 150.5 187t173.5 54q42 0 89 -12.5t106 -39.5q37 -17 63 -24.5t45 -7.5q30 0 55 20.5t55 69.5l180 -59q-76 -135 -151.5 -190.5t-183.5 -55.5q-47 0 -96.5 12.5t-89.5 34.5q-34 19 -61 28t-48 9q-26 0 -52.5 -23.5t-48.5 -66.5z" />
    <glyph glyph-name="glyph148" horiz-adv-x="0" 
d="M-236 342h256l-62 -303h-256zM121 342h256l-62 -303h-256z" />
    <glyph glyph-name="glyph150" horiz-adv-x="0" 
d="M0 8q-86 0 -145 59t-59 145t59 145.5t145 59.5t145.5 -59.5t59.5 -145.5t-59.5 -145t-145.5 -59v0zM0 135q33 0 55.5 22.5t22.5 54.5q0 33 -22.5 55.5t-55.5 22.5q-32 0 -54.5 -22.5t-22.5 -55.5q0 -32 22.5 -54.5t54.5 -22.5v0z" />
    <glyph glyph-name="glyph153" horiz-adv-x="0" 
d="M59 0l-12 -44v0q74 -8 109 -52q40 -51 20 -150q-19 -89 -78.5 -137.5t-150.5 -48.5q-47 0 -86 14.5t-77 45.5l68 86q36 -11 63 -17.5t39 -6.5q38 0 59 14.5t28 46.5q8 39 -6.5 61.5t-47.5 22.5q-25 0 -55.5 -3t-40.5 -7v0l50 175h118z" />
    <glyph glyph-name="glyph179" horiz-adv-x="0" 
d="M306 0l-651 173l78 218l612 -282z" />
    <glyph glyph-name="glyph181" horiz-adv-x="0" 
d="M-331 109l612 282l78 -218l-651 -173z" />
    <glyph glyph-name="glyph183" horiz-adv-x="0" 
d="M187 386l253 -295l-146 -91l-259 217v0l-325 -217l-116 90l365 296h114h114z" />
    <glyph glyph-name="glyph185" horiz-adv-x="0" 
d="M-428 57q78 133 150.5 187t173.5 54q42 0 89 -12.5t106 -39.5q37 -17 63 -24.5t45 -7.5q30 0 55 20.5t55 69.5l180 -59q-76 -135 -151.5 -190.5t-183.5 -55.5q-47 0 -96.5 12.5t-89.5 34.5q-34 19 -61 28t-48 9q-26 0 -52.5 -23.5t-48.5 -66.5z" />
    <glyph glyph-name="glyph187" horiz-adv-x="0" 
d="M-264 342h256l-62 -303h-256zM56 342h256l-62 -303h-256z" />
    <glyph glyph-name="glyph189" horiz-adv-x="0" 
d="M0 8q-86 0 -145 59t-59 145t59 145.5t145 59.5t145.5 -59.5t59.5 -145.5t-59.5 -145t-145.5 -59v0zM0 135q33 0 55.5 22.5t22.5 54.5q0 33 -22.5 55.5t-55.5 22.5q-32 0 -54.5 -22.5t-22.5 -55.5q0 -32 22.5 -54.5t54.5 -22.5v0z" />
    <glyph glyph-name="glyph192" horiz-adv-x="0" 
d="M59 0l-12 -44v0q74 -8 109 -52q40 -51 20 -150q-19 -89 -78.5 -137.5t-150.5 -48.5q-47 0 -86 14.5t-77 45.5l68 86q36 -11 63 -17.5t39 -6.5q38 0 59 14.5t28 46.5q8 39 -6.5 61.5t-47.5 22.5q-25 0 -55.5 -3t-40.5 -7v0l50 175h118z" />
    <glyph glyph-name="glyph219" horiz-adv-x="0" 
d="M-385 224h862l-44 -213h-862z" />
    <glyph glyph-name="glyph221" horiz-adv-x="0" 
d="M-378 256h862l-45 -213h-862z" />
    <glyph glyph-name="glyph223" horiz-adv-x="0" 
d="M0 0q-198 0 -318.5 92t-120.5 243h215q8 -76 72.5 -112.5t189.5 -36.5q121 0 206.5 39.5t117.5 109.5h215q-43 -157 -195.5 -246t-381.5 -89z" />
    <glyph glyph-name="glyph225" horiz-adv-x="0" 
d="M0 0q-198 0 -318.5 92t-120.5 243h215q8 -76 72.5 -112.5t189.5 -36.5q121 0 206.5 39.5t117.5 109.5h215q-43 -157 -195.5 -246t-381.5 -89z" />
    <glyph glyph-name="glyph227" horiz-adv-x="0" 
d="M-286 -154q13 63 89.5 113.5t204.5 79.5h169q-137 -50 -193.5 -84t-64.5 -71q-7 -34 5 -54.5t39 -20.5q24 0 61 17t78 48l-60 -153q-48 -27 -98.5 -43.5t-84.5 -16.5q-77 0 -120 54q-42 53 -25 131z" />
    <glyph glyph-name="glyph229" horiz-adv-x="0" 
d="M-222 -180q14 68 71.5 123.5t158.5 99.5h213q-98 -36 -172 -92.5t-84 -101.5q-5 -23 5.5 -37t32.5 -14q32 0 80.5 20.5t103.5 57.5l-71 -173q-49 -29 -101 -47q-50 -18 -86 -18q-79 0 -123 53t-28 129z" />
    <glyph glyph-name="glyph233" horiz-adv-x="0" 
d="M-114 0l-253 295l146 91l259 -217v0l325 217l116 -90l-365 -296h-114h-114z" />
    <glyph glyph-name="glyph235" horiz-adv-x="0" 
d="M-114 0l-253 295l146 91l259 -217v0l325 217l116 -90l-365 -296h-114h-114z" />
    <glyph glyph-name="glyph238" horiz-adv-x="0" 
d="M-253 -23q-176 0 -285.5 109.5t-109.5 285.5q0 242 159 409t390 167q169 1 276 -89v0l48 232h-261l39 185h211h211h54l-226 -1091h165l-38 -185h-190h-190v0l9 44v0q-118 -67 -262 -67zM-94 735q-141 0 -239 -95t-98 -232q0 -101 57 -159.5t155 -58.5q124 0 205.5 71
t108.5 202q25 120 -28 196t-161 76z" />
    <glyph glyph-name="glyph239" horiz-adv-x="0" 
d="M-12 0l295 539h315l-376 -539h-234z" />
    <glyph glyph-name="glyph245" horiz-adv-x="0" 
d="M-62 347h256l-58 -304h-256z" />
    <glyph glyph-name="glyph247" horiz-adv-x="0" 
d="M-62 347h256l-58 -304h-256z" />
    <glyph glyph-name="glyph255" horiz-adv-x="0" 
d="M-12 0l295 463h315l-376 -463h-234z" />
    <glyph glyph-name="glyph257" horiz-adv-x="0" 
d="M366 463l-295 -463h-315l376 463h234z" />
    <glyph glyph-name="glyph282" horiz-adv-x="0" 
d="M-442 48l401 369l145 -89l-450 -339zM-52 48l401 369l145 -89l-450 -339z" />
    <glyph glyph-name="glyph284" horiz-adv-x="0" 
d="M-300 59l401 369l145 -89l-449 -339zM90 59l401 369l145 -89l-449 -339z" />
    <glyph glyph-name="glyph300" horiz-adv-x="0" 
d="M59 0l-12 -44v0q74 -8 109 -52q40 -51 20 -150q-19 -89 -78.5 -137.5t-150.5 -48.5q-47 0 -86 14.5t-77 45.5l68 86q36 -11 63 -17.5t39 -6.5q38 0 59 14.5t28 46.5q8 39 -6.5 61.5t-47.5 22.5q-25 0 -55.5 -3t-40.5 -7v0l50 175h118z" />
    <glyph glyph-name="glyph302" horiz-adv-x="0" 
d="M59 0l-12 -44v0q74 -8 109 -52q40 -51 20 -150q-19 -89 -78.5 -137.5t-150.5 -48.5q-47 0 -86 14.5t-77 45.5l68 86q36 -11 63 -17.5t39 -6.5q38 0 59 14.5t28 46.5q8 39 -6.5 61.5t-47.5 22.5q-25 0 -55.5 -3t-40.5 -7v0l50 175h118z" />
    <glyph glyph-name="glyph350" horiz-adv-x="0" 
d="M0 1388h393v-89h-152v-518h-89v518h-152v89z" />
    <glyph glyph-name="glyph351" horiz-adv-x="0" 
d="M0 781v607h160l112 -486l112 486h160v-607h-89v559l-129 -559h-108l-129 559v-559h-89z" />
  </font>
</defs>
</svg>
