<?xml version="1.0" standalone="no"?>
<!DOCTYPE svg PUBLIC "-//W3C//DTD SVG 1.1//EN" "http://www.w3.org/Graphics/SVG/1.1/DTD/svg11.dtd" >
<svg xmlns="http://www.w3.org/2000/svg" xmlns:xlink="http://www.w3.org/1999/xlink" version="1.1">
<metadata>
Created by FontForge 20170731 at Sun Dec 14 06:53:00 2014
 By Aleksey,,,
(c) 2000-2014 Typodermic Fonts Inc. See attached license agreement. If agreement is missing visit typodermicfonts.com for more info.
</metadata>
<defs>
<font id="Unispace-Italic" horiz-adv-x="611" >
  <font-face 
    font-family="Unispace"
    font-weight="400"
    font-style="italic"
    font-stretch="normal"
    units-per-em="1000"
    panose-1="2 0 5 9 6 0 0 2 0 4"
    ascent="757"
    descent="-243"
    x-height="641"
    cap-height="808"
    bbox="-81 -243 749 957"
    underline-thickness="20"
    underline-position="-163"
    slope="-12"
    unicode-range="U+0017-25CA"
  />
<missing-glyph 
d="M51 -200q-82 0 -82 61q0 11 3 23l201 948q18 85 115 85h363q83 0 83 -62q0 -11 -3 -23l-201 -948q-18 -84 -116 -84h-363zM203 748l-14 -67h252q34 0 52.5 -27t18.5 -71q0 -41 -12 -77t-30.5 -62.5t-42.5 -41.5t-48 -15h-33q-39 0 -72.5 -18t-57.5 -46t-37.5 -62.5
t-13.5 -66.5q0 -26 15 -53h39q18 84 57.5 131.5t96.5 47.5h65q40 0 77 24.5t65 64t45 90.5t17 104q0 66 -30 105.5t-84 39.5h-325zM115 57l-25 -116h135l25 116h-135z" />
    <glyph glyph-name=".notdef" 
d="M51 -200q-82 0 -82 61q0 11 3 23l201 948q18 85 115 85h363q83 0 83 -62q0 -11 -3 -23l-201 -948q-18 -84 -116 -84h-363zM203 748l-14 -67h252q34 0 52.5 -27t18.5 -71q0 -41 -12 -77t-30.5 -62.5t-42.5 -41.5t-48 -15h-33q-39 0 -72.5 -18t-57.5 -46t-37.5 -62.5
t-13.5 -66.5q0 -26 15 -53h39q18 84 57.5 131.5t96.5 47.5h65q40 0 77 24.5t65 64t45 90.5t17 104q0 66 -30 105.5t-84 39.5h-325zM115 57l-25 -116h135l25 116h-135z" />
    <glyph glyph-name=".null" horiz-adv-x="0" 
 />
    <glyph glyph-name="nonmarkingreturn" 
 />
    <glyph glyph-name="uni0017" 
 />
    <glyph glyph-name="space" unicode=" " 
 />
    <glyph glyph-name="exclam" unicode="!" 
d="M514 808l-123 -582h-135l123 582h135zM378 120l-25 -120h-155l25 120h155z" />
    <glyph glyph-name="quotedbl" unicode="&#x22;" 
d="M416 858l-52 -245h-94l52 245h94zM593 858l-52 -245h-93l52 245h93z" />
    <glyph glyph-name="numbersign" unicode="#" 
d="M264 279h150l46 215h-150zM376 808l-51 -242h150l51 242h79l-51 -242h74l-15 -72h-74l-46 -215h74l-15 -70h-74l-44 -209h-79l44 209h-150l-44 -209h-78l44 209h-85l15 70h85l46 215h-85l15 72h85l51 242h78z" />
    <glyph glyph-name="dollar" unicode="$" 
d="M392 709l21 99h61l-21 -99h204l-14 -68h-204l-43 -200h145q36 0 55 -35t19 -88q0 -51 -13 -96t-34.5 -79t-49 -54t-56.5 -20h-145l-14 -69h-61l14 69h-222l14 67h222l45 209h-123q-42 0 -65 37.5t-23 92.5q0 52 14 95t37.5 74t55 48t66.5 17h115zM331 136h74q17 0 33 12
t29 31.5t20.5 44.5t7.5 51q0 29 -11 49.5t-34 20.5h-74zM309 641q-14 0 -28 -11t-25.5 -30t-19 -44.5t-7.5 -54.5q0 -26 9 -43t28 -17h65l47 200h-69z" />
    <glyph glyph-name="percent" unicode="%" 
d="M621 808l-439 -808h-74l440 808h73zM340 808q29 0 44 -13.5t15 -47.5q0 -24 -7 -55l-27 -123q-14 -65 -37 -91t-63 -26h-97q-30 0 -44.5 13t-14.5 45q0 12 2 26.5t6 32.5l27 123q14 65 35.5 90.5t63.5 25.5h97zM189 570q-3 -12 -4 -21t-1 -16q0 -25 17 -25h52
q15 0 23.5 14.5t16.5 46.5l27 123q4 19 4 35q0 26 -18 26h-52q-26 0 -39 -61zM554 356q29 0 43.5 -13.5t14.5 -46.5q0 -25 -7 -56l-27 -124q-14 -64 -37 -90t-62 -26h-98q-29 0 -43 13.5t-14 45.5q0 25 7 57l27 124q7 33 15.5 55t20 35.5t27 19.5t35.5 6h98zM402 118
q-3 -12 -4 -21.5t-1 -16.5q0 -25 18 -25h51q16 0 25 15t16 46l27 124q4 17 4 33q0 27 -20 27h-51q-27 0 -39 -60z" />
    <glyph glyph-name="ampersand" unicode="&#x26;" 
d="M319 409q-46 0 -80.5 -42.5t-52.5 -128.5q-8 -37 -8 -65q0 -48 18 -77t51 -29h102l72 342h-102zM562 808l-14 -67h-155q-26 0 -49.5 -14.5t-41.5 -39.5t-29 -57.5t-11 -68.5q0 -39 17 -62t52 -23h312l-15 -67h-120l-72 -342h120l-14 -67h-381q-54 0 -82 43.5t-28 112.5
q0 44 9 88.5t26 83t41.5 68.5t56.5 47q-24 21 -34.5 49t-10.5 63q0 51 16 96.5t43.5 80.5t63.5 55.5t76 20.5h224z" />
    <glyph glyph-name="quotesingle" unicode="'" 
d="M505 858l-52 -245h-95l52 245h95z" />
    <glyph glyph-name="parenleft" unicode="(" 
d="M643 956l-15 -68h-103q-23 0 -46.5 -13t-43.5 -33t-34.5 -44.5t-19.5 -48.5l-168 -789q-6 -29 -6 -50q0 -24 8 -40t27 -26t49.5 -14.5t74.5 -4.5h36l-14 -68h-69q-103 0 -163.5 40.5t-60.5 114.5q0 17 5 40l169 796q9 44 37 82t67 66t86.5 44t96.5 16h87z" />
    <glyph glyph-name="parenright" unicode=")" 
d="M401 956q42 0 79 -13t64 -36t42.5 -54t15.5 -68q0 -9 -1 -18.5t-3 -18.5l-169 -796q-10 -46 -37 -82t-66.5 -61t-90.5 -38.5t-108 -13.5h-68l14 68h37q54 0 90.5 7.5t60.5 23.5t37.5 41.5t21.5 62.5l168 789q2 6 2 12v13q0 21 -6.5 41.5t-18 36.5t-28 26t-36.5 10h-102
l15 68h87z" />
    <glyph glyph-name="asterisk" unicode="*" 
d="M395 681l51 127l104 -29l-70 -122l132 42l6 -108l-131 -25l79 -86l-96 -79l-65 97l-52 -127l-102 30l66 121l-129 -42l-6 111l130 24l-78 84l97 80z" />
    <glyph glyph-name="plus" unicode="+" 
d="M339 476l35 166h76l-35 -166h185l-15 -69h-185l-38 -179h-76l38 179h-187l15 69h187z" />
    <glyph glyph-name="comma" unicode="," 
d="M378 120l-110 -303h-109l64 303h155z" />
    <glyph glyph-name="hyphen" unicode="-" 
d="M617 409l-14 -70h-513l14 70h513z" />
    <glyph glyph-name="period" unicode="." 
d="M367 117l-24 -117h-135l24 117h135z" />
    <glyph glyph-name="slash" unicode="/" 
d="M709 808l-607 -808h-88l610 808h85z" />
    <glyph glyph-name="zero" unicode="0" 
d="M221 74q14 -7 34 -7h94q22 0 42 11.5t37 31t29.5 45.5t18.5 55l82 385q3 14 4 26t1 23v10.5t-1 10.5zM162 210q-2 -12 -3.5 -23t-1.5 -22q0 -6 0.5 -12t1.5 -12l345 591q-15 9 -35 9h-96q-22 0 -42.5 -11.5t-37.5 -31.5t-30 -46.5t-19 -56.5zM567 808q56 0 84.5 -41.5
t28.5 -105.5q0 -34 -7 -66l-82 -385q-9 -44 -28.5 -82.5t-45 -67t-57 -44.5t-64.5 -16h-241q-54 0 -83.5 40.5t-29.5 105.5q0 32 7 64l82 385q9 43 28 82t44.5 68t57 46t65.5 17h241z" />
    <glyph glyph-name="one" unicode="1" 
d="M520 808l-157 -741h190l-14 -67h-526l14 67h203l143 674h-131l14 67h264z" />
    <glyph glyph-name="two" unicode="2" 
d="M563 808q55 0 84.5 -41t29.5 -107q0 -55 -16.5 -105.5t-44.5 -89.5t-65.5 -62t-78.5 -23h-168q-42 0 -72 -39t-44 -105l-36 -169h409l-14 -67h-541l50 236q10 46 28.5 84.5t43.5 66.5t55.5 44t64.5 16h167q25 0 49 16t43 43t30 62t11 73q0 45 -18.5 72.5t-52.5 27.5h-231
l14 67h303z" />
    <glyph glyph-name="three" unicode="3" 
d="M552 808q54 0 84.5 -39t30.5 -104q0 -42 -9 -80.5t-25.5 -71t-39 -57.5t-48.5 -39q26 -17 37.5 -51t11.5 -76q0 -54 -17 -106t-45.5 -93t-66 -66t-77.5 -25h-378l14 67h306q24 0 48.5 17.5t44 47t31.5 67t12 78.5q0 43 -17.5 72t-52.5 29h-134l14 68h134q25 0 48 15.5
t40.5 42t28 62.5t10.5 77q0 44 -18.5 71t-52.5 27h-291l14 67h363z" />
    <glyph glyph-name="four" unicode="4" 
d="M135 216h247l113 529zM628 808l-126 -592h90l-13 -63h-90l-32 -153h-120l32 152h-334l19 90l395 566h179z" />
    <glyph glyph-name="five" unicode="5" 
d="M651 808l-14 -67h-350l-54 -256h230q77 0 112.5 -33t35.5 -104q0 -39 -11 -94q-25 -120 -84 -187t-144 -67h-369l14 67h301q63 0 99.5 47t56.5 144q11 52 11 81q0 46 -20.5 62t-58.5 16h-315l83 391h477z" />
    <glyph glyph-name="six" unicode="6" 
d="M613 808l-14 -67h-216q-45 0 -72 -29t-42 -101l-27 -128h279q50 0 75.5 -27.5t25.5 -76.5q0 -11 -1 -23.5t-4 -25.5l-31 -143q-12 -55 -28 -91t-39.5 -57.5t-57 -30t-80.5 -8.5h-211q-72 0 -104.5 21.5t-32.5 79.5q0 18 3 39t8 47l92 434q12 55 28 91.5t40 57.5t57 29.5
t80 8.5h272zM182 199q-9 -39 -9 -66q0 -36 16.5 -51t50.5 -15h100q83 0 107 108l32 150q5 25 5 40q0 51 -42 51h-214z" />
    <glyph glyph-name="seven" unicode="7" 
d="M725 808l-515 -808h-126l480 741h-409l14 67h556z" />
    <glyph glyph-name="eight" unicode="8" 
d="M179 0q-72 0 -103 33t-31 96q0 37 11 90q11 50 24.5 85t31.5 59t40 39t49 25q-29 15 -42 39.5t-13 59.5q0 32 9 73q20 96 66.5 152.5t128.5 56.5h193q63 0 90 -32.5t27 -91.5q0 -47 -9 -88t-25.5 -74t-40.5 -57.5t-54 -37.5q33 -14 51 -39.5t18 -74.5q0 -37 -12 -94
q-23 -106 -72.5 -162.5t-143.5 -56.5h-193zM462 224q9 42 9 72q0 45 -18.5 66t-53.5 21h-85q-48 0 -80.5 -37.5t-50.5 -121.5q-5 -20 -6.5 -37t-1.5 -31q0 -47 19 -68t53 -21h85q45 0 79 36.5t51 120.5zM404 741q-23 0 -42.5 -7t-36 -23.5t-29.5 -44.5t-22 -70
q-7 -34 -7 -61q0 -46 20 -65t55 -19h58q45 0 79 32.5t51 112.5q8 40 8 63q0 47 -21 64.5t-55 17.5h-58z" />
    <glyph glyph-name="nine" unicode="9" 
d="M553 812q72 0 104.5 -21t32.5 -80q0 -33 -11 -86l-93 -438q-12 -55 -28 -91t-40 -57.5t-57.5 -30t-79.5 -8.5h-334l14 67h279q45 0 70 28.5t41 101.5l21 98h-278q-51 0 -75.5 25t-24.5 73q0 12 2 25.5t5 28.5l37 178q12 55 27.5 91.5t39.5 57.5t57 29.5t79 8.5h212z
M241 485q-9 -39 -9 -66q0 -57 40 -57h214l53 248q5 20 6.5 36.5t1.5 29.5q0 36 -16 50.5t-48 14.5h-102q-87 0 -109 -109z" />
    <glyph glyph-name="colon" unicode=":" 
d="M378 120l-25 -120h-155l25 120h155zM453 472l-25 -118h-155l25 118h155z" />
    <glyph glyph-name="semicolon" unicode=";" 
d="M453 472l-25 -118h-155l25 118h155zM378 120l-110 -303h-109l64 303h155z" />
    <glyph glyph-name="less" unicode="&#x3c;" 
d="M609 727l-19 -91l-281 -202l-4 -17l195 -202l-19 -91l-295 296z" />
    <glyph glyph-name="equal" unicode="=" 
d="M563 376l-14 -69h-416l14 69h416zM609 590l-15 -71h-416l15 71h416z" />
    <glyph glyph-name="greater" unicode="&#x3e;" 
d="M544 420l-422 -296l19 91l281 202l4 17l-195 202l19 91z" />
    <glyph glyph-name="question" unicode="?" 
d="M554 808q54 0 84 -39.5t30 -105.5q0 -53 -17 -104t-45 -90.5t-65.5 -64t-77.5 -24.5h-65q-57 0 -96 -47.5t-57 -131.5h-39q-15 27 -15 53q0 32 13.5 66.5t37.5 62.5t57.5 46t72.5 18h33q24 0 47.5 15t42.5 41.5t31 62.5t12 77q0 44 -18.5 71t-52.5 27h-292l14 67h365z
M275 117l-24 -117h-135l24 117h135z" />
    <glyph glyph-name="at" unicode="@" 
d="M561 641q77 0 77 -85q0 -28 -7 -60l-88 -414h-254q-73 0 -73 92q0 59 12.5 104t34 75.5t49.5 46t58 15.5h97l-57 -269h71l73 347q6 27 6 45q0 36 -25 36h-281q-18 0 -30 -19.5t-21 -61.5l-114 -538q-3 -15 -3 -26q0 -29 24 -29h394l-14 -67h-388q-94 0 -94 80q0 9 1.5 19
t3.5 21l115 543q30 145 146 145h287zM350 359q-7 0 -18 -12t-21 -34.5t-17.5 -55t-7.5 -73.5q0 -38 19 -38h45l45 213h-45z" />
    <glyph glyph-name="A" unicode="A" 
d="M234 245h188l10 476h-6zM550 808v-808h-134l4 176h-214l-70 -176h-134l353 808h195z" />
    <glyph glyph-name="B" unicode="B" 
d="M150 67h189q25 0 49 17.5t43 46.5t31 67.5t12 80.5q0 43 -17 72t-52 29h-189zM231 449h178q25 0 48.5 14t42 39.5t30 61t11.5 79.5t-18 71t-52 27h-178zM557 808q54 0 84 -39.5t30 -105.5q0 -88 -33.5 -148.5t-83.5 -96.5q26 -21 38.5 -49.5t12.5 -67.5q0 -54 -17 -108
t-45.5 -97t-66 -69.5t-79.5 -26.5h-394l171 808h383z" />
    <glyph glyph-name="C" unicode="C" 
d="M693 808l-14 -67h-269q-22 0 -42 -11.5t-37 -31.5t-29.5 -46.5t-18.5 -56.5l-82 -385q-2 -12 -3.5 -23t-1.5 -22q0 -42 18 -70t53 -28h269l-14 -67h-340q-56 0 -85.5 40.5t-29.5 104.5q0 15 1.5 31.5t5.5 33.5l82 385q9 43 28 82t45 68t57.5 46t66.5 17h340z" />
    <glyph glyph-name="D" unicode="D" 
d="M157 67h176q21 0 40.5 11t36.5 30.5t30 45.5t19 56l82 385q2 12 3.5 24t1.5 23q0 43 -18 71t-52 28h-176zM562 808q55 0 84.5 -42t29.5 -106q0 -34 -7 -65l-82 -385q-9 -44 -28 -82t-45 -66.5t-57.5 -45t-65.5 -16.5h-381l171 808h381z" />
    <glyph glyph-name="E" unicode="E" 
d="M700 808l-14 -67h-372l-64 -302h270l-15 -68h-270l-64 -304h372l-14 -67h-508l171 808h508z" />
    <glyph glyph-name="F" unicode="F" 
d="M706 808l-14 -67h-382l-67 -314h281l-14 -68h-281l-76 -359h-137l171 808h519z" />
    <glyph glyph-name="G" unicode="G" 
d="M693 808l-14 -67h-281q-23 0 -43 -11.5t-37 -31.5t-29.5 -46.5t-18.5 -56.5l-82 -385q-3 -12 -4 -23t-1 -22q0 -43 18.5 -70.5t53.5 -27.5h172l64 304h-146l15 69h268l-93 -440h-366q-27 0 -48.5 11t-36.5 31t-23 47t-8 60q0 30 7 61l82 385q9 43 28 82t45 68t58 46
t67 17h353z" />
    <glyph glyph-name="H" unicode="H" 
d="M309 808l-78 -369h275l78 369h136l-171 -808h-136l78 371h-275l-78 -371h-135l171 808h135z" />
    <glyph glyph-name="I" unicode="I" 
d="M700 808l-14 -67h-186l-143 -674h186l-14 -67h-508l14 67h186l143 674h-186l14 67h508z" />
    <glyph glyph-name="J" unicode="J" 
d="M699 808l-127 -598q-9 -44 -28.5 -82.5t-45.5 -67t-57 -44.5t-64 -16h-354l14 67h281q22 0 42 11t37 30.5t30 45.5t19 56l113 531h-220l14 67h346z" />
    <glyph glyph-name="K" unicode="K" 
d="M316 808l-74 -351h8l325 351h138l-357 -380l186 -428h-151l-157 385l-8 -2l-81 -383h-135l171 808h135z" />
    <glyph glyph-name="L" unicode="L" 
d="M316 808l-157 -741h395l-14 -67h-530l171 808h135z" />
    <glyph glyph-name="M" unicode="M" 
d="M330 808l-31 -688l263 688h153l-171 -808h-104l131 618l-238 -618h-116l24 614l-130 -614h-104l171 808h152z" />
    <glyph glyph-name="N" unicode="N" 
d="M324 808l144 -663l141 663h106l-171 -808h-172l-137 593l-126 -593h-102l171 808h146z" />
    <glyph glyph-name="O" unicode="O" 
d="M171 210q-3 -11 -3.5 -22t-1.5 -22q0 -43 19.5 -71t54.5 -28h100q21 0 41 11t37 30.5t29.5 45.5t18.5 56l82 385q5 28 5 48q0 42 -17.5 70t-52.5 28h-100q-22 0 -42.5 -11.5t-38 -31.5t-30.5 -46.5t-19 -56.5zM569 808q54 0 83.5 -42t29.5 -106q0 -34 -7 -65l-82 -385
q-9 -44 -28.5 -82.5t-45.5 -67t-57 -44.5t-64 -16h-245q-55 0 -84.5 40.5t-29.5 104.5q0 33 7 65l82 385q9 43 28 82t45 68t57.5 46t65.5 17h245z" />
    <glyph glyph-name="P" unicode="P" 
d="M562 808q53 0 81 -45t28 -117q0 -66 -18 -124.5t-48 -102.5t-68 -70t-78 -26h-247l-68 -323h-134l171 808h381zM227 392h175q26 0 51.5 19.5t45 53t31.5 77.5t12 94q0 47 -16.5 76t-49.5 29h-175z" />
    <glyph glyph-name="Q" unicode="Q" 
d="M173 209q-3 -12 -4 -23t-1 -22q0 -43 19 -70t54 -27h98q21 0 41.5 11.5t37 31t29 45t18.5 54.5l82 386q5 28 5 48q0 42 -17.5 70t-52.5 28h-98q-22 0 -42.5 -11.5t-37.5 -31.5t-30 -46.5t-19 -56.5zM568 808q56 0 85 -42t29 -106q0 -15 -1.5 -31.5t-5.5 -33.5l-82 -386
q-9 -44 -28.5 -82t-46 -66.5t-57.5 -44.5t-64 -16h-49l32 -124h-107l-32 124h-88q-54 0 -83.5 40.5t-29.5 104.5q0 32 7 64l82 386q9 43 28 82t45 68t57 46t65 17h244z" />
    <glyph glyph-name="R" unicode="R" 
d="M558 808q28 0 50 -11.5t37 -32t23 -48.5t8 -60q0 -44 -10.5 -83t-29 -72t-43.5 -58.5t-55 -42.5q50 -29 50 -117q0 -21 -3 -45t-8 -51l-39 -187h-127l39 187q8 40 8 70q0 48 -17 78t-49 30h-174l-77 -365h-133l171 808h379zM233 434h175q25 0 49 17t43 45.5t30 65.5
t11 76q0 45 -18.5 74t-50.5 29h-174z" />
    <glyph glyph-name="S" unicode="S" 
d="M651 741h-272q-39 0 -71 -31t-49 -110q-4 -17 -5.5 -31.5t-1.5 -26.5q0 -45 22.5 -62.5t66.5 -17.5h100q87 0 125 -37t38 -106t-19.5 -127t-52.5 -101t-77 -67t-93 -24h-325l14 67h278q22 0 42.5 8t38 27t31.5 50.5t24 78.5q7 32 7 58q0 24 -8 39.5t-25.5 24t-44.5 11.5
t-64 3h-74q-69 0 -101 39t-32 105q0 17 1.5 35t6.5 38q23 112 77 168t130 56h327z" />
    <glyph glyph-name="T" unicode="T" 
d="M697 808l-14 -67h-180l-157 -741h-133l157 741h-187l14 67h500z" />
    <glyph glyph-name="U" unicode="U" 
d="M301 808l-127 -598q-6 -29 -6 -52q0 -43 19 -67t54 -24h96q42 0 77 38.5t49 104.5l127 598h128l-127 -598q-9 -44 -28.5 -82.5t-45.5 -67t-57.5 -44.5t-64.5 -16h-240q-54 0 -83.5 40.5t-29.5 105.5q0 32 7 64l127 598h125z" />
    <glyph glyph-name="V" unicode="V" 
d="M307 808l-19 -721h9l290 721h134l-354 -808h-194v808h134z" />
    <glyph glyph-name="W" unicode="W" 
d="M277 808l-100 -703h5l183 484h72l-24 -484h5l198 703h132l-265 -808h-148l17 353h-4l-132 -353h-147l74 808h134z" />
    <glyph glyph-name="X" unicode="X" 
d="M330 808l60 -310l200 310h125l-270 -395l98 -413h-142l-54 327l-201 -327h-138l284 413l-102 395h140z" />
    <glyph glyph-name="Y" unicode="Y" 
d="M310 808l52 -408l230 408h134l-327 -518l-61 -290h-135l62 292l-98 516h143z" />
    <glyph glyph-name="Z" unicode="Z" 
d="M711 808l-13 -63l-523 -678h379l-14 -67h-530l9 44l546 697h-398l14 67h530z" />
    <glyph glyph-name="bracketleft" unicode="[" 
d="M643 956l-15 -68h-218l-226 -1063h218l-14 -68h-329l255 1199h329z" />
    <glyph glyph-name="backslash" unicode="\" 
d="M269 808l269 -808h-88l-265 808h84z" />
    <glyph glyph-name="bracketright" unicode="]" 
d="M643 956l-255 -1199h-329l14 68h218l226 1063h-218l15 68h329z" />
    <glyph glyph-name="asciicircum" unicode="^" 
d="M671 451h-89l-152 237h-17l-253 -237h-90l375 357z" />
    <glyph glyph-name="underscore" unicode="_" 
d="M552 -147l-18 -86h-615l18 86h615z" />
    <glyph glyph-name="grave" unicode="`" 
d="M511 738l-14 -69l-233 26l20 95z" />
    <glyph glyph-name="a" unicode="a" 
d="M522 641q72 0 104 -21.5t32 -80.5q0 -32 -11 -87l-96 -452h-412q-57 0 -82.5 30t-25.5 85q0 33 9 75q20 96 62.5 144.5t117.5 48.5h277l17 81q6 30 6 51q0 32 -16 45.5t-52 13.5h-242l14 67h298zM305 317q-60 0 -91.5 -27.5t-45.5 -95.5q-7 -31 -7 -56q0 -37 18 -54
t59 -17h192l53 250h-178z" />
    <glyph glyph-name="b" unicode="b" 
d="M322 845l-43 -204h237q66 0 98 -26.5t32 -91.5q0 -41 -12 -98l-45 -210q-13 -61 -31.5 -102t-44 -66t-58.5 -36t-75 -11h-372l179 845h135zM157 67h181q20 0 36.5 4.5t30.5 19t25.5 40.5t20.5 70l51 237q5 20 6.5 37t1.5 31q0 36 -15.5 51.5t-48.5 15.5h-182z" />
    <glyph glyph-name="c" unicode="c" 
d="M667 641l-14 -67h-290q-48 0 -73.5 -29.5t-41.5 -103.5l-53 -251q-4 -17 -6 -30t-1 -24q0 -22 8 -35.5t26 -21t46.5 -10t69.5 -2.5h207l-14 -67h-349q-68 0 -101 24t-33 87q0 37 12 90l51 239q12 57 29 95.5t42 62t58 33.5t78 10h349z" />
    <glyph glyph-name="d" unicode="d" 
d="M544 641l43 204h134l-179 -845h-368q-66 0 -98.5 26.5t-32.5 92.5q0 39 12 96l45 210q13 60 30.5 101t42.5 66.5t58.5 37t78.5 11.5h234zM201 275q-18 -81 -18 -124q0 -27 6.5 -43.5t20.5 -25.5t35.5 -12t51.5 -3h125l107 506h-179q-46 0 -72 -30.5t-42 -104.5z" />
    <glyph glyph-name="e" unicode="e" 
d="M549 641q102 0 102 -112q0 -35 -9 -78q-39 -183 -173 -183h-272l-14 -69q-5 -21 -7.5 -37.5t-1.5 -30.5q0 -39 21 -51.5t68 -12.5h236l-14 -67h-316q-67 0 -100 24t-33 86q0 37 12 91l51 238q12 58 29.5 96.5t42.5 62t57.5 33.5t76.5 10h244zM212 335h208q23 0 40 5.5
t30 18.5t22.5 35.5t16.5 56.5q8 40 8 62q0 34 -15.5 47.5t-50.5 13.5h-122q-45 0 -72.5 -29.5t-42.5 -103.5z" />
    <glyph glyph-name="f" unicode="f" 
d="M310 641q10 48 26 86t40.5 64t59 40t81.5 14h198l-14 -68h-138q-26 0 -45 -10.5t-33.5 -29t-24 -43.5t-15.5 -53h154l-14 -67h-154l-122 -574h-135l122 574h-159l14 67h159z" />
    <glyph glyph-name="g" unicode="g" 
d="M680 641l-145 -682q-13 -59 -30.5 -98t-42 -62t-57.5 -32.5t-77 -9.5h-257l14 67h131q51 0 82.5 5.5t50.5 19.5t29.5 38t19.5 61l12 52h-237q-70 0 -102 24t-32 84q0 38 12 95l50 237q12 58 29.5 96.5t42.5 61.5t58.5 33t77.5 10h371zM182 194q-8 -38 -8 -61
q0 -36 16.5 -51t51.5 -15h182l108 507h-136q-38 0 -64.5 -5.5t-45 -19.5t-30.5 -37t-19 -58z" />
    <glyph glyph-name="h" unicode="h" 
d="M320 845l-43 -204h242q71 0 103 -21.5t32 -80.5q0 -33 -11 -86l-96 -453h-134l93 441q5 20 6.5 36.5t1.5 30.5q0 36 -15.5 51.5t-47.5 15.5h-188l-122 -575h-135l179 845h135z" />
    <glyph glyph-name="i" unicode="i" 
d="M479 641l-122 -574h192l-14 -67h-519l14 67h192l107 506h-192l15 68h327zM532 845l-24 -112h-155l24 112h155z" />
    <glyph glyph-name="j" unicode="j" 
d="M603 641l-148 -697q-12 -55 -28.5 -91t-40.5 -57.5t-57 -30t-78 -8.5h-219l14 67h121q39 0 64.5 3.5t42.5 17.5t28 42t22 78l130 609h-248l14 67h383zM656 845l-24 -112h-155l24 112h155z" />
    <glyph glyph-name="k" unicode="k" 
d="M320 845l-97 -455h9l294 251h136l-332 -289l217 -352h-158l-179 296h-7l-62 -296h-135l179 845h135z" />
    <glyph glyph-name="l" unicode="l" 
d="M518 845l-165 -778h196l-14 -67h-520l14 67h190l151 710h-190l14 68h324z" />
    <glyph glyph-name="m" unicode="m" 
d="M523 641q71 0 103 -21.5t32 -79.5q0 -33 -11 -86l-96 -454h-132l93 440q4 20 6 36t2 30q0 37 -16 52.5t-49 15.5h-35l-122 -574h-78l122 574h-88l-122 -574h-132l136 641h387z" />
    <glyph glyph-name="n" unicode="n" 
d="M517 641q72 0 103.5 -22t31.5 -79q0 -33 -11 -86l-96 -454h-132l93 440q9 40 9 68q0 37 -16.5 51.5t-48.5 14.5h-188l-122 -574h-133l136 641h374z" />
    <glyph glyph-name="o" unicode="o" 
d="M174 212q-5 -24 -8 -43t-3 -34q0 -41 21.5 -54.5t67.5 -13.5h76q30 0 52 5t37.5 19.5t26.5 40t20 67.5l51 242q9 40 9 67q0 35 -16 50.5t-49 15.5h-122q-46 0 -73 -30t-42 -103zM529 641q67 0 99.5 -24t32.5 -86q0 -19 -2.5 -41.5t-8.5 -49.5l-51 -239
q-12 -59 -29.5 -97.5t-42 -61.5t-57.5 -32.5t-77 -9.5h-234q-68 0 -101 23.5t-33 85.5q0 36 12 92l51 239q12 58 29.5 97t42 62t57.5 32.5t78 9.5h234z" />
    <glyph glyph-name="p" unicode="p" 
d="M522 641q68 0 101 -25.5t33 -88.5q0 -34 -11 -87l-51 -239q-12 -59 -29.5 -97.5t-42.5 -61.5t-58 -32.5t-78 -9.5h-252l-52 -243h-133l187 884h386zM148 67h196q47 0 72.5 28.5t40.5 98.5l55 261q3 16 5 29.5t2 24.5q0 40 -28.5 52.5t-98.5 12.5h-136z" />
    <glyph glyph-name="q" unicode="q" 
d="M490 -243h-134l52 243h-234q-70 0 -102 23.5t-32 83.5q0 38 12 94l51 239q12 58 29.5 96.5t42.5 61.5t58 33t77 10h368zM396 574q-38 0 -64.5 -5.5t-44.5 -19.5t-29.5 -37t-18.5 -57l-55 -261q-4 -19 -6 -34t-2 -28q0 -36 16.5 -50.5t50.5 -14.5h179l108 507h-134z" />
    <glyph glyph-name="r" unicode="r" 
d="M659 641l-14 -67h-239q-38 0 -62 -4t-40.5 -18.5t-27.5 -43t-21 -76.5l-91 -432h-136l95 447q41 194 273 194h263z" />
    <glyph glyph-name="s" unicode="s" 
d="M629 574h-334q-14 0 -29 -11.5t-27 -30t-20 -43t-8 -51.5q0 -29 11 -47t30 -18h240q30 0 50.5 -9.5t34 -26.5t19.5 -39.5t6 -47.5q0 -28 -6 -56q-20 -90 -63 -142t-112 -52h-401l14 67h357q18 0 35 13.5t30 34.5t20.5 47.5t7.5 52.5q0 27 -11 44.5t-38 17.5h-245
q-26 0 -45 10.5t-32 28t-19 40.5t-6 49q0 11 1.5 23t3.5 24q19 91 67 140t129 49h354z" />
    <glyph glyph-name="t" unicode="t" 
d="M485 808l-35 -167h221l-14 -67h-221l-84 -393q-4 -19 -6.5 -34t-2.5 -27q0 -16 5.5 -26.5t18 -16.5t34 -8t53.5 -2l-14 -67h-96q-39 0 -66.5 3.5t-44 13t-24 25t-7.5 39.5q0 16 3 35t8 43l89 415h-165l14 67h165l35 167h134z" />
    <glyph glyph-name="u" unicode="u" 
d="M274 641l-94 -442q-9 -39 -9 -65q0 -36 16.5 -51.5t50.5 -15.5h187l122 574h136l-136 -641h-378q-72 0 -103.5 21t-31.5 79q0 18 2.5 39.5t8.5 47.5l97 454h132z" />
    <glyph glyph-name="v" unicode="v" 
d="M263 641l26 -570l272 570h136l-327 -641h-188l-55 641h136z" />
    <glyph glyph-name="w" unicode="w" 
d="M251 641l-62 -570l150 399h72l-21 -399l182 570h136l-237 -641h-152l20 304l-106 -304h-152l34 641h136z" />
    <glyph glyph-name="x" unicode="x" 
d="M269 641l92 -245l204 245h122l-274 -312l137 -329h-132l-91 248l-196 -248h-129l272 324l-137 317h132z" />
    <glyph glyph-name="y" unicode="y" 
d="M269 641l57 -486l272 486h106l-519 -884h-110l153 243l-108 641h149z" />
    <glyph glyph-name="z" unicode="z" 
d="M662 641l-13 -59l-448 -515h339l-14 -67h-501l8 40l472 534h-358l14 67h501z" />
    <glyph glyph-name="braceleft" unicode="{" 
d="M674 956l-15 -68h-55q-23 0 -46.5 -13t-43.5 -33t-34 -44.5t-19 -48.5l-52 -241q-5 -23 -18.5 -44.5t-33 -41t-43 -36.5t-48.5 -30q33 -25 58 -56t25 -69q0 -5 -0.5 -9.5t-1.5 -9.5l-54 -252q-5 -21 -7.5 -37.5t-2.5 -30.5q0 -18 5.5 -31t18.5 -21t35 -11.5t54 -3.5h37
l-14 -68h-21q-102 0 -163 40.5t-61 114.5q0 17 5 40l56 260q3 15 3 29q0 72 -82 115q60 29 95 66t46 86l51 240q9 44 37 82t67 66t86.5 44t96.5 16h39z" />
    <glyph glyph-name="bar" unicode="|" 
d="M527 956l-255 -1199h-97l255 1199h97z" />
    <glyph glyph-name="braceright" unicode="}" 
d="M321 956q43 0 80 -13t64 -35.5t42 -53.5t15 -68q0 -21 -4 -38l-51 -240q-3 -17 -3 -32q0 -73 82 -120q-62 -25 -96.5 -61.5t-44.5 -82.5l-56 -260q-10 -46 -36.5 -82t-66 -61t-90.5 -38.5t-109 -13.5h-18l14 68h34q42 0 69.5 7t45.5 22.5t29 41.5t19 64l54 252
q4 22 17.5 42t32 38t42 34t48.5 30q-34 23 -57 57t-23 73v10.5t2 11.5l52 241q2 6 2 12.5v13.5q0 21 -6 41.5t-17.5 36t-28 25.5t-36.5 10h-53l15 68h37z" />
    <glyph glyph-name="asciitilde" unicode="~" 
d="M325 492q25 0 39.5 -13.5t26 -30t24 -30t33.5 -13.5q25 0 44.5 24t27.5 63h78q-6 -29 -19.5 -57t-32 -50.5t-40 -36.5t-43.5 -14h-55q-32 0 -45.5 15t-23 33t-21 33t-38.5 15q-15 0 -27.5 -9t-22 -23t-16 -31t-10.5 -34h-78q7 31 18.5 60t27.5 51t35.5 35t42.5 13h75z
" />
    <glyph glyph-name="nonbreakingspace" unicode="&#xa0;" 
 />
    <glyph glyph-name="exclamdown" unicode="&#xa1;" 
d="M156 -243l124 582h135l-124 -582h-135zM292 445l25 118h155l-25 -118h-155z" />
    <glyph glyph-name="cent" unicode="&#xa2;" 
d="M500 808l-24 -116h130l-11 -48h-130l-101 -479h130l-11 -48h-130l-24 -117h-47l24 117h-75q-48 0 -71.5 16t-23.5 61q0 27 9 66l61 289q9 42 21.5 69.5t30.5 44t41.5 23t54.5 6.5h75l24 116h47zM240 252q-6 -27 -6 -44q0 -28 18.5 -35.5t64.5 -7.5l101 479h-34
q-61 0 -80 -93z" />
    <glyph glyph-name="sterling" unicode="&#xa3;" 
d="M685 808l-14 -67h-175q-21 0 -41.5 -11t-37 -30t-29.5 -45t-19 -56l-31 -145h164l-15 -70h-164l-67 -315h286l-14 -69h-413l81 384h-92l15 70h92l31 145q9 45 28.5 83t45.5 66t57 44t64 16h248z" />
    <glyph glyph-name="yen" unicode="&#xa5;" 
d="M309 808l48 -419l227 419h142l-327 -518l-4 -18h126l-10 -47h-126l-21 -98h126l-9 -46h-126l-17 -81h-135l17 81h-113l9 46h113l21 98h-113l10 47h113l5 20l-98 516h142z" />
    <glyph glyph-name="brokenbar" unicode="&#xa6;" 
d="M366 183l-85 -403h-104l85 403h104zM531 956l-86 -402h-104l86 402h104z" />
    <glyph glyph-name="section" unicode="&#xa7;" 
d="M647 808l-14 -67h-273q-15 0 -29.5 -11.5t-26 -30.5t-19 -43.5t-7.5 -51.5q0 -29 10 -46.5t29 -17.5h194q49 0 71.5 -35.5t22.5 -89.5q0 -32 -6.5 -63.5t-18.5 -59.5t-29.5 -51.5t-39.5 -39.5q16 -16 23 -39t7 -51q0 -49 -13 -92.5t-35.5 -76t-53 -51.5t-65.5 -19h-351
l15 67h295q16 0 33 12t30 31.5t21.5 45t8.5 51.5q0 29 -12.5 49t-36.5 20h-184q-25 0 -44 10t-31.5 28t-19 42.5t-6.5 52.5q0 66 27 118.5t73 82.5q-20 18 -28.5 42t-8.5 53q0 51 14.5 93.5t39 73t57.5 47.5t70 17h311zM295 443q-14 0 -28.5 -11t-26 -30t-18.5 -43.5
t-7 -51.5q0 -28 10.5 -45t29.5 -17h171q13 8 24.5 22t20 32t13.5 37.5t5 38.5q0 29 -12.5 48.5t-36.5 19.5h-145z" />
    <glyph glyph-name="dieresis" unicode="&#xa8;" 
d="M375 790l-21 -102h-135l21 102h135zM645 790l-21 -102h-135l21 102h135z" />
    <glyph glyph-name="copyright" unicode="&#xa9;" 
d="M508 630l-7 -37h-88q-30 0 -51.5 -25t-29.5 -59l-47 -218q-3 -12 -3 -24q0 -25 12.5 -41.5t36.5 -16.5h88l-8 -38h-134q-35 0 -55.5 23t-20.5 62q0 19 4 35l47 218q6 26 18 48.5t28 38.5t35.5 25t40.5 9h134zM438 769q-64 0 -109 -13.5t-78.5 -53t-58.5 -111t-50 -187.5
q-15 -72 -23 -125t-8 -93q0 -45 10.5 -73.5t31.5 -44.5t53.5 -22t76.5 -6q64 0 109 13t78 52t58.5 110.5t50.5 188.5q15 72 23 126t8 94q0 44 -10 72.5t-31 44.5t-53.5 22t-77.5 6zM451 831q62 0 104.5 -7.5t69 -25t38 -47.5t11.5 -75q0 -48 -11.5 -114.5t-30.5 -157.5
q-27 -129 -51.5 -212t-61.5 -131t-95.5 -66t-153.5 -18q-62 0 -104.5 7.5t-69 25.5t-38 48t-11.5 76q0 48 11 114t30 156q27 129 52 212t62.5 130.5t96 66t152.5 18.5z" />
    <glyph glyph-name="ordfeminine" unicode="&#xaa;" 
d="M517 809q48 0 71 -16t23 -59q0 -13 -2 -28t-6 -34l-65 -307h-270q-36 0 -56 26.5t-20 69.5q0 36 11.5 68.5t30 57.5t43 40t50.5 15h163l8 38q4 17 4 31q0 17 -8 22.5t-25 5.5h-166l14 70h200zM389 575q-51 0 -71.5 -26t-20.5 -83q0 -32 19 -32h129l30 141h-86z" />
    <glyph glyph-name="guillemotleft" unicode="&#xab;" 
d="M611 566l-20 -95l-166 -106l121 -106l-21 -95l-163 173l13 60zM381 566l-20 -95l-166 -106l121 -106l-21 -95l-164 173l13 60z" />
    <glyph glyph-name="logicalnot" unicode="&#xac;" 
d="M550 241h-68l35 166h-380l15 69h448z" />
    <glyph glyph-name="softhyphen" unicode="&#xad;" 
d="M60 339zM587 409l-14 -70h-513l14 70h513z" />
    <glyph glyph-name="registered" unicode="&#xae;" 
d="M479 708q27 0 42.5 -16.5t15.5 -43.5q0 -33 -16.5 -58.5t-44.5 -39.5q27 -11 27 -49q0 -7 -1 -15.5t-3 -17.5l-15 -71h-61l15 71q2 9 3 16.5t1 14.5q0 39 -34 39h-81l-30 -141h-62l66 311h178zM332 564h82q26 0 43.5 20.5t17.5 60.5q0 37 -36 37h-82zM441 785
q-50 0 -97.5 -24.5t-85 -64.5t-60.5 -91t-23 -103q0 -38 12 -71.5t34 -58.5t52.5 -39.5t68.5 -14.5q49 0 97 23.5t86 63t62 91t24 106.5q0 39 -12.5 72t-35 58t-54 39t-68.5 14zM451 831q46 0 84.5 -16t66 -45t42.5 -68.5t15 -85.5q0 -69 -28 -130t-74 -107.5t-104.5 -73.5
t-118.5 -27q-46 0 -84.5 16t-66 44.5t-42.5 67.5t-15 86q0 69 29 130.5t75 108t104 73.5t117 27z" />
    <glyph glyph-name="macron" unicode="&#xaf;" 
d="M665 790l-19 -91h-445l19 91h445z" />
    <glyph glyph-name="degree" unicode="&#xb0;" 
d="M529 845q48 0 70.5 -19t22.5 -64q0 -27 -7 -61l-33 -154q-17 -80 -51.5 -113t-95.5 -33h-149q-48 0 -70 18.5t-22 62.5q0 14 1.5 30t6.5 35l33 154q17 80 50 112t95 32h149zM284 537q-6 -26 -6 -43q0 -37 31 -37h127q23 0 36.5 19t21.5 59l38 178q2 12 3.5 21.5t1.5 17.5
q0 35 -31 35h-127q-23 0 -36.5 -17.5t-21.5 -56.5z" />
    <glyph glyph-name="plusminus" unicode="&#xb1;" 
d="M21 0zM309 476l35 166h76l-35 -166h185l-15 -69h-185l-38 -179h-76l38 179h-187l15 69h187zM484 69l-15 -69h-448l15 69h448z" />
    <glyph glyph-name="twosuperior" unicode="&#xb2;" 
d="M497 810q28 0 41.5 -20.5t13.5 -52.5q0 -39 -15.5 -70.5t-49.5 -56.5q26 -26 26 -63q0 -28 -9.5 -52t-24 -41.5t-32 -27.5t-34.5 -10h-174l10 48h142q19 0 34.5 24.5t15.5 66.5q0 14 -5.5 23t-18.5 9h-69l11 49h69q20 0 35 26t15 66q0 31 -24 31h-142l11 51h174z" />
    <glyph glyph-name="threesuperior" unicode="&#xb3;" 
d="M499 808q26 0 40 -21t14 -53q0 -30 -8.5 -56t-22 -44.5t-31.5 -29.5t-37 -11h-77q-30 0 -42 -58l-15 -71h182l-10 -48h-256l25 119q10 48 35.5 76.5t60.5 28.5h73q9 0 18 7t16 18.5t11 26t4 29.5q0 17 -6 27.5t-18 10.5h-109l10 49h143z" />
    <glyph glyph-name="acute" unicode="&#xb4;" 
d="M602 790l-20 -95l-243 -26l14 69z" />
    <glyph glyph-name="paragraph" unicode="&#xb6;" 
d="M714 808l-223 -1051h-123l205 966h-108l-205 -966h-109l120 566h-42q-54 0 -82 41.5t-28 110.5q0 66 18.5 126.5t49 106t68.5 73t77 27.5h382z" />
    <glyph glyph-name="periodcentered" unicode="&#xb7;" 
d="M248 330zM407 447l-24 -117h-135l24 117h135z" />
    <glyph glyph-name="cedilla" unicode="&#xb8;" 
d="M326 -50l-85 -193h-79l41 193h123z" />
    <glyph glyph-name="onesuperior" unicode="&#xb9;" 
d="M485 810l-74 -346h58l-10 -47h-197l10 47h66l63 297h-58l11 49h131z" />
    <glyph glyph-name="ordmasculine" unicode="&#xba;" 
d="M521 809q48 0 70.5 -19t22.5 -65q0 -27 -7 -61l-33 -153q-9 -41 -21.5 -69.5t-30.5 -45.5t-41.5 -24.5t-53.5 -7.5h-149q-48 0 -70 18t-22 63q0 14 1.5 30t6.5 36l33 153q9 40 21 68t29.5 45t40.5 24.5t54 7.5h149zM304 513q-6 -27 -6 -44q0 -36 31 -36h78q23 0 35.5 18
t21.5 60l33 153q2 12 3.5 22.5t1.5 18.5q0 35 -30 35h-78q-23 0 -36.5 -18.5t-21.5 -57.5z" />
    <glyph glyph-name="guillemotright" unicode="&#xbb;" 
d="M344 394l-13 -60l-237 -170l21 95l165 105l-120 107l20 95zM574 394l-13 -60l-236 -170l21 95l165 105l-120 107l20 95z" />
    <glyph glyph-name="onequarter" unicode="&#xbc;" 
d="M722 808l-639 -808h-76l642 808h73zM304 810l-74 -346h58l-10 -47h-197l10 47h65l63 297h-57l11 49h131zM602 392l-59 -276h41l-9 -45h-41l-15 -71h-69l14 69h-146l11 53l183 270h90zM382 116h99l43 203z" />
    <glyph glyph-name="onehalf" unicode="&#xbd;" 
d="M721 808l-640 -808h-75l641 808h74zM302 810l-74 -346h59l-10 -47h-198l10 47h66l63 297h-57l11 49h130zM568 392q26 0 40 -20t14 -53q0 -30 -8.5 -56t-22 -45.5t-32 -30.5t-37.5 -11h-76q-29 0 -41 -57l-15 -71h181l-10 -48h-254l25 119q10 48 34.5 76.5t59.5 28.5h73
q9 0 18.5 6.5t16.5 18t11.5 25.5t4.5 29q0 17 -7 28t-19 11h-109l11 50h142z" />
    <glyph glyph-name="threequarters" unicode="&#xbe;" 
d="M715 808l-639 -808h-76l642 808h73zM595 392l-59 -276h40l-9 -45h-40l-15 -71h-69l14 69h-146l11 53l182 270h91zM374 116h100l43 203zM336 810q27 0 40.5 -20.5t13.5 -52.5q0 -38 -15.5 -70t-49.5 -57q26 -26 26 -63q0 -28 -9 -52t-23.5 -41.5t-32 -27.5t-34.5 -10h-162
l10 48h130q18 0 33.5 24t15.5 66q0 15 -5.5 24t-17.5 9h-69l11 49h69q20 0 34.5 26t14.5 65q0 32 -23 32h-130l11 51h162z" />
    <glyph glyph-name="questiondown" unicode="&#xbf;" 
d="M117 -243q-54 0 -84 39.5t-30 105.5q0 53 17 104t45 90.5t65 64t78 24.5h65q57 0 96 47.5t57 131.5h39q14 -27 14 -53q0 -32 -13 -66.5t-37 -62.5t-57 -46t-72 -18h-33q-24 0 -48 -15t-43.5 -41.5t-31.5 -62.5t-12 -77q0 -45 19 -71.5t53 -26.5h292l-14 -67h-365z
M396 448l24 116h135l-24 -116h-135z" />
    <glyph glyph-name="Agrave" unicode="&#xc0;" 
d="M0 0zM204 245h188l10 476h-6zM520 808v-808h-134l4 176h-214l-70 -176h-134l353 808h195zM516 905l-14 -69l-233 26l20 95z" />
    <glyph glyph-name="Aacute" unicode="&#xc1;" 
d="M0 0zM204 245h188l10 476h-6zM520 808v-808h-134l4 176h-214l-70 -176h-134l353 808h195zM607 957l-20 -95l-243 -26l14 69z" />
    <glyph glyph-name="Acircumflex" unicode="&#xc2;" 
d="M0 0zM204 245h188l10 476h-6zM520 808v-808h-134l4 176h-214l-70 -176h-134l353 808h195zM524 957l96 -118h-117l-65 78l-96 -78h-117l147 118h152z" />
    <glyph glyph-name="Atilde" unicode="&#xc3;" 
d="M0 0zM204 245h188l10 476h-6zM520 808v-808h-134l4 176h-214l-70 -176h-134l353 808h195zM208 856q11 48 49.5 74.5t107.5 26.5q32 0 51 -7t34.5 -15t31 -15t39.5 -7q23 0 38 7t21 37h85q-8 -40 -46 -70t-108 -30q-36 0 -55.5 8t-34 17t-28.5 17t-38 8q-30 0 -43 -11.5
t-19 -39.5h-85z" />
    <glyph glyph-name="Adieresis" unicode="&#xc4;" 
d="M0 0zM204 245h188l10 476h-6zM520 808v-808h-134l4 176h-214l-70 -176h-134l353 808h195zM380 957l-21 -102h-135l21 102h135zM650 957l-21 -102h-135l21 102h135z" />
    <glyph glyph-name="Aring" unicode="&#xc5;" 
d="M525 957q32 0 47.5 -9t15.5 -31q0 -9 -3 -21l-12 -57q-9 -40 -34 -53l11 -786h-134l4 176h-214l-70 -176h-134l344 786q-15 9 -15 30q0 9 3 23l12 57q7 34 26.5 47.5t58.5 13.5h94zM234 245h188l10 476h-6zM402 843q-1 -3 -1 -9q0 -21 19 -26h53q26 6 33 35l11 53
q1 5 1 12q0 19 -22 19h-49q-28 0 -34 -31z" />
    <glyph glyph-name="AE" unicode="&#xc6;" 
d="M203 329h117l89 416h-73zM728 808l-13 -63h-202l-89 -416h125l-14 -67h-125l-40 -190h202l-14 -67h-306l54 257h-126l-86 -262h-101l270 808h465z" />
    <glyph glyph-name="Ccedilla" unicode="&#xc7;" 
d="M37 0zM663 808l-14 -67h-269q-22 0 -42 -11.5t-37 -31.5t-29.5 -46.5t-18.5 -56.5l-82 -385q-2 -12 -3.5 -23t-1.5 -22q0 -42 18 -70t53 -28h269l-14 -67h-340q-56 0 -85.5 40.5t-29.5 104.5q0 15 1.5 31.5t5.5 33.5l82 385q9 43 28 82t45 68t57.5 46t66.5 17h340z
M296 -50l-85 -193h-79l41 193h123z" />
    <glyph glyph-name="Egrave" unicode="&#xc8;" 
d="M0 0zM670 808l-14 -67h-372l-64 -302h270l-15 -68h-270l-64 -304h372l-14 -67h-508l171 808h508zM516 905l-14 -69l-233 26l20 95z" />
    <glyph glyph-name="Eacute" unicode="&#xc9;" 
d="M0 0zM670 808l-14 -67h-372l-64 -302h270l-15 -68h-270l-64 -304h372l-14 -67h-508l171 808h508zM607 957l-20 -95l-243 -26l14 69z" />
    <glyph glyph-name="Ecircumflex" unicode="&#xca;" 
d="M0 0zM670 808l-14 -67h-372l-64 -302h270l-15 -68h-270l-64 -304h372l-14 -67h-508l171 808h508zM524 957l96 -118h-117l-65 78l-96 -78h-117l147 118h152z" />
    <glyph glyph-name="Edieresis" unicode="&#xcb;" 
d="M0 0zM670 808l-14 -67h-372l-64 -302h270l-15 -68h-270l-64 -304h372l-14 -67h-508l171 808h508zM380 957l-21 -102h-135l21 102h135zM650 957l-21 -102h-135l21 102h135z" />
    <glyph glyph-name="Igrave" unicode="&#xcc;" 
d="M0 0zM670 808l-14 -67h-186l-143 -674h186l-14 -67h-508l14 67h186l143 674h-186l14 67h508zM516 905l-14 -69l-233 26l20 95z" />
    <glyph glyph-name="Iacute" unicode="&#xcd;" 
d="M0 0zM670 808l-14 -67h-186l-143 -674h186l-14 -67h-508l14 67h186l143 674h-186l14 67h508zM607 957l-20 -95l-243 -26l14 69z" />
    <glyph glyph-name="Icircumflex" unicode="&#xce;" 
d="M0 0zM670 808l-14 -67h-186l-143 -674h186l-14 -67h-508l14 67h186l143 674h-186l14 67h508zM524 957l96 -118h-117l-65 78l-96 -78h-117l147 118h152z" />
    <glyph glyph-name="Idieresis" unicode="&#xcf;" 
d="M0 0zM670 808l-14 -67h-186l-143 -674h186l-14 -67h-508l14 67h186l143 674h-186l14 67h508zM380 957l-21 -102h-135l21 102h135zM650 957l-21 -102h-135l21 102h135z" />
    <glyph glyph-name="Eth" unicode="&#xd0;" 
d="M575 808q56 0 85 -42t29 -106q0 -15 -1.5 -31.5t-5.5 -33.5l-82 -386q-9 -44 -28.5 -82.5t-46 -67t-58 -45t-64.5 -16.5h-382l82 387h-27l14 66h27l76 357h382zM252 451h126l-14 -66h-126l-67 -319h175q22 0 42.5 12t37 31.5t29 45.5t18.5 54l82 386q2 12 3.5 24t1.5 23
q0 43 -18 71t-53 28h-175z" />
    <glyph glyph-name="Ntilde" unicode="&#xd1;" 
d="M0 0zM294 808l144 -663l141 663h106l-171 -808h-172l-137 593l-126 -593h-102l171 808h146zM208 856q11 48 49.5 74.5t107.5 26.5q32 0 51 -7t34.5 -15t31 -15t39.5 -7q23 0 38 7t21 37h85q-8 -40 -46 -70t-108 -30q-36 0 -55.5 8t-34 17t-28.5 17t-38 8q-30 0 -43 -11.5
t-19 -39.5h-85z" />
    <glyph glyph-name="Ograve" unicode="&#xd2;" 
d="M9 0zM141 210q-3 -11 -3.5 -22t-1.5 -22q0 -43 19.5 -71t54.5 -28h100q21 0 41 11t37 30.5t29.5 45.5t18.5 56l82 385q5 28 5 48q0 42 -17.5 70t-52.5 28h-100q-22 0 -42.5 -11.5t-38 -31.5t-30.5 -46.5t-19 -56.5zM539 808q54 0 83.5 -42t29.5 -106q0 -34 -7 -65
l-82 -385q-9 -44 -28.5 -82.5t-45.5 -67t-57 -44.5t-64 -16h-245q-55 0 -84.5 40.5t-29.5 104.5q0 33 7 65l82 385q9 43 28 82t45 68t57.5 46t65.5 17h245zM516 905l-14 -69l-233 26l20 95z" />
    <glyph glyph-name="Oacute" unicode="&#xd3;" 
d="M9 0zM141 210q-3 -11 -3.5 -22t-1.5 -22q0 -43 19.5 -71t54.5 -28h100q21 0 41 11t37 30.5t29.5 45.5t18.5 56l82 385q5 28 5 48q0 42 -17.5 70t-52.5 28h-100q-22 0 -42.5 -11.5t-38 -31.5t-30.5 -46.5t-19 -56.5zM539 808q54 0 83.5 -42t29.5 -106q0 -34 -7 -65
l-82 -385q-9 -44 -28.5 -82.5t-45.5 -67t-57 -44.5t-64 -16h-245q-55 0 -84.5 40.5t-29.5 104.5q0 33 7 65l82 385q9 43 28 82t45 68t57.5 46t65.5 17h245zM607 957l-20 -95l-243 -26l14 69z" />
    <glyph glyph-name="Ocircumflex" unicode="&#xd4;" 
d="M9 0zM141 210q-3 -11 -3.5 -22t-1.5 -22q0 -43 19.5 -71t54.5 -28h100q21 0 41 11t37 30.5t29.5 45.5t18.5 56l82 385q5 28 5 48q0 42 -17.5 70t-52.5 28h-100q-22 0 -42.5 -11.5t-38 -31.5t-30.5 -46.5t-19 -56.5zM539 808q54 0 83.5 -42t29.5 -106q0 -34 -7 -65
l-82 -385q-9 -44 -28.5 -82.5t-45.5 -67t-57 -44.5t-64 -16h-245q-55 0 -84.5 40.5t-29.5 104.5q0 33 7 65l82 385q9 43 28 82t45 68t57.5 46t65.5 17h245zM524 957l96 -118h-117l-65 78l-96 -78h-117l147 118h152z" />
    <glyph glyph-name="Otilde" unicode="&#xd5;" 
d="M9 0zM141 210q-3 -11 -3.5 -22t-1.5 -22q0 -43 19.5 -71t54.5 -28h100q21 0 41 11t37 30.5t29.5 45.5t18.5 56l82 385q5 28 5 48q0 42 -17.5 70t-52.5 28h-100q-22 0 -42.5 -11.5t-38 -31.5t-30.5 -46.5t-19 -56.5zM539 808q54 0 83.5 -42t29.5 -106q0 -34 -7 -65
l-82 -385q-9 -44 -28.5 -82.5t-45.5 -67t-57 -44.5t-64 -16h-245q-55 0 -84.5 40.5t-29.5 104.5q0 33 7 65l82 385q9 43 28 82t45 68t57.5 46t65.5 17h245zM208 856q11 48 49.5 74.5t107.5 26.5q32 0 51 -7t34.5 -15t31 -15t39.5 -7q23 0 38 7t21 37h85q-8 -40 -46 -70
t-108 -30q-36 0 -55.5 8t-34 17t-28.5 17t-38 8q-30 0 -43 -11.5t-19 -39.5h-85z" />
    <glyph glyph-name="Odieresis" unicode="&#xd6;" 
d="M9 0zM141 210q-3 -11 -3.5 -22t-1.5 -22q0 -43 19.5 -71t54.5 -28h100q21 0 41 11t37 30.5t29.5 45.5t18.5 56l82 385q5 28 5 48q0 42 -17.5 70t-52.5 28h-100q-22 0 -42.5 -11.5t-38 -31.5t-30.5 -46.5t-19 -56.5zM539 808q54 0 83.5 -42t29.5 -106q0 -34 -7 -65
l-82 -385q-9 -44 -28.5 -82.5t-45.5 -67t-57 -44.5t-64 -16h-245q-55 0 -84.5 40.5t-29.5 104.5q0 33 7 65l82 385q9 43 28 82t45 68t57.5 46t65.5 17h245zM380 957l-21 -102h-135l21 102h135zM650 957l-21 -102h-135l21 102h135z" />
    <glyph glyph-name="multiply" unicode="&#xd7;" 
d="M272 621l104 -132l161 132l42 -52l-159 -133l100 -129l-58 -49l-102 130l-154 -127l-43 53l154 127l-103 133z" />
    <glyph glyph-name="Oslash" unicode="&#xd8;" 
d="M575 808q30 0 46 -10l43 56h85l-82 -106q20 -40 20 -91q0 -31 -7 -62l-82 -386q-9 -44 -28.5 -82.5t-45.5 -67t-57 -45t-64 -16.5h-247q-20 0 -44 9l-55 -73h-87l91 123q-18 36 -18 85q0 29 8 67l82 386q9 43 28 82t45 68t57 46t65 17h247zM176 209l370 490
q-9 19 -23.5 30.5t-35.5 11.5h-99q-23 0 -43.5 -11.5t-37.5 -31.5t-30 -46.5t-19 -56.5zM184 104q17 -38 61 -38h99q22 0 42 11.5t37 31t29.5 45.5t18.5 55l82 386z" />
    <glyph glyph-name="Ugrave" unicode="&#xd9;" 
d="M12 0zM271 808l-127 -598q-6 -29 -6 -52q0 -43 19 -67t54 -24h96q42 0 77 38.5t49 104.5l127 598h128l-127 -598q-9 -44 -28.5 -82.5t-45.5 -67t-57.5 -44.5t-64.5 -16h-240q-54 0 -83.5 40.5t-29.5 105.5q0 32 7 64l127 598h125zM516 905l-14 -69l-233 26l20 95z" />
    <glyph glyph-name="Uacute" unicode="&#xda;" 
d="M12 0zM271 808l-127 -598q-6 -29 -6 -52q0 -43 19 -67t54 -24h96q42 0 77 38.5t49 104.5l127 598h128l-127 -598q-9 -44 -28.5 -82.5t-45.5 -67t-57.5 -44.5t-64.5 -16h-240q-54 0 -83.5 40.5t-29.5 105.5q0 32 7 64l127 598h125zM607 957l-20 -95l-243 -26l14 69z" />
    <glyph glyph-name="Ucircumflex" unicode="&#xdb;" 
d="M12 0zM271 808l-127 -598q-6 -29 -6 -52q0 -43 19 -67t54 -24h96q42 0 77 38.5t49 104.5l127 598h128l-127 -598q-9 -44 -28.5 -82.5t-45.5 -67t-57.5 -44.5t-64.5 -16h-240q-54 0 -83.5 40.5t-29.5 105.5q0 32 7 64l127 598h125zM524 957l96 -118h-117l-65 78l-96 -78
h-117l147 118h152z" />
    <glyph glyph-name="Udieresis" unicode="&#xdc;" 
d="M12 0zM271 808l-127 -598q-6 -29 -6 -52q0 -43 19 -67t54 -24h96q42 0 77 38.5t49 104.5l127 598h128l-127 -598q-9 -44 -28.5 -82.5t-45.5 -67t-57.5 -44.5t-64.5 -16h-240q-54 0 -83.5 40.5t-29.5 105.5q0 32 7 64l127 598h125zM380 957l-21 -102h-135l21 102h135z
M650 957l-21 -102h-135l21 102h135z" />
    <glyph glyph-name="Yacute" unicode="&#xdd;" 
d="M137 0zM280 808l52 -408l230 408h134l-327 -518l-61 -290h-135l62 292l-98 516h143zM607 957l-20 -95l-243 -26l14 69z" />
    <glyph glyph-name="Thorn" unicode="&#xde;" 
d="M315 808l-35 -167h247q52 0 80.5 -44.5t28.5 -116.5q0 -66 -18.5 -125t-48.5 -103.5t-68 -70.5t-78 -26h-247l-32 -155h-134l171 808h134zM191 224h175q26 0 51.5 19.5t45.5 53t32 77.5t12 93q0 48 -17 77t-50 29h-175z" />
    <glyph glyph-name="germandbls" unicode="&#xdf;" 
d="M558 845q65 0 98 -39t33 -103q0 -41 -11 -84t-30.5 -80t-45 -62.5t-53.5 -30.5q32 -8 48.5 -43.5t16.5 -86.5q0 -54 -18 -110t-48.5 -102t-72 -75t-88.5 -29h-181l14 67h123q30 0 57 24.5t48 60.5t33 77.5t12 74.5q0 46 -17.5 76t-49.5 30h-96l14 67h96q19 0 38 19.5
t34 51t24.5 72t9.5 82.5q0 40 -15.5 58t-47.5 18h-91q-46 0 -76.5 -32t-42.5 -89l-139 -657h-138l131 620q15 69 33 112.5t45.5 68.5t68 34.5t99.5 9.5h185z" />
    <glyph glyph-name="agrave" unicode="&#xe0;" 
d="M1 0zM492 641q72 0 104 -21.5t32 -80.5q0 -32 -11 -87l-96 -452h-412q-57 0 -82.5 30t-25.5 85q0 33 9 75q20 96 62.5 144.5t117.5 48.5h277l17 81q6 30 6 51q0 32 -16 45.5t-52 13.5h-242l14 67h298zM275 317q-60 0 -91.5 -27.5t-45.5 -95.5q-7 -31 -7 -56q0 -37 18 -54
t59 -17h192l53 250h-178zM511 788l-14 -69l-233 26l20 95z" />
    <glyph glyph-name="aacute" unicode="&#xe1;" 
d="M1 0zM492 641q72 0 104 -21.5t32 -80.5q0 -32 -11 -87l-96 -452h-412q-57 0 -82.5 30t-25.5 85q0 33 9 75q20 96 62.5 144.5t117.5 48.5h277l17 81q6 30 6 51q0 32 -16 45.5t-52 13.5h-242l14 67h298zM275 317q-60 0 -91.5 -27.5t-45.5 -95.5q-7 -31 -7 -56q0 -37 18 -54
t59 -17h192l53 250h-178zM602 840l-20 -95l-243 -26l14 69z" />
    <glyph glyph-name="acircumflex" unicode="&#xe2;" 
d="M1 0zM492 641q72 0 104 -21.5t32 -80.5q0 -32 -11 -87l-96 -452h-412q-57 0 -82.5 30t-25.5 85q0 33 9 75q20 96 62.5 144.5t117.5 48.5h277l17 81q6 30 6 51q0 32 -16 45.5t-52 13.5h-242l14 67h298zM275 317q-60 0 -91.5 -27.5t-45.5 -95.5q-7 -31 -7 -56q0 -37 18 -54
t59 -17h192l53 250h-178zM519 840l96 -118h-117l-65 78l-96 -78h-117l147 118h152z" />
    <glyph glyph-name="atilde" unicode="&#xe3;" 
d="M1 0zM492 641q72 0 104 -21.5t32 -80.5q0 -32 -11 -87l-96 -452h-412q-57 0 -82.5 30t-25.5 85q0 33 9 75q20 96 62.5 144.5t117.5 48.5h277l17 81q6 30 6 51q0 32 -16 45.5t-52 13.5h-242l14 67h298zM275 317q-60 0 -91.5 -27.5t-45.5 -95.5q-7 -31 -7 -56q0 -37 18 -54
t59 -17h192l53 250h-178zM203 739q11 48 49.5 74.5t107.5 26.5q32 0 51 -7t34.5 -15t31 -15t39.5 -7q23 0 38 7t21 37h85q-8 -40 -46 -70t-108 -30q-36 0 -55.5 8t-34 17t-28.5 17t-38 8q-30 0 -43 -11.5t-19 -39.5h-85z" />
    <glyph glyph-name="adieresis" unicode="&#xe4;" 
d="M1 0zM492 641q72 0 104 -21.5t32 -80.5q0 -32 -11 -87l-96 -452h-412q-57 0 -82.5 30t-25.5 85q0 33 9 75q20 96 62.5 144.5t117.5 48.5h277l17 81q6 30 6 51q0 32 -16 45.5t-52 13.5h-242l14 67h298zM275 317q-60 0 -91.5 -27.5t-45.5 -95.5q-7 -31 -7 -56q0 -37 18 -54
t59 -17h192l53 250h-178zM375 840l-21 -102h-135l21 102h135zM645 840l-21 -102h-135l21 102h135z" />
    <glyph glyph-name="aring" unicode="&#xe5;" 
d="M1 0zM492 641q72 0 104 -21.5t32 -80.5q0 -32 -11 -87l-96 -452h-412q-57 0 -82.5 30t-25.5 85q0 33 9 75q20 96 62.5 144.5t117.5 48.5h277l17 81q6 30 6 51q0 32 -16 45.5t-52 13.5h-242l14 67h298zM275 317q-60 0 -91.5 -27.5t-45.5 -95.5q-7 -31 -7 -56q0 -37 18 -54
t59 -17h192l53 250h-178zM496 870q32 0 47.5 -9t15.5 -31q0 -9 -3 -21l-12 -57q-8 -35 -27.5 -48.5t-58.5 -13.5h-94q-32 0 -47 8.5t-15 30.5q0 9 3 23l12 57q7 34 26.5 47.5t58.5 13.5h94zM373 756q-1 -3 -1 -8q0 -13 8 -20.5t22 -7.5h31q21 0 31 10t13 26l11 53q1 4 1.5 7
t0.5 6q0 18 -23 18h-49q-28 0 -34 -31z" />
    <glyph glyph-name="ae" unicode="&#xe6;" 
d="M603 641q72 0 72 -97q0 -39 -12 -93q-39 -183 -140 -183h-136l-14 -69q-5 -25 -8 -44t-3 -33q0 -34 16 -44.5t48 -10.5h109l-14 -67h-431q-39 0 -57 25.5t-18 73.5q0 38 11 91q20 96 54.5 144.5t90.5 48.5h140l17 81q8 38 8 60q0 27 -11.5 38.5t-36.5 11.5h-114l14 67
h156q49 0 70 -17q30 17 74 17h115zM231 317q-45 0 -70 -27.5t-39 -95.5q-9 -39 -9 -65q0 -62 55 -62h76l53 250h-66zM402 335h89q17 0 30 5.5t23.5 18.5t18.5 35.5t15 56.5q5 23 7.5 40.5t2.5 31.5q0 28 -11.5 39.5t-34.5 11.5h-24q-33 0 -54 -27t-37 -95z" />
    <glyph glyph-name="ccedilla" unicode="&#xe7;" 
d="M18 0zM637 641l-14 -67h-290q-48 0 -73.5 -29.5t-41.5 -103.5l-53 -251q-4 -17 -6 -30t-1 -24q0 -22 8 -35.5t26 -21t46.5 -10t69.5 -2.5h207l-14 -67h-349q-68 0 -101 24t-33 87q0 37 12 90l51 239q12 57 29 95.5t42 62t58 33.5t78 10h349zM326 -50l-85 -193h-79l41 193
h123z" />
    <glyph glyph-name="egrave" unicode="&#xe8;" 
d="M6 0zM519 641q102 0 102 -112q0 -35 -9 -78q-39 -183 -173 -183h-272l-14 -69q-5 -21 -7.5 -37.5t-1.5 -30.5q0 -39 21 -51.5t68 -12.5h236l-14 -67h-316q-67 0 -100 24t-33 86q0 37 12 91l51 238q12 58 29.5 96.5t42.5 62t57.5 33.5t76.5 10h244zM182 335h208
q23 0 40 5.5t30 18.5t22.5 35.5t16.5 56.5q8 40 8 62q0 34 -15.5 47.5t-50.5 13.5h-122q-45 0 -72.5 -29.5t-42.5 -103.5zM491 788l-14 -69l-233 26l20 95z" />
    <glyph glyph-name="eacute" unicode="&#xe9;" 
d="M6 0zM519 641q102 0 102 -112q0 -35 -9 -78q-39 -183 -173 -183h-272l-14 -69q-5 -21 -7.5 -37.5t-1.5 -30.5q0 -39 21 -51.5t68 -12.5h236l-14 -67h-316q-67 0 -100 24t-33 86q0 37 12 91l51 238q12 58 29.5 96.5t42.5 62t57.5 33.5t76.5 10h244zM182 335h208
q23 0 40 5.5t30 18.5t22.5 35.5t16.5 56.5q8 40 8 62q0 34 -15.5 47.5t-50.5 13.5h-122q-45 0 -72.5 -29.5t-42.5 -103.5zM582 840l-20 -95l-243 -26l14 69z" />
    <glyph glyph-name="ecircumflex" unicode="&#xea;" 
d="M6 0zM519 641q102 0 102 -112q0 -35 -9 -78q-39 -183 -173 -183h-272l-14 -69q-5 -21 -7.5 -37.5t-1.5 -30.5q0 -39 21 -51.5t68 -12.5h236l-14 -67h-316q-67 0 -100 24t-33 86q0 37 12 91l51 238q12 58 29.5 96.5t42.5 62t57.5 33.5t76.5 10h244zM182 335h208
q23 0 40 5.5t30 18.5t22.5 35.5t16.5 56.5q8 40 8 62q0 34 -15.5 47.5t-50.5 13.5h-122q-45 0 -72.5 -29.5t-42.5 -103.5zM499 840l96 -118h-117l-65 78l-96 -78h-117l147 118h152z" />
    <glyph glyph-name="edieresis" unicode="&#xeb;" 
d="M6 0zM519 641q102 0 102 -112q0 -35 -9 -78q-39 -183 -173 -183h-272l-14 -69q-5 -21 -7.5 -37.5t-1.5 -30.5q0 -39 21 -51.5t68 -12.5h236l-14 -67h-316q-67 0 -100 24t-33 86q0 37 12 91l51 238q12 58 29.5 96.5t42.5 62t57.5 33.5t76.5 10h244zM182 335h208
q23 0 40 5.5t30 18.5t22.5 35.5t16.5 56.5q8 40 8 62q0 34 -15.5 47.5t-50.5 13.5h-122q-45 0 -72.5 -29.5t-42.5 -103.5zM355 840l-21 -102h-135l21 102h135zM625 840l-21 -102h-135l21 102h135z" />
    <glyph glyph-name="igrave" unicode="&#xec;" 
d="M0 0zM449 641l-122 -574h192l-14 -67h-519l14 67h192l107 506h-192l15 68h327zM487 788l-14 -69l-233 26l20 95z" />
    <glyph glyph-name="iacute" unicode="&#xed;" 
d="M0 0zM449 641l-122 -574h192l-14 -67h-519l14 67h192l107 506h-192l15 68h327zM572 840l-20 -95l-243 -26l14 69z" />
    <glyph glyph-name="icircumflex" unicode="&#xee;" 
d="M0 0zM449 641l-122 -574h192l-14 -67h-519l14 67h192l107 506h-192l15 68h327zM489 840l96 -118h-117l-65 78l-96 -78h-117l147 118h152z" />
    <glyph glyph-name="idieresis" unicode="&#xef;" 
d="M0 0zM449 641l-122 -574h192l-14 -67h-519l14 67h192l107 506h-192l15 68h327zM345 840l-21 -102h-135l21 102h135zM615 840l-21 -102h-135l21 102h135z" />
    <glyph glyph-name="eth" unicode="&#xf0;" 
d="M177 175q-3 -12 -4 -22.5t-1 -19.5q0 -66 66 -66h101q45 0 71 29t42 103l80 375h-214q-57 0 -76 -91zM559 845q72 0 105 -21.5t33 -80.5q0 -18 -3 -39t-8 -46l-100 -471q-12 -55 -28 -91t-40.5 -57.5t-58 -30t-79.5 -8.5h-211q-72 0 -104 21t-32 80q0 33 11 86l64 301
q15 72 57 112.5t103 40.5h278l8 37q4 19 4 39q0 31 -16 46t-52 15h-217l14 67h272z" />
    <glyph glyph-name="ntilde" unicode="&#xf1;" 
d="M0 0zM487 641q72 0 103.5 -22t31.5 -79q0 -33 -11 -86l-96 -454h-132l93 440q9 40 9 68q0 37 -16.5 51.5t-48.5 14.5h-188l-122 -574h-133l136 641h374zM183 739q11 48 49.5 74.5t107.5 26.5q32 0 51 -7t34.5 -15t31 -15t39.5 -7q23 0 38 7t21 37h85q-8 -40 -46 -70
t-108 -30q-36 0 -55.5 8t-34 17t-28.5 17t-38 8q-30 0 -43 -11.5t-19 -39.5h-85z" />
    <glyph glyph-name="ograve" unicode="&#xf2;" 
d="M0 0zM144 212q-5 -24 -8 -43t-3 -34q0 -41 21.5 -54.5t67.5 -13.5h76q30 0 52 5t37.5 19.5t26.5 40t20 67.5l51 242q9 40 9 67q0 35 -16 50.5t-49 15.5h-122q-46 0 -73 -30t-42 -103zM499 641q67 0 99.5 -24t32.5 -86q0 -19 -2.5 -41.5t-8.5 -49.5l-51 -239
q-12 -59 -29.5 -97.5t-42 -61.5t-57.5 -32.5t-77 -9.5h-234q-68 0 -101 23.5t-33 85.5q0 36 12 92l51 239q12 58 29.5 97t42 62t57.5 32.5t78 9.5h234zM491 788l-14 -69l-233 26l20 95z" />
    <glyph glyph-name="oacute" unicode="&#xf3;" 
d="M0 0zM144 212q-5 -24 -8 -43t-3 -34q0 -41 21.5 -54.5t67.5 -13.5h76q30 0 52 5t37.5 19.5t26.5 40t20 67.5l51 242q9 40 9 67q0 35 -16 50.5t-49 15.5h-122q-46 0 -73 -30t-42 -103zM499 641q67 0 99.5 -24t32.5 -86q0 -19 -2.5 -41.5t-8.5 -49.5l-51 -239
q-12 -59 -29.5 -97.5t-42 -61.5t-57.5 -32.5t-77 -9.5h-234q-68 0 -101 23.5t-33 85.5q0 36 12 92l51 239q12 58 29.5 97t42 62t57.5 32.5t78 9.5h234zM582 840l-20 -95l-243 -26l14 69z" />
    <glyph glyph-name="ocircumflex" unicode="&#xf4;" 
d="M0 0zM144 212q-5 -24 -8 -43t-3 -34q0 -41 21.5 -54.5t67.5 -13.5h76q30 0 52 5t37.5 19.5t26.5 40t20 67.5l51 242q9 40 9 67q0 35 -16 50.5t-49 15.5h-122q-46 0 -73 -30t-42 -103zM499 641q67 0 99.5 -24t32.5 -86q0 -19 -2.5 -41.5t-8.5 -49.5l-51 -239
q-12 -59 -29.5 -97.5t-42 -61.5t-57.5 -32.5t-77 -9.5h-234q-68 0 -101 23.5t-33 85.5q0 36 12 92l51 239q12 58 29.5 97t42 62t57.5 32.5t78 9.5h234zM499 840l96 -118h-117l-65 78l-96 -78h-117l147 118h152z" />
    <glyph glyph-name="otilde" unicode="&#xf5;" 
d="M0 0zM144 212q-5 -24 -8 -43t-3 -34q0 -41 21.5 -54.5t67.5 -13.5h76q30 0 52 5t37.5 19.5t26.5 40t20 67.5l51 242q9 40 9 67q0 35 -16 50.5t-49 15.5h-122q-46 0 -73 -30t-42 -103zM499 641q67 0 99.5 -24t32.5 -86q0 -19 -2.5 -41.5t-8.5 -49.5l-51 -239
q-12 -59 -29.5 -97.5t-42 -61.5t-57.5 -32.5t-77 -9.5h-234q-68 0 -101 23.5t-33 85.5q0 36 12 92l51 239q12 58 29.5 97t42 62t57.5 32.5t78 9.5h234zM183 739q11 48 49.5 74.5t107.5 26.5q32 0 51 -7t34.5 -15t31 -15t39.5 -7q23 0 38 7t21 37h85q-8 -40 -46 -70t-108 -30
q-36 0 -55.5 8t-34 17t-28.5 17t-38 8q-30 0 -43 -11.5t-19 -39.5h-85z" />
    <glyph glyph-name="odieresis" unicode="&#xf6;" 
d="M0 0zM144 212q-5 -24 -8 -43t-3 -34q0 -41 21.5 -54.5t67.5 -13.5h76q30 0 52 5t37.5 19.5t26.5 40t20 67.5l51 242q9 40 9 67q0 35 -16 50.5t-49 15.5h-122q-46 0 -73 -30t-42 -103zM499 641q67 0 99.5 -24t32.5 -86q0 -19 -2.5 -41.5t-8.5 -49.5l-51 -239
q-12 -59 -29.5 -97.5t-42 -61.5t-57.5 -32.5t-77 -9.5h-234q-68 0 -101 23.5t-33 85.5q0 36 12 92l51 239q12 58 29.5 97t42 62t57.5 32.5t78 9.5h234zM355 840l-21 -102h-135l21 102h135zM625 840l-21 -102h-135l21 102h135z" />
    <glyph glyph-name="divide" unicode="&#xf7;" 
d="M406 298l-19 -89h-135l19 89h135zM484 665l-19 -88h-135l19 88h135zM600 476l-15 -69h-448l15 69h448z" />
    <glyph glyph-name="oslash" unicode="&#xf8;" 
d="M555 641l66 88h84l-82 -109q20 -12 29.5 -33t9.5 -55q0 -38 -12 -92l-51 -239q-12 -59 -29.5 -97.5t-42 -61.5t-57.5 -32.5t-77 -9.5h-234l-61 -79h-88l69 90q-28 12 -41.5 34t-13.5 61q0 19 3.5 42.5t9.5 52.5l51 239q12 58 29.5 97t42 62t58 32.5t77.5 9.5h260z
M174 212q-6 -24 -6 -44q0 -17 5 -32l324 429q-15 9 -38 9h-122q-47 0 -73 -29.5t-42 -103.5zM215 76q13 -9 37 -9h76q30 0 52 5t37.5 19.5t26.5 40t20 67.5l51 242l8 44z" />
    <glyph glyph-name="ugrave" unicode="&#xf9;" 
d="M4 0zM244 641l-94 -442q-9 -39 -9 -65q0 -36 16.5 -51.5t50.5 -15.5h187l122 574h136l-136 -641h-378q-72 0 -103.5 21t-31.5 79q0 18 2.5 39.5t8.5 47.5l97 454h132zM491 788l-14 -69l-233 26l20 95z" />
    <glyph glyph-name="uacute" unicode="&#xfa;" 
d="M4 0zM244 641l-94 -442q-9 -39 -9 -65q0 -36 16.5 -51.5t50.5 -15.5h187l122 574h136l-136 -641h-378q-72 0 -103.5 21t-31.5 79q0 18 2.5 39.5t8.5 47.5l97 454h132zM582 840l-20 -95l-243 -26l14 69z" />
    <glyph glyph-name="ucircumflex" unicode="&#xfb;" 
d="M4 0zM244 641l-94 -442q-9 -39 -9 -65q0 -36 16.5 -51.5t50.5 -15.5h187l122 574h136l-136 -641h-378q-72 0 -103.5 21t-31.5 79q0 18 2.5 39.5t8.5 47.5l97 454h132zM499 840l96 -118h-117l-65 78l-96 -78h-117l147 118h152z" />
    <glyph glyph-name="udieresis" unicode="&#xfc;" 
d="M4 0zM244 641l-94 -442q-9 -39 -9 -65q0 -36 16.5 -51.5t50.5 -15.5h187l122 574h136l-136 -641h-378q-72 0 -103.5 21t-31.5 79q0 18 2.5 39.5t8.5 47.5l97 454h132zM355 840l-21 -102h-135l21 102h135zM625 840l-21 -102h-135l21 102h135z" />
    <glyph glyph-name="yacute" unicode="&#xfd;" 
d="M45 0zM239 641l57 -486l272 486h106l-519 -884h-110l153 243l-108 641h149zM582 840l-20 -95l-243 -26l14 69z" />
    <glyph glyph-name="thorn" unicode="&#xfe;" 
d="M313 845l-43 -204h252q68 0 101 -25.5t33 -88.5q0 -34 -11 -87l-51 -239q-12 -59 -29.5 -97.5t-42.5 -61.5t-58 -32.5t-78 -9.5h-252l-51 -238h-133l229 1083h134zM148 69h196q47 0 72.5 28t40.5 98l55 259q3 16 5 29.5t2 24.5q0 40 -29 52.5t-99 12.5h-136z" />
    <glyph glyph-name="ydieresis" unicode="&#xff;" 
d="M45 0zM239 641l57 -486l272 486h106l-519 -884h-110l153 243l-108 641h149zM355 840l-21 -102h-135l21 102h135zM625 840l-21 -102h-135l21 102h135z" />
    <glyph glyph-name="Amacron" unicode="&#x100;" 
d="M0 0zM204 245h188l10 476h-6zM520 808v-808h-134l4 176h-214l-70 -176h-134l353 808h195zM670 957l-19 -91h-445l19 91h445z" />
    <glyph glyph-name="amacron" unicode="&#x101;" 
d="M1 0zM492 641q72 0 104 -21.5t32 -80.5q0 -32 -11 -87l-96 -452h-412q-57 0 -82.5 30t-25.5 85q0 33 9 75q20 96 62.5 144.5t117.5 48.5h277l17 81q6 30 6 51q0 32 -16 45.5t-52 13.5h-242l14 67h298zM275 317q-60 0 -91.5 -27.5t-45.5 -95.5q-7 -31 -7 -56q0 -37 18 -54
t59 -17h192l53 250h-178zM665 840l-19 -91h-445l19 91h445z" />
    <glyph glyph-name="Abreve" unicode="&#x102;" 
d="M0 0zM204 245h188l10 476h-6zM520 808v-808h-134l4 176h-214l-70 -176h-134l353 808h195zM342 957q-2 -10 -2 -14q0 -33 27 -53t65 -20q44 0 79 24t43 63h114q-13 -33 -38 -58.5t-58 -43.5t-71 -27t-78 -9q-80 0 -134 36t-62 102h115z" />
    <glyph glyph-name="abreve" unicode="&#x103;" 
d="M1 0zM492 641q72 0 104 -21.5t32 -80.5q0 -32 -11 -87l-96 -452h-412q-57 0 -82.5 30t-25.5 85q0 33 9 75q20 96 62.5 144.5t117.5 48.5h277l17 81q6 30 6 51q0 32 -16 45.5t-52 13.5h-242l14 67h298zM275 317q-60 0 -91.5 -27.5t-45.5 -95.5q-7 -31 -7 -56q0 -37 18 -54
t59 -17h192l53 250h-178zM337 840q-2 -10 -2 -14q0 -33 27 -53t65 -20q44 0 79 24t43 63h114q-13 -33 -38 -58.5t-58 -43.5t-71 -27t-78 -9q-80 0 -134 36t-62 102h115z" />
    <glyph glyph-name="Aogonek" unicode="&#x104;" 
d="M420 176h-214l-70 -176h-134l353 808h195v-808l-123 -32q-33 -9 -49 -21.5t-20 -31.5l-3 -18q-4 -16 -4 -30q0 -12 5 -20t18 -13t35 -7.5t56 -2.5h53l-14 -67h-149q-42 0 -70 3.5t-45 12t-24 21.5t-7 31q0 15 5 40l7 32q7 29 21 45t48 25l126 33zM234 245h188l10 476h-6z
" />
    <glyph glyph-name="aogonek" unicode="&#x105;" 
d="M139 0q-57 0 -82.5 30t-25.5 85q0 33 9 75q20 96 62.5 144.5t117.5 48.5h277l17 81q6 30 6 51q0 32 -16 45.5t-52 13.5h-242l14 67h298q72 0 104 -21.5t32 -80.5q0 -32 -11 -87l-96 -452l-123 -32q-33 -9 -49 -21.5t-20 -31.5l-3 -18q-4 -16 -4 -30q0 -12 5 -20t18 -13
t35 -7.5t56 -2.5h53l-14 -67h-149q-42 0 -70 3.5t-45 12t-24 21.5t-7 31q0 15 5 40l7 32q7 29 21 45t48 25l126 33h-278zM305 317q-60 0 -91.5 -27.5t-45.5 -95.5q-7 -31 -7 -56q0 -37 18 -54t59 -17h192l53 250h-178z" />
    <glyph glyph-name="Cacute" unicode="&#x106;" 
d="M37 0zM663 808l-14 -67h-269q-22 0 -42 -11.5t-37 -31.5t-29.5 -46.5t-18.5 -56.5l-82 -385q-2 -12 -3.5 -23t-1.5 -22q0 -42 18 -70t53 -28h269l-14 -67h-340q-56 0 -85.5 40.5t-29.5 104.5q0 15 1.5 31.5t5.5 33.5l82 385q9 43 28 82t45 68t57.5 46t66.5 17h340z
M607 957l-20 -95l-243 -26l14 69z" />
    <glyph glyph-name="cacute" unicode="&#x107;" 
d="M18 0zM637 641l-14 -67h-290q-48 0 -73.5 -29.5t-41.5 -103.5l-53 -251q-4 -17 -6 -30t-1 -24q0 -22 8 -35.5t26 -21t46.5 -10t69.5 -2.5h207l-14 -67h-349q-68 0 -101 24t-33 87q0 37 12 90l51 239q12 57 29 95.5t42 62t58 33.5t78 10h349zM582 840l-20 -95l-243 -26
l14 69z" />
    <glyph glyph-name="Cdotaccent" unicode="&#x10a;" 
d="M37 0zM663 808l-14 -67h-269q-22 0 -42 -11.5t-37 -31.5t-29.5 -46.5t-18.5 -56.5l-82 -385q-2 -12 -3.5 -23t-1.5 -22q0 -42 18 -70t53 -28h269l-14 -67h-340q-56 0 -85.5 40.5t-29.5 104.5q0 15 1.5 31.5t5.5 33.5l82 385q9 43 28 82t45 68t57.5 46t66.5 17h340z
M515 957l-21 -102h-135l21 102h135z" />
    <glyph glyph-name="cdotaccent" unicode="&#x10b;" 
d="M18 0zM637 641l-14 -67h-290q-48 0 -73.5 -29.5t-41.5 -103.5l-53 -251q-4 -17 -6 -30t-1 -24q0 -22 8 -35.5t26 -21t46.5 -10t69.5 -2.5h207l-14 -67h-349q-68 0 -101 24t-33 87q0 37 12 90l51 239q12 57 29 95.5t42 62t58 33.5t78 10h349zM490 840l-21 -102h-135
l21 102h135z" />
    <glyph glyph-name="Ccaron" unicode="&#x10c;" 
d="M37 0zM663 808l-14 -67h-269q-22 0 -42 -11.5t-37 -31.5t-29.5 -46.5t-18.5 -56.5l-82 -385q-2 -12 -3.5 -23t-1.5 -22q0 -42 18 -70t53 -28h269l-14 -67h-340q-56 0 -85.5 40.5t-29.5 104.5q0 15 1.5 31.5t5.5 33.5l82 385q9 43 28 82t45 68t57.5 46t66.5 17h340z
M346 839l-96 118h117l66 -78l95 78h117l-147 -118h-152z" />
    <glyph glyph-name="ccaron" unicode="&#x10d;" 
d="M18 0zM637 641l-14 -67h-290q-48 0 -73.5 -29.5t-41.5 -103.5l-53 -251q-4 -17 -6 -30t-1 -24q0 -22 8 -35.5t26 -21t46.5 -10t69.5 -2.5h207l-14 -67h-349q-68 0 -101 24t-33 87q0 37 12 90l51 239q12 57 29 95.5t42 62t58 33.5t78 10h349zM321 722l-96 118h117l66 -78
l95 78h117l-147 -118h-152z" />
    <glyph glyph-name="Dcaron" unicode="&#x10e;" 
d="M0 0zM127 67h176q21 0 40.5 11t36.5 30.5t30 45.5t19 56l82 385q2 12 3.5 24t1.5 23q0 43 -18 71t-52 28h-176zM532 808q55 0 84.5 -42t29.5 -106q0 -34 -7 -65l-82 -385q-9 -44 -28 -82t-45 -66.5t-57.5 -45t-65.5 -16.5h-381l171 808h381zM346 839l-96 118h117l66 -78
l95 78h117l-147 -118h-152z" />
    <glyph glyph-name="dcaron" unicode="&#x10f;" 
d="M458 641l43 204h115l-179 -845h-316q-55 0 -82 24.5t-27 85.5q0 44 13 105l45 210q13 60 29 101t38.5 66.5t51.5 37t68 11.5h201zM152 275q-9 -44 -14 -76t-5 -55q0 -25 5.5 -40t17.5 -23.5t30 -11t43 -2.5h107l107 506h-154q-39 0 -62.5 -30.5t-39.5 -104.5zM748 845
l-79 -193h-68l41 193h106z" />
    <glyph glyph-name="Dcroat" unicode="&#x110;" 
d="M0 0zM545 808q56 0 85 -42t29 -106q0 -15 -1.5 -31.5t-5.5 -33.5l-82 -386q-9 -44 -28.5 -82.5t-46 -67t-58 -45t-64.5 -16.5h-382l82 387h-27l14 66h27l76 357h382zM222 451h126l-14 -66h-126l-67 -319h175q22 0 42.5 12t37 31.5t29 45.5t18.5 54l82 386q2 12 3.5 24
t1.5 23q0 43 -18 71t-53 28h-175z" />
    <glyph glyph-name="dmacron" unicode="&#x111;" 
d="M545 790l12 55h134l-12 -55h70l-19 -91h-70l-148 -699h-338q-66 0 -98.5 26.5t-32.5 92.5q0 39 12 96l45 210q13 60 30.5 101t42.5 66.5t58.5 37t78.5 11.5h204l12 58h-241l19 91h241zM201 275q-18 -81 -18 -124q0 -27 6.5 -43.5t20.5 -25.5t35.5 -12t51.5 -3h95l107 506
h-149q-46 0 -72 -30.5t-42 -104.5z" />
    <glyph glyph-name="Emacron" unicode="&#x112;" 
d="M0 0zM670 808l-14 -67h-372l-64 -302h270l-15 -68h-270l-64 -304h372l-14 -67h-508l171 808h508zM670 957l-19 -91h-445l19 91h445z" />
    <glyph glyph-name="emacron" unicode="&#x113;" 
d="M6 0zM519 641q102 0 102 -112q0 -35 -9 -78q-39 -183 -173 -183h-272l-14 -69q-5 -21 -7.5 -37.5t-1.5 -30.5q0 -39 21 -51.5t68 -12.5h236l-14 -67h-316q-67 0 -100 24t-33 86q0 37 12 91l51 238q12 58 29.5 96.5t42.5 62t57.5 33.5t76.5 10h244zM182 335h208
q23 0 40 5.5t30 18.5t22.5 35.5t16.5 56.5q8 40 8 62q0 34 -15.5 47.5t-50.5 13.5h-122q-45 0 -72.5 -29.5t-42.5 -103.5zM645 840l-19 -91h-445l19 91h445z" />
    <glyph glyph-name="Ebreve" unicode="&#x114;" 
d="M0 0zM670 808l-14 -67h-372l-64 -302h270l-15 -68h-270l-64 -304h372l-14 -67h-508l171 808h508zM342 957q-2 -10 -2 -14q0 -33 27 -53t65 -20q44 0 79 24t43 63h114q-13 -33 -38 -58.5t-58 -43.5t-71 -27t-78 -9q-80 0 -134 36t-62 102h115z" />
    <glyph glyph-name="ebreve" unicode="&#x115;" 
d="M6 0zM519 641q102 0 102 -112q0 -35 -9 -78q-39 -183 -173 -183h-272l-14 -69q-5 -21 -7.5 -37.5t-1.5 -30.5q0 -39 21 -51.5t68 -12.5h236l-14 -67h-316q-67 0 -100 24t-33 86q0 37 12 91l51 238q12 58 29.5 96.5t42.5 62t57.5 33.5t76.5 10h244zM182 335h208
q23 0 40 5.5t30 18.5t22.5 35.5t16.5 56.5q8 40 8 62q0 34 -15.5 47.5t-50.5 13.5h-122q-45 0 -72.5 -29.5t-42.5 -103.5zM317 840q-2 -10 -2 -14q0 -33 27 -53t65 -20q44 0 79 24t43 63h114q-13 -33 -38 -58.5t-58 -43.5t-71 -27t-78 -9q-80 0 -134 36t-62 102h115z" />
    <glyph glyph-name="Edotaccent" unicode="&#x116;" 
d="M0 0zM670 808l-14 -67h-372l-64 -302h270l-15 -68h-270l-64 -304h372l-14 -67h-508l171 808h508zM515 957l-21 -102h-135l21 102h135z" />
    <glyph glyph-name="edotaccent" unicode="&#x117;" 
d="M6 0zM519 641q102 0 102 -112q0 -35 -9 -78q-39 -183 -173 -183h-272l-14 -69q-5 -21 -7.5 -37.5t-1.5 -30.5q0 -39 21 -51.5t68 -12.5h236l-14 -67h-316q-67 0 -100 24t-33 86q0 37 12 91l51 238q12 58 29.5 96.5t42.5 62t57.5 33.5t76.5 10h244zM182 335h208
q23 0 40 5.5t30 18.5t22.5 35.5t16.5 56.5q8 40 8 62q0 34 -15.5 47.5t-50.5 13.5h-122q-45 0 -72.5 -29.5t-42.5 -103.5zM490 840l-21 -102h-135l21 102h135z" />
    <glyph glyph-name="Eogonek" unicode="&#x118;" 
d="M21 0l171 808h508l-14 -67h-372l-64 -302h270l-15 -68h-270l-64 -304h372l-14 -67l-123 -32q-33 -9 -49 -21.5t-20 -31.5l-3 -18q-4 -16 -4 -30q0 -12 5 -20t18 -13t35 -7.5t56 -2.5h53l-14 -67h-149q-42 0 -70 3.5t-45 12t-24 21.5t-7 31q0 15 5 40l7 32q7 29 21 45
t48 25l126 33h-374z" />
    <glyph glyph-name="eogonek" unicode="&#x119;" 
d="M169 0q-67 0 -100 24t-33 86q0 37 12 91l51 238q12 58 29.5 96.5t42.5 62t57.5 33.5t76.5 10h244q102 0 102 -112q0 -35 -9 -78q-39 -183 -173 -183h-272l-14 -69q-5 -21 -7.5 -37.5t-1.5 -30.5q0 -39 21 -51.5t68 -12.5h236l-14 -67l-123 -32q-33 -9 -49 -21.5
t-20 -31.5l-3 -18q-4 -16 -4 -30q0 -12 5 -20t18 -13t35 -7.5t56 -2.5h53l-14 -67h-149q-42 0 -70 3.5t-45 12t-24 21.5t-7 31q0 15 5 40l7 32q7 29 21 45t48 25l126 33h-182zM212 335h208q23 0 40 5.5t30 18.5t22.5 35.5t16.5 56.5q8 40 8 62q0 34 -15.5 47.5t-50.5 13.5
h-122q-45 0 -72.5 -29.5t-42.5 -103.5z" />
    <glyph glyph-name="Ecaron" unicode="&#x11a;" 
d="M0 0zM670 808l-14 -67h-372l-64 -302h270l-15 -68h-270l-64 -304h372l-14 -67h-508l171 808h508zM346 839l-96 118h117l66 -78l95 78h117l-147 -118h-152z" />
    <glyph glyph-name="ecaron" unicode="&#x11b;" 
d="M6 0zM519 641q102 0 102 -112q0 -35 -9 -78q-39 -183 -173 -183h-272l-14 -69q-5 -21 -7.5 -37.5t-1.5 -30.5q0 -39 21 -51.5t68 -12.5h236l-14 -67h-316q-67 0 -100 24t-33 86q0 37 12 91l51 238q12 58 29.5 96.5t42.5 62t57.5 33.5t76.5 10h244zM182 335h208
q23 0 40 5.5t30 18.5t22.5 35.5t16.5 56.5q8 40 8 62q0 34 -15.5 47.5t-50.5 13.5h-122q-45 0 -72.5 -29.5t-42.5 -103.5zM321 722l-96 118h117l66 -78l95 78h117l-147 -118h-152z" />
    <glyph glyph-name="Gbreve" unicode="&#x11e;" 
d="M23 0zM663 808l-14 -67h-281q-23 0 -43 -11.5t-37 -31.5t-29.5 -46.5t-18.5 -56.5l-82 -385q-3 -12 -4 -23t-1 -22q0 -43 18.5 -70.5t53.5 -27.5h172l64 304h-146l15 69h268l-93 -440h-366q-27 0 -48.5 11t-36.5 31t-23 47t-8 60q0 30 7 61l82 385q9 43 28 82t45 68
t58 46t67 17h353zM342 957q-2 -10 -2 -14q0 -33 27 -53t65 -20q44 0 79 24t43 63h114q-13 -33 -38 -58.5t-58 -43.5t-71 -27t-78 -9q-80 0 -134 36t-62 102h115z" />
    <glyph glyph-name="gbreve" unicode="&#x11f;" 
d="M9 0zM650 641l-145 -682q-13 -59 -30.5 -98t-42 -62t-57.5 -32.5t-77 -9.5h-257l14 67h131q51 0 82.5 5.5t50.5 19.5t29.5 38t19.5 61l12 52h-237q-70 0 -102 24t-32 84q0 38 12 95l50 237q12 58 29.5 96.5t42.5 61.5t58.5 33t77.5 10h371zM152 194q-8 -38 -8 -61
q0 -36 16.5 -51t51.5 -15h182l108 507h-136q-38 0 -64.5 -5.5t-45 -19.5t-30.5 -37t-19 -58zM317 840q-2 -10 -2 -14q0 -33 27 -53t65 -20q44 0 79 24t43 63h114q-13 -33 -38 -58.5t-58 -43.5t-71 -27t-78 -9q-80 0 -134 36t-62 102h115z" />
    <glyph glyph-name="Gdotaccent" unicode="&#x120;" 
d="M23 0zM663 808l-14 -67h-281q-23 0 -43 -11.5t-37 -31.5t-29.5 -46.5t-18.5 -56.5l-82 -385q-3 -12 -4 -23t-1 -22q0 -43 18.5 -70.5t53.5 -27.5h172l64 304h-146l15 69h268l-93 -440h-366q-27 0 -48.5 11t-36.5 31t-23 47t-8 60q0 30 7 61l82 385q9 43 28 82t45 68
t58 46t67 17h353zM515 957l-21 -102h-135l21 102h135z" />
    <glyph glyph-name="gdotaccent" unicode="&#x121;" 
d="M9 0zM650 641l-145 -682q-13 -59 -30.5 -98t-42 -62t-57.5 -32.5t-77 -9.5h-257l14 67h131q51 0 82.5 5.5t50.5 19.5t29.5 38t19.5 61l12 52h-237q-70 0 -102 24t-32 84q0 38 12 95l50 237q12 58 29.5 96.5t42.5 61.5t58.5 33t77.5 10h371zM152 194q-8 -38 -8 -61
q0 -36 16.5 -51t51.5 -15h182l108 507h-136q-38 0 -64.5 -5.5t-45 -19.5t-30.5 -37t-19 -58zM490 840l-21 -102h-135l21 102h135z" />
    <glyph glyph-name="Gcommaaccent" unicode="&#x122;" 
d="M23 0zM663 808l-14 -67h-281q-23 0 -43 -11.5t-37 -31.5t-29.5 -46.5t-18.5 -56.5l-82 -385q-3 -12 -4 -23t-1 -22q0 -43 18.5 -70.5t53.5 -27.5h172l64 304h-146l15 69h268l-93 -440h-366q-27 0 -48.5 11t-36.5 31t-23 47t-8 60q0 30 7 61l82 385q9 43 28 82t45 68
t58 46t67 17h353zM296 -50l-85 -193h-79l41 193h123z" />
    <glyph glyph-name="gcommaaccent" unicode="&#x123;" 
d="M9 0zM650 641l-145 -682q-13 -59 -30.5 -98t-42 -62t-57.5 -32.5t-77 -9.5h-257l14 67h131q51 0 82.5 5.5t50.5 19.5t29.5 38t19.5 61l12 52h-237q-70 0 -102 24t-32 84q0 38 12 95l50 237q12 58 29.5 96.5t42.5 61.5t58.5 33t77.5 10h371zM152 194q-8 -38 -8 -61
q0 -36 16.5 -51t51.5 -15h182l108 507h-136q-38 0 -64.5 -5.5t-45 -19.5t-30.5 -37t-19 -58zM554 895l-85 -193h-79l41 193h123z" />
    <glyph glyph-name="Hbar" unicode="&#x126;" 
d="M144 667l30 141h135l-30 -141h275l30 141h136l-30 -141h32l-19 -91h-32l-122 -576h-136l78 371h-275l-78 -371h-135l122 576h-33l19 91h33zM506 439l29 137h-275l-29 -137h275z" />
    <glyph glyph-name="hbar" unicode="&#x127;" 
d="M207 790l12 55h135l-12 -55h240l-19 -91h-240l-12 -58h208q71 0 103 -21.5t32 -80.5q0 -33 -11 -86l-96 -453h-134l93 441q5 20 6.5 36.5t1.5 30.5q0 36 -15.5 51.5t-47.5 15.5h-154l-122 -575h-135l148 699h-70l19 91h70z" />
    <glyph glyph-name="Imacron" unicode="&#x12a;" 
d="M0 0zM670 808l-14 -67h-186l-143 -674h186l-14 -67h-508l14 67h186l143 674h-186l14 67h508zM670 957l-19 -91h-445l19 91h445z" />
    <glyph glyph-name="imacron" unicode="&#x12b;" 
d="M0 0zM449 641l-122 -574h192l-14 -67h-519l14 67h192l107 506h-192l15 68h327zM635 840l-19 -91h-445l19 91h445z" />
    <glyph glyph-name="Ibreve" unicode="&#x12c;" 
d="M0 0zM670 808l-14 -67h-186l-143 -674h186l-14 -67h-508l14 67h186l143 674h-186l14 67h508zM342 957q-2 -10 -2 -14q0 -33 27 -53t65 -20q44 0 79 24t43 63h114q-13 -33 -38 -58.5t-58 -43.5t-71 -27t-78 -9q-80 0 -134 36t-62 102h115z" />
    <glyph glyph-name="ibreve" unicode="&#x12d;" 
d="M0 0zM449 641l-122 -574h192l-14 -67h-519l14 67h192l107 506h-192l15 68h327zM298 840q-2 -10 -2 -14q0 -33 27 -53t65 -20q44 0 79 24t43 63h114q-13 -33 -38 -58.5t-58 -43.5t-71 -27t-78 -9q-80 0 -134 36t-62 102h115z" />
    <glyph glyph-name="Iogonek" unicode="&#x12e;" 
d="M21 0l14 67h186l143 674h-186l14 67h508l-14 -67h-186l-143 -674h186l-14 -67h-103l-123 -32q-33 -9 -49 -21.5t-20 -31.5l-3 -18q-4 -16 -4 -30q0 -12 5 -20t18 -13t35 -7.5t56 -2.5h53l-14 -67h-149q-42 0 -70 3.5t-45 12t-24 21.5t-7 31q0 15 5 40l7 32q7 29 21 45
t48 25l126 33h-271z" />
    <glyph glyph-name="iogonek" unicode="&#x12f;" 
d="M16 0l14 67h192l107 506h-192l15 68h327l-122 -574h192l-14 -67h-109l-123 -32q-33 -9 -49 -21.5t-20 -31.5l-3 -18q-4 -16 -4 -30q0 -12 5 -20t18 -13t35 -7.5t56 -2.5h53l-14 -67h-149q-42 0 -70 3.5t-45 12t-24 21.5t-7 31q0 15 5 40l7 32q7 29 21 45t48 25l126 33
h-276zM532 845l-24 -112h-155l24 112h155z" />
    <glyph glyph-name="Idotaccent" unicode="&#x130;" 
d="M0 0zM670 808l-14 -67h-186l-143 -674h186l-14 -67h-508l14 67h186l143 674h-186l14 67h508zM515 957l-21 -102h-135l21 102h135z" />
    <glyph glyph-name="dotlessi" unicode="&#x131;" 
d="M479 641l-122 -574h192l-14 -67h-519l14 67h192l107 506h-192l15 68h327z" />
    <glyph glyph-name="IJ" unicode="&#x132;" 
d="M719 808l-127 -598q-9 -44 -28.5 -82.5t-45.5 -67t-57 -44.5t-64 -16h-194l14 67h121q22 0 42 11t37 30.5t30 45.5t19 56l113 531h-100l14 67h226zM315 808l-171 -808h-136l171 808h136z" />
    <glyph glyph-name="ij" unicode="&#x133;" 
d="M291 641l-136 -641h-135l136 641h135zM344 845l-24 -112h-155l24 112h155zM664 641l-148 -697q-12 -55 -28.5 -91t-40.5 -57.5t-57 -30t-78 -8.5h-179l14 67h81q39 0 64.5 3.5t42.5 17.5t28 42t22 78l130 609h-108l14 67h243zM717 845l-24 -112h-155l24 112h155z" />
    <glyph glyph-name="Kcommaaccent" unicode="&#x136;" 
d="M0 0zM286 808l-74 -351h8l325 351h138l-357 -380l186 -428h-151l-157 385l-8 -2l-81 -383h-135l171 808h135zM286 -50l-85 -193h-79l41 193h123z" />
    <glyph glyph-name="kcommaaccent" unicode="&#x137;" 
d="M0 0zM290 845l-97 -455h9l294 251h136l-332 -289l217 -352h-158l-179 296h-7l-62 -296h-135l179 845h135zM286 -50l-85 -193h-79l41 193h123z" />
    <glyph glyph-name="Lacute" unicode="&#x139;" 
d="M0 0zM286 808l-157 -741h395l-14 -67h-530l171 808h135zM423 957l-20 -95l-243 -26l14 69z" />
    <glyph glyph-name="lacute" unicode="&#x13a;" 
d="M0 0zM488 760.521l-165 -700.219h196l-14 -60.3018h-520l14 60.3018h190l151 639.018h-190l14 61.2012h324zM587 957l-20 -95l-243 -26l14 69z" />
    <glyph glyph-name="Lcommaaccent" unicode="&#x13b;" 
d="M0 0zM286 808l-157 -741h395l-14 -67h-530l171 808h135zM316 -50l-85 -193h-79l41 193h123z" />
    <glyph glyph-name="lcommaaccent" unicode="&#x13c;" 
d="M0 0zM488 845l-165 -778h196l-14 -67h-520l14 67h190l151 710h-190l14 68h324zM297 -50l-85 -193h-79l41 193h123z" />
    <glyph glyph-name="Lcaron" unicode="&#x13d;" 
d="M0 0zM286 808l-157 -741h395l-14 -67h-530l171 808h135zM544 845l-85 -193h-79l41 193h123z" />
    <glyph glyph-name="lcaron" unicode="&#x13e;" 
d="M0 0zM488 845l-165 -778h196l-14 -67h-520l14 67h190l151 710h-190l14 68h324zM694 845l-85 -193h-79l41 193h123z" />
    <glyph glyph-name="Ldot" unicode="&#x13f;" 
d="M0 0zM286 808l-157 -741h395l-14 -67h-530l171 808h135zM442 465l-21 -102h-135l21 102h135z" />
    <glyph glyph-name="ldot" unicode="&#x140;" 
d="M0 0zM488 845l-165 -778h196l-14 -67h-520l14 67h190l151 710h-190l14 68h324zM609 499l-21 -102h-135l21 102h135z" />
    <glyph glyph-name="Lslash" unicode="&#x141;" 
d="M316 808l-72 -340l299 127l-17 -81l-299 -127l-68 -318h395l-14 -69h-530l171 808h135z" />
    <glyph glyph-name="lslash" unicode="&#x142;" 
d="M518 845l-74 -348l203 53l-14 -70l-204 -53l-76 -360h196l-14 -67h-520l14 67h190l68 323l-197 -51l14 70l198 50l68 318h-190l14 68h324z" />
    <glyph glyph-name="Nacute" unicode="&#x143;" 
d="M0 0zM294 808l144 -663l141 663h106l-171 -808h-172l-137 593l-126 -593h-102l171 808h146zM607 957l-20 -95l-243 -26l14 69z" />
    <glyph glyph-name="nacute" unicode="&#x144;" 
d="M0 0zM487 641q72 0 103.5 -22t31.5 -79q0 -33 -11 -86l-96 -454h-132l93 440q9 40 9 68q0 37 -16.5 51.5t-48.5 14.5h-188l-122 -574h-133l136 641h374zM582 840l-20 -95l-243 -26l14 69z" />
    <glyph glyph-name="Ncommaaccent" unicode="&#x145;" 
d="M0 0zM294 808l144 -663l141 663h106l-171 -808h-172l-137 593l-126 -593h-102l171 808h146zM296 -50l-85 -193h-79l41 193h123z" />
    <glyph glyph-name="ncommaaccent" unicode="&#x146;" 
d="M0 0zM487 641q72 0 103.5 -22t31.5 -79q0 -33 -11 -86l-96 -454h-132l93 440q9 40 9 68q0 37 -16.5 51.5t-48.5 14.5h-188l-122 -574h-133l136 641h374zM296 -50l-85 -193h-79l41 193h123z" />
    <glyph glyph-name="Ncaron" unicode="&#x147;" 
d="M0 0zM294 808l144 -663l141 663h106l-171 -808h-172l-137 593l-126 -593h-102l171 808h146zM346 839l-96 118h117l66 -78l95 78h117l-147 -118h-152z" />
    <glyph glyph-name="ncaron" unicode="&#x148;" 
d="M0 0zM487 641q72 0 103.5 -22t31.5 -79q0 -33 -11 -86l-96 -454h-132l93 440q9 40 9 68q0 37 -16.5 51.5t-48.5 14.5h-188l-122 -574h-133l136 641h374zM321 722l-96 118h117l66 -78l95 78h117l-147 -118h-152z" />
    <glyph glyph-name="Eng" unicode="&#x14a;" 
d="M324 808l144 -663l141 663h106l-183 -864q-12 -55 -28.5 -91t-40.5 -57.5t-57 -30t-78 -8.5h-219l14 67h150q40 0 65 3.5t42 17.5t28 42t22 78l8 35h-66l-137 593l-126 -593h-102l171 808h146z" />
    <glyph glyph-name="eng" unicode="&#x14b;" 
d="M517 641q72 0 103.5 -22t31.5 -79q0 -33 -11 -86l-108 -510q-12 -55 -28.5 -91t-40.5 -57.5t-57 -30t-78 -8.5h-219l14 67h124q39 0 64.5 3.5t42.5 17.5t28 42t22 78l101 475q9 40 9 68q0 37 -16.5 51.5t-48.5 14.5h-188l-122 -574h-133l136 641h374z" />
    <glyph glyph-name="Omacron" unicode="&#x14c;" 
d="M9 0zM141 210q-3 -11 -3.5 -22t-1.5 -22q0 -43 19.5 -71t54.5 -28h100q21 0 41 11t37 30.5t29.5 45.5t18.5 56l82 385q5 28 5 48q0 42 -17.5 70t-52.5 28h-100q-22 0 -42.5 -11.5t-38 -31.5t-30.5 -46.5t-19 -56.5zM539 808q54 0 83.5 -42t29.5 -106q0 -34 -7 -65
l-82 -385q-9 -44 -28.5 -82.5t-45.5 -67t-57 -44.5t-64 -16h-245q-55 0 -84.5 40.5t-29.5 104.5q0 33 7 65l82 385q9 43 28 82t45 68t57.5 46t65.5 17h245zM670 957l-19 -91h-445l19 91h445z" />
    <glyph glyph-name="omacron" unicode="&#x14d;" 
d="M0 0zM144 212q-5 -24 -8 -43t-3 -34q0 -41 21.5 -54.5t67.5 -13.5h76q30 0 52 5t37.5 19.5t26.5 40t20 67.5l51 242q9 40 9 67q0 35 -16 50.5t-49 15.5h-122q-46 0 -73 -30t-42 -103zM499 641q67 0 99.5 -24t32.5 -86q0 -19 -2.5 -41.5t-8.5 -49.5l-51 -239
q-12 -59 -29.5 -97.5t-42 -61.5t-57.5 -32.5t-77 -9.5h-234q-68 0 -101 23.5t-33 85.5q0 36 12 92l51 239q12 58 29.5 97t42 62t57.5 32.5t78 9.5h234zM645 840l-19 -91h-445l19 91h445z" />
    <glyph glyph-name="Obreve" unicode="&#x14e;" 
d="M9 0zM141 210q-3 -11 -3.5 -22t-1.5 -22q0 -43 19.5 -71t54.5 -28h100q21 0 41 11t37 30.5t29.5 45.5t18.5 56l82 385q5 28 5 48q0 42 -17.5 70t-52.5 28h-100q-22 0 -42.5 -11.5t-38 -31.5t-30.5 -46.5t-19 -56.5zM539 808q54 0 83.5 -42t29.5 -106q0 -34 -7 -65
l-82 -385q-9 -44 -28.5 -82.5t-45.5 -67t-57 -44.5t-64 -16h-245q-55 0 -84.5 40.5t-29.5 104.5q0 33 7 65l82 385q9 43 28 82t45 68t57.5 46t65.5 17h245zM342 957q-2 -10 -2 -14q0 -33 27 -53t65 -20q44 0 79 24t43 63h114q-13 -33 -38 -58.5t-58 -43.5t-71 -27t-78 -9
q-80 0 -134 36t-62 102h115z" />
    <glyph glyph-name="obreve" unicode="&#x14f;" 
d="M0 0zM144 212q-5 -24 -8 -43t-3 -34q0 -41 21.5 -54.5t67.5 -13.5h76q30 0 52 5t37.5 19.5t26.5 40t20 67.5l51 242q9 40 9 67q0 35 -16 50.5t-49 15.5h-122q-46 0 -73 -30t-42 -103zM499 641q67 0 99.5 -24t32.5 -86q0 -19 -2.5 -41.5t-8.5 -49.5l-51 -239
q-12 -59 -29.5 -97.5t-42 -61.5t-57.5 -32.5t-77 -9.5h-234q-68 0 -101 23.5t-33 85.5q0 36 12 92l51 239q12 58 29.5 97t42 62t57.5 32.5t78 9.5h234zM317 840q-2 -10 -2 -14q0 -33 27 -53t65 -20q44 0 79 24t43 63h114q-13 -33 -38 -58.5t-58 -43.5t-71 -27t-78 -9
q-80 0 -134 36t-62 102h115z" />
    <glyph glyph-name="Ohungarumlaut" unicode="&#x150;" 
d="M9 0zM141 189.005q-3 -9.90039 -3.5 -19.7998q-0.5 -9.90039 -1.5 -19.8008q0 -38.7012 19.5 -63.9023q19.5 -25.2002 54.5 -25.2002h100q21 0 41 9.90039t37 27.4502q17 17.5508 29.5 40.9512t18.5 50.4014l82 346.51q5 25.2002 5 43.2012q0 37.8008 -17.5 63.002
q-17.5 25.2002 -52.5 25.2002h-100q-22 0 -42.5 -10.3506q-20.5 -10.3496 -38 -28.3506q-17.5 -18 -30.5 -41.8506t-19 -50.8516zM539 727.22q54 0 83.5 -37.8008q29.5 -37.8018 29.5 -95.4033q0 -30.6006 -7 -58.501l-82 -346.51q-9 -39.6006 -28.5 -74.252
q-19.5 -34.6504 -45.5 -60.3018q-26 -25.6504 -57 -40.0508t-64 -14.4004h-245q-55 0 -84.5 36.4512t-29.5 94.0527q0 29.7002 7 58.501l82 346.51q9 38.7012 28 73.8018q19 35.1016 45 61.2021t57.5 41.4004q31.5 15.3008 65.5 15.3008h245zM431 957l-153 -149h-105
l152 149h106zM690 957l-153 -149h-106l153 149h106z" />
    <glyph glyph-name="ohungarumlaut" unicode="&#x151;" 
d="M0 0zM144 212q-5 -24 -8 -43t-3 -34q0 -41 21.5 -54.5t67.5 -13.5h76q30 0 52 5t37.5 19.5t26.5 40t20 67.5l51 242q9 40 9 67q0 35 -16 50.5t-49 15.5h-122q-46 0 -73 -30t-42 -103zM499 641q67 0 99.5 -24t32.5 -86q0 -19 -2.5 -41.5t-8.5 -49.5l-51 -239
q-12 -59 -29.5 -97.5t-42 -61.5t-57.5 -32.5t-77 -9.5h-234q-68 0 -101 23.5t-33 85.5q0 36 12 92l51 239q12 58 29.5 97t42 62t57.5 32.5t78 9.5h234zM416 840l-153 -149h-105l152 149h106zM675 840l-153 -149h-106l153 149h106z" />
    <glyph glyph-name="OE" unicode="&#x152;" 
d="M379 741q-87 0 -112 -123l-91 -426q-6 -29 -6 -51q0 -74 66 -74h92l143 674h-92zM720 808l-14 -67h-136l-64 -302h113l-15 -68h-113l-64 -304h136l-14 -67h-382q-72 0 -104 21t-32 80q0 33 11 86l93 436q12 54 27.5 89.5t39 57t56.5 30t80 8.5h382z" />
    <glyph glyph-name="oe" unicode="&#x153;" 
d="M609 641q70 0 70 -95q0 -40 -12 -95q-39 -183 -138 -183h-142l-14 -69q-5 -25 -8 -44t-3 -33q0 -34 15.5 -44.5t47.5 -10.5h115l-14 -67h-174q-22 0 -39 4t-28 15q-16 -11 -34.5 -15t-40.5 -4h-114q-48 0 -70.5 20t-22.5 73q0 21 3 47.5t11 60.5l51 239q12 58 27 97
t34.5 62t44.5 32.5t58 9.5h114q44 0 67 -19q29 19 75 19h121zM113 186q-9 -41 -9 -67t10 -39t34 -13h17q22 0 38.5 5t29 19.5t22 40t18.5 67.5l51 242q5 24 8 43t2 34q0 30 -10.5 43t-33.5 13h-31q-34 0 -55.5 -30t-36.5 -103zM402 335h95q17 0 30 5.5t23.5 18.5t18.5 35.5
t15 56.5q5 23 7.5 40t2.5 31q0 29 -11.5 40.5t-34.5 11.5h-31q-33 0 -55.5 -29.5t-37.5 -103.5z" />
    <glyph glyph-name="Racute" unicode="&#x154;" 
d="M0 0zM528 808q28 0 50 -11.5t37 -32t23 -48.5t8 -60q0 -44 -10.5 -83t-29 -72t-43.5 -58.5t-55 -42.5q50 -29 50 -117q0 -21 -3 -45t-8 -51l-39 -187h-127l39 187q8 40 8 70q0 48 -17 78t-49 30h-174l-77 -365h-133l171 808h379zM203 434h175q25 0 49 17t43 45.5t30 65.5
t11 76q0 45 -18.5 74t-50.5 29h-174zM607 957l-20 -95l-243 -26l14 69z" />
    <glyph glyph-name="racute" unicode="&#x155;" 
d="M0 0zM629 641l-14 -67h-239q-38 0 -62 -4t-40.5 -18.5t-27.5 -43t-21 -76.5l-91 -432h-136l95 447q41 194 273 194h263zM592 840l-20 -95l-243 -26l14 69z" />
    <glyph glyph-name="Rcommaaccent" unicode="&#x156;" 
d="M0 0zM528 808q28 0 50 -11.5t37 -32t23 -48.5t8 -60q0 -44 -10.5 -83t-29 -72t-43.5 -58.5t-55 -42.5q50 -29 50 -117q0 -21 -3 -45t-8 -51l-39 -187h-127l39 187q8 40 8 70q0 48 -17 78t-49 30h-174l-77 -365h-133l171 808h379zM203 434h175q25 0 49 17t43 45.5t30 65.5
t11 76q0 45 -18.5 74t-50.5 29h-174zM296 -50l-85 -193h-79l41 193h123z" />
    <glyph glyph-name="rcommaaccent" unicode="&#x157;" 
d="M0 0zM629 641l-14 -67h-239q-38 0 -62 -4t-40.5 -18.5t-27.5 -43t-21 -76.5l-91 -432h-136l95 447q41 194 273 194h263zM116 -50l-85 -193h-79l41 193h123z" />
    <glyph glyph-name="Rcaron" unicode="&#x158;" 
d="M0 0zM528 808q28 0 50 -11.5t37 -32t23 -48.5t8 -60q0 -44 -10.5 -83t-29 -72t-43.5 -58.5t-55 -42.5q50 -29 50 -117q0 -21 -3 -45t-8 -51l-39 -187h-127l39 187q8 40 8 70q0 48 -17 78t-49 30h-174l-77 -365h-133l171 808h379zM203 434h175q25 0 49 17t43 45.5t30 65.5
t11 76q0 45 -18.5 74t-50.5 29h-174zM346 839l-96 118h117l66 -78l95 78h117l-147 -118h-152z" />
    <glyph glyph-name="rcaron" unicode="&#x159;" 
d="M0 0zM629 641l-14 -67h-239q-38 0 -62 -4t-40.5 -18.5t-27.5 -43t-21 -76.5l-91 -432h-136l95 447q41 194 273 194h263zM331 722l-96 118h117l66 -78l95 78h117l-147 -118h-152z" />
    <glyph glyph-name="Sacute" unicode="&#x15a;" 
d="M7 0zM621 741h-272q-39 0 -71 -31t-49 -110q-4 -17 -5.5 -31.5t-1.5 -26.5q0 -45 22.5 -62.5t66.5 -17.5h100q87 0 125 -37t38 -106t-19.5 -127t-52.5 -101t-77 -67t-93 -24h-325l14 67h278q22 0 42.5 8t38 27t31.5 50.5t24 78.5q7 32 7 58q0 24 -8 39.5t-25.5 24
t-44.5 11.5t-64 3h-74q-69 0 -101 39t-32 105q0 17 1.5 35t6.5 38q23 112 77 168t130 56h327zM607 957l-20 -95l-243 -26l14 69z" />
    <glyph glyph-name="sacute" unicode="&#x15b;" 
d="M0 0zM599 574h-334q-14 0 -29 -11.5t-27 -30t-20 -43t-8 -51.5q0 -29 11 -47t30 -18h240q30 0 50.5 -9.5t34 -26.5t19.5 -39.5t6 -47.5q0 -28 -6 -56q-20 -90 -63 -142t-112 -52h-401l14 67h357q18 0 35 13.5t30 34.5t20.5 47.5t7.5 52.5q0 27 -11 44.5t-38 17.5h-245
q-26 0 -45 10.5t-32 28t-19 40.5t-6 49q0 11 1.5 23t3.5 24q19 91 67 140t129 49h354zM582 840l-20 -95l-243 -26l14 69z" />
    <glyph glyph-name="Scedilla" unicode="&#x15e;" 
d="M7 0zM621 741h-272q-39 0 -71 -31t-49 -110q-4 -17 -5.5 -31.5t-1.5 -26.5q0 -45 22.5 -62.5t66.5 -17.5h100q87 0 125 -37t38 -106t-19.5 -127t-52.5 -101t-77 -67t-93 -24h-325l14 67h278q22 0 42.5 8t38 27t31.5 50.5t24 78.5q7 32 7 58q0 24 -8 39.5t-25.5 24
t-44.5 11.5t-64 3h-74q-69 0 -101 39t-32 105q0 17 1.5 35t6.5 38q23 112 77 168t130 56h327zM296 -50l-85 -193h-79l41 193h123z" />
    <glyph glyph-name="scedilla" unicode="&#x15f;" 
d="M0 0zM599 574h-334q-14 0 -29 -11.5t-27 -30t-20 -43t-8 -51.5q0 -29 11 -47t30 -18h240q30 0 50.5 -9.5t34 -26.5t19.5 -39.5t6 -47.5q0 -28 -6 -56q-20 -90 -63 -142t-112 -52h-401l14 67h357q18 0 35 13.5t30 34.5t20.5 47.5t7.5 52.5q0 27 -11 44.5t-38 17.5h-245
q-26 0 -45 10.5t-32 28t-19 40.5t-6 49q0 11 1.5 23t3.5 24q19 91 67 140t129 49h354zM296 -50l-85 -193h-79l41 193h123z" />
    <glyph glyph-name="Scaron" unicode="&#x160;" 
d="M7 0zM621 741h-272q-39 0 -71 -31t-49 -110q-4 -17 -5.5 -31.5t-1.5 -26.5q0 -45 22.5 -62.5t66.5 -17.5h100q87 0 125 -37t38 -106t-19.5 -127t-52.5 -101t-77 -67t-93 -24h-325l14 67h278q22 0 42.5 8t38 27t31.5 50.5t24 78.5q7 32 7 58q0 24 -8 39.5t-25.5 24
t-44.5 11.5t-64 3h-74q-69 0 -101 39t-32 105q0 17 1.5 35t6.5 38q23 112 77 168t130 56h327zM346 839l-96 118h117l66 -78l95 78h117l-147 -118h-152z" />
    <glyph glyph-name="scaron" unicode="&#x161;" 
d="M0 0zM599 574h-334q-14 0 -29 -11.5t-27 -30t-20 -43t-8 -51.5q0 -29 11 -47t30 -18h240q30 0 50.5 -9.5t34 -26.5t19.5 -39.5t6 -47.5q0 -28 -6 -56q-20 -90 -63 -142t-112 -52h-401l14 67h357q18 0 35 13.5t30 34.5t20.5 47.5t7.5 52.5q0 27 -11 44.5t-38 17.5h-245
q-26 0 -45 10.5t-32 28t-19 40.5t-6 49q0 11 1.5 23t3.5 24q19 91 67 140t129 49h354zM321 722l-96 118h117l66 -78l95 78h117l-147 -118h-152z" />
    <glyph glyph-name="Tcedilla" unicode="&#x162;" 
d="M132 0zM667 808l-14 -67h-180l-157 -741h-133l157 741h-187l14 67h500zM296 -50l-85 -193h-79l41 193h123z" />
    <glyph glyph-name="tcedilla" unicode="&#x163;" 
d="M107 0zM455 808l-35 -167h221l-14 -67h-221l-84 -393q-4 -19 -6.5 -34t-2.5 -27q0 -16 5.5 -26.5t18 -16.5t34 -8t53.5 -2l-14 -67h-96q-39 0 -66.5 3.5t-44 13t-24 25t-7.5 39.5q0 16 3 35t8 43l89 415h-165l14 67h165l35 167h134zM336 -50l-85 -193h-79l41 193h123z
" />
    <glyph glyph-name="Tcaron" unicode="&#x164;" 
d="M153 0zM667 808l-14 -67h-180l-157 -741h-133l157 741h-187l14 67h500zM346 839l-96 118h117l66 -78l95 78h117l-147 -118h-152z" />
    <glyph glyph-name="tcaron" unicode="&#x165;" 
d="M107 0zM455 808l-35 -167h221l-14 -67h-221l-84 -393q-4 -19 -6.5 -34t-2.5 -27q0 -16 5.5 -26.5t18 -16.5t34 -8t53.5 -2l-14 -67h-96q-39 0 -66.5 3.5t-44 13t-24 25t-7.5 39.5q0 16 3 35t8 43l89 415h-165l14 67h165l35 167h134zM718 865l-85 -193h-79l41 193h123z
" />
    <glyph glyph-name="Tbar" unicode="&#x166;" 
d="M312 466l58 275h-187l14 67h500l-14 -67h-180l-58 -275h136l-15 -70h-136l-84 -396h-133l84 396h-144l15 70h144z" />
    <glyph glyph-name="tbar" unicode="&#x167;" 
d="M264 399l38 175h-165l14 67h165l35 167h134l-35 -167h221l-14 -67h-221l-38 -175h225l-15 -70h-225l-31 -148q-4 -19 -6.5 -34t-2.5 -27q0 -16 5.5 -26.5t18 -16.5t34 -8t53.5 -2l-14 -67h-96q-39 0 -66.5 3.5t-44 13t-24 25t-7.5 39.5q0 16 3 35t8 43l36 170h-161l15 70
h161z" />
    <glyph glyph-name="Utilde" unicode="&#x168;" 
d="M12 0zM271 808l-127 -598q-6 -29 -6 -52q0 -43 19 -67t54 -24h96q42 0 77 38.5t49 104.5l127 598h128l-127 -598q-9 -44 -28.5 -82.5t-45.5 -67t-57.5 -44.5t-64.5 -16h-240q-54 0 -83.5 40.5t-29.5 105.5q0 32 7 64l127 598h125zM208 856q11 48 49.5 74.5t107.5 26.5
q32 0 51 -7t34.5 -15t31 -15t39.5 -7q23 0 38 7t21 37h85q-8 -40 -46 -70t-108 -30q-36 0 -55.5 8t-34 17t-28.5 17t-38 8q-30 0 -43 -11.5t-19 -39.5h-85z" />
    <glyph glyph-name="utilde" unicode="&#x169;" 
d="M4 0zM244 641l-94 -442q-9 -39 -9 -65q0 -36 16.5 -51.5t50.5 -15.5h187l122 574h136l-136 -641h-378q-72 0 -103.5 21t-31.5 79q0 18 2.5 39.5t8.5 47.5l97 454h132zM183 739q11 48 49.5 74.5t107.5 26.5q32 0 51 -7t34.5 -15t31 -15t39.5 -7q23 0 38 7t21 37h85
q-8 -40 -46 -70t-108 -30q-36 0 -55.5 8t-34 17t-28.5 17t-38 8q-30 0 -43 -11.5t-19 -39.5h-85z" />
    <glyph glyph-name="Umacron" unicode="&#x16a;" 
d="M12 0zM271 808l-127 -598q-6 -29 -6 -52q0 -43 19 -67t54 -24h96q42 0 77 38.5t49 104.5l127 598h128l-127 -598q-9 -44 -28.5 -82.5t-45.5 -67t-57.5 -44.5t-64.5 -16h-240q-54 0 -83.5 40.5t-29.5 105.5q0 32 7 64l127 598h125zM670 957l-19 -91h-445l19 91h445z" />
    <glyph glyph-name="umacron" unicode="&#x16b;" 
d="M4 0zM244 641l-94 -442q-9 -39 -9 -65q0 -36 16.5 -51.5t50.5 -15.5h187l122 574h136l-136 -641h-378q-72 0 -103.5 21t-31.5 79q0 18 2.5 39.5t8.5 47.5l97 454h132zM645 840l-19 -91h-445l19 91h445z" />
    <glyph glyph-name="Ubreve" unicode="&#x16c;" 
d="M12 0zM271 808l-127 -598q-6 -29 -6 -52q0 -43 19 -67t54 -24h96q42 0 77 38.5t49 104.5l127 598h128l-127 -598q-9 -44 -28.5 -82.5t-45.5 -67t-57.5 -44.5t-64.5 -16h-240q-54 0 -83.5 40.5t-29.5 105.5q0 32 7 64l127 598h125zM342 957q-2 -10 -2 -14q0 -33 27 -53
t65 -20q44 0 79 24t43 63h114q-13 -33 -38 -58.5t-58 -43.5t-71 -27t-78 -9q-80 0 -134 36t-62 102h115z" />
    <glyph glyph-name="ubreve" unicode="&#x16d;" 
d="M4 0zM244 641l-94 -442q-9 -39 -9 -65q0 -36 16.5 -51.5t50.5 -15.5h187l122 574h136l-136 -641h-378q-72 0 -103.5 21t-31.5 79q0 18 2.5 39.5t8.5 47.5l97 454h132zM317 840q-2 -10 -2 -14q0 -33 27 -53t65 -20q44 0 79 24t43 63h114q-13 -33 -38 -58.5t-58 -43.5
t-71 -27t-78 -9q-80 0 -134 36t-62 102h115z" />
    <glyph glyph-name="Uring" unicode="&#x16e;" 
d="M12 0zM271 808l-127 -598q-6 -29 -6 -52q0 -43 19 -67t54 -24h96q42 0 77 38.5t49 104.5l127 598h128l-127 -598q-9 -44 -28.5 -82.5t-45.5 -67t-57.5 -44.5t-64.5 -16h-240q-54 0 -83.5 40.5t-29.5 105.5q0 32 7 64l127 598h125zM494 957q32 0 47.5 -9t15.5 -31
q0 -9 -3 -21l-12 -57q-8 -35 -27.5 -48.5t-58.5 -13.5h-94q-32 0 -47 8.5t-15 30.5q0 9 3 23l12 57q7 34 26.5 47.5t58.5 13.5h94zM371 843q-1 -3 -1 -8q0 -13 8 -20.5t22 -7.5h31q21 0 31 10t13 26l11 53q1 4 1.5 7t0.5 6q0 18 -23 18h-49q-28 0 -34 -31z" />
    <glyph glyph-name="uring" unicode="&#x16f;" 
d="M4 0zM244 641l-94 -442q-9 -39 -9 -65q0 -36 16.5 -51.5t50.5 -15.5h187l122 574h136l-136 -641h-378q-72 0 -103.5 21t-31.5 79q0 18 2.5 39.5t8.5 47.5l97 454h132zM476 870q32 0 47.5 -9t15.5 -31q0 -9 -3 -21l-12 -57q-8 -35 -27.5 -48.5t-58.5 -13.5h-94
q-32 0 -47 8.5t-15 30.5q0 9 3 23l12 57q7 34 26.5 47.5t58.5 13.5h94zM353 756q-1 -3 -1 -8q0 -13 8 -20.5t22 -7.5h31q21 0 31 10t13 26l11 53q1 4 1.5 7t0.5 6q0 18 -23 18h-49q-28 0 -34 -31z" />
    <glyph glyph-name="Uhungarumlaut" unicode="&#x170;" 
d="M12 0zM271 727.22l-127 -538.215q-6 -26.1006 -6 -46.8008q0 -38.7012 19 -60.3018t54 -21.6006h96q42 0 77 34.6504q35 34.6514 49 94.0527l127 538.215h128l-127 -538.215q-9 -39.6006 -28.5 -74.252q-19.5 -34.6504 -45.5 -60.3018q-26 -25.6504 -57.5 -40.0508
t-64.5 -14.4004h-240q-54 0 -83.5 36.4512t-29.5 94.9521q0 28.8008 7 57.6016l127 538.215h125zM431 957l-153 -149h-105l152 149h106zM690 957l-153 -149h-106l153 149h106z" />
    <glyph glyph-name="uhungarumlaut" unicode="&#x171;" 
d="M4 0zM244 641l-94 -442q-9 -39 -9 -65q0 -36 16.5 -51.5t50.5 -15.5h187l122 574h136l-136 -641h-378q-72 0 -103.5 21t-31.5 79q0 18 2.5 39.5t8.5 47.5l97 454h132zM426 840l-153 -149h-105l152 149h106zM685 840l-153 -149h-106l153 149h106z" />
    <glyph glyph-name="Uogonek" unicode="&#x172;" 
d="M155 0q-54 0 -83.5 40.5t-29.5 105.5q0 32 7 64l127 598h125l-127 -598q-6 -29 -6 -52q0 -43 19 -67t54 -24h96q42 0 77 38.5t49 104.5l127 598h128l-127 -598q-9 -44 -28.5 -82.5t-45.5 -67t-57 -44.5t-64 -16l-123 -32q-33 -9 -49 -21.5t-20 -31.5l-3 -18
q-4 -16 -4 -30q0 -12 5 -20t18 -13t35 -7.5t56 -2.5h53l-14 -67h-149q-42 0 -70 3.5t-45 12t-24 21.5t-7 31q0 15 5 40l7 32q7 29 21 45t48 25l126 33h-107z" />
    <glyph glyph-name="uogonek" unicode="&#x173;" 
d="M169 0q-72 0 -103.5 21t-31.5 79q0 18 2.5 39.5t8.5 47.5l97 454h132l-94 -442q-9 -39 -9 -65q0 -36 16.5 -51.5t50.5 -15.5h187l122 574h136l-136 -641l-123 -32q-33 -9 -49 -21.5t-20 -31.5l-3 -18q-4 -16 -4 -30q0 -12 5 -20t18 -13t35 -7.5t56 -2.5h53l-14 -67h-149
q-42 0 -70 3.5t-45 12t-24 21.5t-7 31q0 15 5 40l7 32q7 29 21 45t48 25l126 33h-244z" />
    <glyph glyph-name="Wcircumflex" unicode="&#x174;" 
d="M39 0zM247 808l-100 -703h5l183 484h72l-24 -484h5l198 703h132l-265 -808h-148l17 353h-4l-132 -353h-147l74 808h134zM524 957l96 -118h-117l-65 78l-96 -78h-117l147 118h152z" />
    <glyph glyph-name="wcircumflex" unicode="&#x175;" 
d="M51 0zM221 641l-62 -570l150 399h72l-21 -399l182 570h136l-237 -641h-152l20 304l-106 -304h-152l34 641h136zM499 840l96 -118h-117l-65 78l-96 -78h-117l147 118h152z" />
    <glyph glyph-name="Ycircumflex" unicode="&#x176;" 
d="M137 0zM280 808l52 -408l230 408h134l-327 -518l-61 -290h-135l62 292l-98 516h143zM524 957l96 -118h-117l-65 78l-96 -78h-117l147 118h152z" />
    <glyph glyph-name="ycircumflex" unicode="&#x177;" 
d="M45 0zM239 641l57 -486l272 486h106l-519 -884h-110l153 243l-108 641h149zM499 840l96 -118h-117l-65 78l-96 -78h-117l147 118h152z" />
    <glyph glyph-name="Ydieresis" unicode="&#x178;" 
d="M137 0zM280 808l52 -408l230 408h134l-327 -518l-61 -290h-135l62 292l-98 516h143zM380 957l-21 -102h-135l21 102h135zM650 957l-21 -102h-135l21 102h135z" />
    <glyph glyph-name="Zacute" unicode="&#x179;" 
d="M0 0zM681 808l-13 -63l-523 -678h379l-14 -67h-530l9 44l546 697h-398l14 67h530zM607 957l-20 -95l-243 -26l14 69z" />
    <glyph glyph-name="zacute" unicode="&#x17a;" 
d="M0 0zM632 641l-13 -59l-448 -515h339l-14 -67h-501l8 40l472 534h-358l14 67h501zM582 840l-20 -95l-243 -26l14 69z" />
    <glyph glyph-name="Zdotaccent" unicode="&#x17b;" 
d="M0 0zM681 808l-13 -63l-523 -678h379l-14 -67h-530l9 44l546 697h-398l14 67h530zM515 957l-21 -102h-135l21 102h135z" />
    <glyph glyph-name="zdotaccent" unicode="&#x17c;" 
d="M0 0zM632 641l-13 -59l-448 -515h339l-14 -67h-501l8 40l472 534h-358l14 67h501zM490 840l-21 -102h-135l21 102h135z" />
    <glyph glyph-name="Zcaron" unicode="&#x17d;" 
d="M0 0zM681 808l-13 -63l-523 -678h379l-14 -67h-530l9 44l546 697h-398l14 67h530zM346 839l-96 118h117l66 -78l95 78h117l-147 -118h-152z" />
    <glyph glyph-name="zcaron" unicode="&#x17e;" 
d="M0 0zM632 641l-13 -59l-448 -515h339l-14 -67h-501l8 40l472 534h-358l14 67h501zM321 722l-96 118h117l66 -78l95 78h117l-147 -118h-152z" />
    <glyph glyph-name="florin" unicode="&#x192;" 
d="M151 574l14 67h159q10 48 26 86t40.5 64t59 40t81.5 14h198l-14 -68h-138q-26 0 -45 -10.5t-33.5 -29t-24 -43.5t-15.5 -53h154l-14 -67h-154l-134 -630q-12 -55 -28.5 -91t-40.5 -57.5t-57 -30t-78 -8.5h-158l14 67h60q39 0 64.5 3.5t42.5 17.5t28 42t22 78l130 609
h-159z" />
    <glyph glyph-name="Scommaaccent" unicode="&#x218;" 
d="M7 0zM621 741h-272q-39 0 -71 -31t-49 -110q-4 -17 -5.5 -31.5t-1.5 -26.5q0 -45 22.5 -62.5t66.5 -17.5h100q87 0 125 -37t38 -106t-19.5 -127t-52.5 -101t-77 -67t-93 -24h-325l14 67h278q22 0 42.5 8t38 27t31.5 50.5t24 78.5q7 32 7 58q0 24 -8 39.5t-25.5 24
t-44.5 11.5t-64 3h-74q-69 0 -101 39t-32 105q0 17 1.5 35t6.5 38q23 112 77 168t130 56h327zM296 -50l-85 -193h-79l41 193h123z" />
    <glyph glyph-name="scommaaccent" unicode="&#x219;" 
d="M0 0zM599 574h-334q-14 0 -29 -11.5t-27 -30t-20 -43t-8 -51.5q0 -29 11 -47t30 -18h240q30 0 50.5 -9.5t34 -26.5t19.5 -39.5t6 -47.5q0 -28 -6 -56q-20 -90 -63 -142t-112 -52h-401l14 67h357q18 0 35 13.5t30 34.5t20.5 47.5t7.5 52.5q0 27 -11 44.5t-38 17.5h-245
q-26 0 -45 10.5t-32 28t-19 40.5t-6 49q0 11 1.5 23t3.5 24q19 91 67 140t129 49h354zM296 -50l-85 -193h-79l41 193h123z" />
    <glyph glyph-name="uni021A" unicode="&#x21a;" 
d="M132 0zM667 808l-14 -67h-180l-157 -741h-133l157 741h-187l14 67h500zM296 -50l-85 -193h-79l41 193h123z" />
    <glyph glyph-name="uni021B" unicode="&#x21b;" 
d="M107 0zM455 808l-35 -167h221l-14 -67h-221l-84 -393q-4 -19 -6.5 -34t-2.5 -27q0 -16 5.5 -26.5t18 -16.5t34 -8t53.5 -2l-14 -67h-96q-39 0 -66.5 3.5t-44 13t-24 25t-7.5 39.5q0 16 3 35t8 43l89 415h-165l14 67h165l35 167h134zM336 -50l-85 -193h-79l41 193h123z
" />
    <glyph glyph-name="circumflex" unicode="&#x2c6;" 
d="M519 790l96 -118h-117l-65 78l-96 -78h-117l147 118h152z" />
    <glyph glyph-name="caron" unicode="&#x2c7;" 
d="M341 672l-96 118h117l66 -78l95 78h117l-147 -118h-152z" />
    <glyph glyph-name="breve" unicode="&#x2d8;" 
d="M337 790q-2 -10 -2 -14q0 -33 27 -53t65 -20q44 0 79 24t43 63h114q-13 -33 -38 -58.5t-58 -43.5t-71 -27t-78 -9q-80 0 -134 36t-62 102h115z" />
    <glyph glyph-name="dotaccent" unicode="&#x2d9;" 
d="M510 790l-21 -102h-135l21 102h135z" />
    <glyph glyph-name="ring" unicode="&#x2da;" 
d="M490 790q32 0 47.5 -9t15.5 -31q0 -9 -3 -21l-12 -57q-8 -35 -27.5 -48.5t-58.5 -13.5h-94q-32 0 -47 8.5t-15 30.5q0 9 3 23l12 57q7 34 26.5 47.5t58.5 13.5h94zM367 676q-1 -3 -1 -8q0 -13 8 -20.5t22 -7.5h31q21 0 31 10t13 26l11 53q1 4 1.5 7t0.5 6q0 18 -23 18
h-49q-28 0 -34 -31z" />
    <glyph glyph-name="ogonek" unicode="&#x2db;" 
d="M426 0l-123 -32q-33 -9 -49 -21.5t-20 -31.5l-3 -18q-4 -16 -4 -30q0 -12 5 -20t18 -13t35 -7.5t56 -2.5h53l-14 -67h-149q-42 0 -70 3.5t-45 12t-24 21.5t-7 31q0 15 5 40l7 32q7 29 21 45t48 25l126 33h134z" />
    <glyph glyph-name="tilde" unicode="&#x2dc;" 
d="M203 689q11 48 49.5 74.5t107.5 26.5q32 0 51 -7t34.5 -15t31 -15t39.5 -7q23 0 38 7t21 37h85q-8 -40 -46 -70t-108 -30q-36 0 -55.5 8t-34 17t-28.5 17t-38 8q-30 0 -43 -11.5t-19 -39.5h-85z" />
    <glyph glyph-name="hungarumlaut" unicode="&#x2dd;" 
d="M426 790l-153 -149h-105l152 149h106zM685 790l-153 -149h-106l153 149h106z" />
    <glyph glyph-name="Delta" unicode="&#x394;" 
d="M2 0l353 808h195v-808h-548zM162 67h256l20 674h-9z" />
    <glyph glyph-name="Omega" unicode="&#x3a9;" 
d="M542 0h-200l50 238q39 8 69.5 43t41.5 89l48 225q2 12 3.5 24t1.5 23q0 43 -18.5 71t-54.5 28h-102q-23 0 -43.5 -11.5t-37.5 -31.5t-30 -46.5t-19 -56.5l-48 -225q-5 -25 -5 -42q0 -37 15.5 -60.5t44.5 -29.5l-50 -238h-200l14 67h151l22 103q-50 24 -75 57.5t-25 84.5
q0 29 7 58l48 225q9 43 28 82t45 68t57 46t66 17h200q56 0 84.5 -41.5t28.5 -105.5q0 -34 -7 -66l-48 -225q-17 -78 -60 -124t-117 -76l-22 -103h151z" />
    <glyph glyph-name="mu" unicode="&#x3bc;" 
d="M275 641l-80 -377q-9 -42 -9 -75q0 -120 119 -120h120l122 572h136l-136 -641h-282q-49 0 -79 4t-43 15l-56 -262h-132l187 884h133z" />
    <glyph glyph-name="pi" unicode="&#x3c0;" 
d="M679 640l-15 -67h-106l-121 -573h-96l121 573h-122l-121 -573h-97l121 573h-114l15 67h535z" />
    <glyph glyph-name="Wgrave" unicode="&#x1e80;" 
d="M39 0zM247 808l-100 -703h5l183 484h72l-24 -484h5l198 703h132l-265 -808h-148l17 353h-4l-132 -353h-147l74 808h134zM516 905l-14 -69l-233 26l20 95z" />
    <glyph glyph-name="wgrave" unicode="&#x1e81;" 
d="M51 0zM221 641l-62 -570l150 399h72l-21 -399l182 570h136l-237 -641h-152l20 304l-106 -304h-152l34 641h136zM491 788l-14 -69l-233 26l20 95z" />
    <glyph glyph-name="Wacute" unicode="&#x1e82;" 
d="M39 0zM247 808l-100 -703h5l183 484h72l-24 -484h5l198 703h132l-265 -808h-148l17 353h-4l-132 -353h-147l74 808h134zM607 957l-20 -95l-243 -26l14 69z" />
    <glyph glyph-name="wacute" unicode="&#x1e83;" 
d="M51 0zM221 641l-62 -570l150 399h72l-21 -399l182 570h136l-237 -641h-152l20 304l-106 -304h-152l34 641h136zM582 840l-20 -95l-243 -26l14 69z" />
    <glyph glyph-name="Wdieresis" unicode="&#x1e84;" 
d="M39 0zM247 808l-100 -703h5l183 484h72l-24 -484h5l198 703h132l-265 -808h-148l17 353h-4l-132 -353h-147l74 808h134zM380 957l-21 -102h-135l21 102h135zM650 957l-21 -102h-135l21 102h135z" />
    <glyph glyph-name="wdieresis" unicode="&#x1e85;" 
d="M51 0zM221 641l-62 -570l150 399h72l-21 -399l182 570h136l-237 -641h-152l20 304l-106 -304h-152l34 641h136zM355 840l-21 -102h-135l21 102h135zM625 840l-21 -102h-135l21 102h135z" />
    <glyph glyph-name="Ygrave" unicode="&#x1ef2;" 
d="M137 0zM280 808l52 -408l230 408h134l-327 -518l-61 -290h-135l62 292l-98 516h143zM516 905l-14 -69l-233 26l20 95z" />
    <glyph glyph-name="ygrave" unicode="&#x1ef3;" 
d="M45 0zM239 641l57 -486l272 486h106l-519 -884h-110l153 243l-108 641h149zM491 788l-14 -69l-233 26l20 95z" />
    <glyph glyph-name="endash" unicode="&#x2013;" 
d="M60 339zM587 409l-14 -70h-513l14 70h513z" />
    <glyph glyph-name="emdash" unicode="&#x2014;" 
d="M60 339zM587 409l-14 -70h-513l14 70h513z" />
    <glyph glyph-name="quoteleft" unicode="&#x2018;" 
d="M298 542l140 303h109l-94 -303h-155z" />
    <glyph glyph-name="quoteright" unicode="&#x2019;" 
d="M547 845l-140 -303h-109l94 303h155z" />
    <glyph glyph-name="quotesinglbase" unicode="&#x201a;" 
d="M392 117l-140 -303h-109l94 303h155z" />
    <glyph glyph-name="quotedblleft" unicode="&#x201c;" 
d="M178 542l140 303h109l-94 -303h-155zM418 542l140 303h109l-94 -303h-155z" />
    <glyph glyph-name="quotedblright" unicode="&#x201d;" 
d="M667 845l-140 -303h-109l94 303h155zM427 845l-140 -303h-109l94 303h155z" />
    <glyph glyph-name="quotedblbase" unicode="&#x201e;" 
d="M512 117l-140 -303h-109l94 303h155zM272 117l-140 -303h-109l94 303h155z" />
    <glyph glyph-name="dagger" unicode="&#x2020;" 
d="M492 808l-38 -180h175l-16 -75h-175l-117 -553h-92l117 553h-174l16 75h174l38 180h92z" />
    <glyph glyph-name="daggerdbl" unicode="&#x2021;" 
d="M492 808l-38 -180h175l-16 -75h-175l-65 -307h175l-16 -75h-175l-36 -171h-92l36 171h-174l16 75h174l65 307h-174l16 75h174l38 180h92z" />
    <glyph glyph-name="bullet" unicode="&#x2022;" 
d="M562 584l-71 -334h-326l71 334h326z" />
    <glyph glyph-name="ellipsis" unicode="&#x2026;" 
d="M577 117l-24 -117h-135l24 117h135zM367 117l-24 -117h-135l24 117h135zM157 117l-24 -117h-135l24 117h135z" />
    <glyph glyph-name="perthousand" unicode="&#x2030;" 
d="M578 356q24 0 36 -12.5t12 -43.5q0 -26 -7 -60l-27 -124q-14 -64 -34 -90t-55 -26h-32q-23 0 -35 12.5t-12 42.5q0 12 2 27t6 34l27 124q14 65 33.5 90.5t53.5 25.5h32zM545 300q-23 0 -35 -60l-26 -122q-6 -26 -6 -41q0 -22 15 -22h12q24 0 37 61l27 124q4 17 4 33
q0 27 -16 27h-12zM470 808l-338 -808h-64l340 808h62zM252 808q23 0 34.5 -12.5t11.5 -44.5q0 -25 -7 -59l-27 -123q-14 -65 -34 -91t-53 -26h-33q-24 0 -36 12.5t-12 42.5q0 12 1.5 27.5t6.5 34.5l27 123q7 33 15 55t18.5 35.5t24 19.5t30.5 6h33zM217 753q-23 0 -36 -61
l-26 -122q-6 -26 -6 -40q0 -22 15 -22h12q13 0 20.5 14.5t15.5 46.5l27 123q2 12 3 21t2 17q0 23 -15 23h-12zM390 356q23 0 34.5 -12t11.5 -41q0 -12 -2 -27.5t-6 -35.5l-27 -124q-14 -64 -33 -90t-53 -26h-32q-24 0 -36 13t-12 42q0 12 2 27t6 34l27 124q7 33 15 55
t18.5 35.5t24 19.5t30.5 6h32zM354 300q-23 0 -35 -60l-26 -122q-6 -27 -6 -42q0 -21 15 -21h13q14 0 22.5 15t15.5 46l27 124q4 19 4 35q0 25 -17 25h-13z" />
    <glyph glyph-name="guilsinglleft" unicode="&#x2039;" 
d="M496 566l-20 -95l-166 -106l121 -106l-21 -95l-164 173l13 60z" />
    <glyph glyph-name="guilsinglright" unicode="&#x203a;" 
d="M295 566l165 -169l-13 -60l-238 -173l21 95l166 106l-121 106z" />
    <glyph glyph-name="fraction" unicode="&#x2044;" 
d="M718 808l-639 -808h-76l642 808h73z" />
    <glyph glyph-name="uni20A4" unicode="&#x20a4;" 
d="M232 554l10 45q10 45 29 83t45 66t57 44t64 16h248l-14 -67h-175q-22 0 -42 -11t-36.5 -30t-29 -45t-19.5 -56l-10 -45h164l-15 -70h-164l-27 -130h164l-15 -70h-164l-46 -215h286l-14 -69h-413l60 284h-92l15 70h92l27 130h-92l15 70h92z" />
    <glyph glyph-name="Euro" unicode="&#x20ac;" 
d="M711 808l-14 -67h-231q-99 0 -139 -193l-3 -13h168l-14 -69h-168l-31 -145h168l-15 -67h-168l-9 -45q-3 -13 -4 -25t-1 -23q0 -42 18.5 -68.5t54.5 -26.5h231l-15 -68h-303q-112 0 -112 139q0 25 3 54t11 63h-74l15 67h74l31 145h-74l14 69h74q58 273 210 273h303z" />
    <glyph glyph-name="trademark" unicode="&#x2122;" 
d="M372 811l-12 -54h-52l-82 -386h-97l82 386h-58l12 54h207zM521 810l-10 -321l127 321h94l-94 -439h-66l45 211l-99 -211h-70v209l-45 -209h-68l94 439h92z" />
    <glyph glyph-name="partialdiff" unicode="&#x2202;" 
d="M152 175q-4 -20 -4 -40q0 -68 66 -68h149q46 0 71.5 29t41.5 103l45 214h-263q-57 0 -75 -90zM559 845q72 0 105 -21.5t33 -80.5q0 -18 -3 -39t-8 -46l-100 -471q-12 -55 -28 -91t-40.5 -57.5t-58 -30t-79.5 -8.5h-211q-72 0 -104 21t-32 80q0 33 11 86l30 141
q15 72 57 112t103 40h302l42 198q4 19 4 39q0 31 -16 46t-52 15h-241l14 67h272z" />
    <glyph glyph-name="product" unicode="&#x220f;" 
d="M720 808l-171 -808h-111l157 741h-325l-157 -741h-110l171 808h546z" />
    <glyph glyph-name="summation" unicode="&#x2211;" 
d="M700 808l-14 -67h-372l165 -342l-308 -332h372l-14 -67h-508l372 399l-201 409h508z" />
    <glyph glyph-name="minus" unicode="&#x2212;" 
d="M600 476l-15 -69h-448l15 69h448z" />
    <glyph glyph-name="radical" unicode="&#x221a;" 
d="M218 368l35 -297l361 737h112l-429 -808h-115l-59 288h-66l17 80h144z" />
    <glyph glyph-name="infinity" unicode="&#x221e;" 
d="M152 514q4 19 17.5 35.5t33 28t44 18t50.5 6.5q33 0 57.5 -7.5t39.5 -24.5q25 17 51.5 24.5t58.5 7.5q50 0 82 -19.5t32 -54.5v-6.5t-1 -7.5l-29 -134q-4 -20 -17.5 -36t-33.5 -27.5t-45.5 -18t-52.5 -6.5q-63 0 -98 32q-44 -32 -109 -32q-48 0 -79.5 20t-31.5 54
q0 4 2 14zM391 418q-1 -2 -1 -6q0 -34 66 -34q34 0 56 11t26 29l12 57q0 2 0.5 3.5t0.5 3.5q0 17 -17.5 26t-48.5 9q-35 0 -56.5 -11.5t-25.5 -30.5zM187 418q-1 -2 -1 -6q0 -15 18 -24.5t50 -9.5t53.5 11t25.5 29l12 57q0 2 0.5 4t0.5 4q0 17 -17 25.5t-46 8.5
q-34 0 -57 -11.5t-27 -30.5z" />
    <glyph glyph-name="integral" unicode="&#x222b;" 
d="M749 845l-14 -68h-138q-25 0 -44.5 -10.5t-33.5 -29t-24 -43.5t-16 -53l-145 -681q-10 -48 -26 -85.5t-40.5 -64t-59 -40t-81.5 -13.5h-197l14 68h137q25 0 44.5 10.5t33.5 29t24 43t16 52.5l145 681q10 48 26 86t40.5 64t59 40t81.5 14h198z" />
    <glyph glyph-name="approxequal" unicode="&#x2248;" 
d="M126 434q6 31 20 59.5t36.5 50.5t54 35.5t74.5 13.5q39 0 59.5 -13.5t35.5 -30t30.5 -30t44.5 -13.5q34 0 56.5 24t31.5 63h79q-6 -29 -20.5 -57.5t-36.5 -51t-52 -36.5t-67 -14q-27 0 -45.5 7t-32.5 17.5t-24 23t-19.5 23t-21 17.5t-26.5 7q-26 0 -44 -8.5t-29 -22
t-17.5 -30.5t-9.5 -34h-77zM78 229q7 31 20.5 60t36 51t54.5 35t75 13q40 0 60.5 -14t35 -30.5t29.5 -30t44 -13.5q34 0 57.5 24.5t31.5 63.5h78q-6 -29 -20.5 -57t-36.5 -50.5t-52 -36.5t-67 -14q-41 0 -63 15t-37.5 32.5t-29.5 32.5t-38 15q-26 0 -43.5 -8.5t-28.5 -22
t-17.5 -30.5t-10.5 -34z" />
    <glyph glyph-name="notequal" unicode="&#x2260;" 
d="M459 590l165 218h85l-165 -218h65l-15 -71h-101l-110 -143h180l-14 -69h-217l-230 -307h-88l231 307h-112l14 69h151l109 143h-229l15 71h266z" />
    <glyph glyph-name="lessequal" unicode="&#x2264;" 
d="M21 0zM579 727l-19 -91l-281 -202l-4 -17l195 -202l-19 -91l-295 296zM484 69l-15 -69h-448l15 69h448z" />
    <glyph glyph-name="greaterequal" unicode="&#x2265;" 
d="M21 0zM514 420l-422 -296l19 91l281 202l4 17l-195 202l19 91zM484 69l-15 -69h-448l15 69h448z" />
    <glyph glyph-name="lozenge" unicode="&#x25ca;" 
d="M379 0h-209l-23 404l195 404h209l23 -404zM465 404v342h-59l-148 -342v-342h58z" />
    <glyph glyph-name="DEL" 
 />
    <glyph glyph-name=".ttfautohint" horiz-adv-x="0" 
d="M0 0z" />
  </font>
</defs>
</svg>
